<?xml version="1.0" encoding="utf-8"?>
<!-- Generator: Adobe Illustrator 27.0.0, SVG Export Plug-In . SVG Version: 6.00 Build 0)  -->
<svg version="1.1" id="_레이어_2" xmlns="http://www.w3.org/2000/svg" xmlns:xlink="http://www.w3.org/1999/xlink" x="0px"
	 y="0px" viewBox="0 0 1034.1 93.8" style="enable-background:new 0 0 1034.1 93.8;" xml:space="preserve">
<style type="text/css">
	.st0{fill:#231815;}
	.st1{fill:#888888;}
	.st2{fill:#FFFFFF;stroke:#FFFFFF;stroke-miterlimit:10;}
</style>
<g>
	<rect x="0.3" class="st0" width="1034" height="93.4"/>
	<g>
		<g>
			<rect y="46.8" class="st1" width="129.3" height="23.3"/>
			<rect x="129.3" y="70.1" class="st1" width="129.3" height="23.3"/>
		</g>
		<g>
			<rect x="258.5" y="46.8" class="st1" width="129.3" height="23.3"/>
			<rect x="387.8" y="70.1" class="st1" width="129.3" height="23.3"/>
		</g>
		<g>
			<rect y="0.3" class="st1" width="129.3" height="23.3"/>
			<rect x="129.3" y="23.5" class="st1" width="129.3" height="23.3"/>
		</g>
		<g>
			<rect x="258.5" y="0.3" class="st1" width="129.3" height="23.3"/>
			<rect x="387.8" y="23.5" class="st1" width="129.3" height="23.3"/>
		</g>
	</g>
	<g>
		<g>
			<rect x="517" y="46.8" class="st1" width="129.3" height="23.3"/>
			<rect x="646.3" y="70.1" class="st1" width="129.3" height="23.3"/>
		</g>
		<g>
			<rect x="775.5" y="46.8" class="st1" width="129.3" height="23.3"/>
			<rect x="904.8" y="70.1" class="st1" width="129.3" height="23.3"/>
		</g>
		<g>
			<rect x="517" y="0.3" class="st1" width="129.3" height="23.3"/>
			<rect x="646.3" y="23.5" class="st1" width="129.3" height="23.3"/>
		</g>
		<g>
			<rect x="775.5" y="0.3" class="st1" width="129.3" height="23.3"/>
			<rect x="904.8" y="23.5" class="st1" width="129.3" height="23.3"/>
		</g>
	</g>
	<g>
		<path class="st2" d="M44.6,21.5h40.2l1.9,24.1L82.9,46l-1.5-20.3H58.5V44h12.2v-9.1h4v22.2h-4v-8.9H58.5v18.5h9.9v4.2H44.6v-4.2
			h9.9v-41h-9.9C44.6,25.7,44.6,21.5,44.6,21.5z"/>
		<path class="st2" d="M105,33.9c2.9,0,5.7,1.5,5.4,7.7v2.3c5.8-6.7,9.1-10,15.2-10c6.9,0,11.4,4.4,11.4,12.4c0,4.4-2.7,6.8-5.5,6.8
			c-2.2,0-4.3-1.8-4.3-4.4c0-2.5,2.5-4.8,5.7-3.6c-0.2-3.9-2.4-7.2-7.2-7.1c-3.7,0.1-8.1,2.9-15.2,11.9v16.8h15.5V71H100v-4.2h6.5
			V41c0-2.3-0.5-2.9-1.4-2.9s-1.5,1-3.9,4.5l-3.4-2l0.9-1.4C100.9,35.5,102.4,33.9,105,33.9z"/>
		<path class="st2" d="M166.5,33.9c8.7,0,16.9,6.6,16.9,17.2v1.7h-30.7c0,8.2,6.1,15,13.8,15c6.7,0,12.4-3.3,15.7-10.4l3.4,2.1
			c-5,9.4-12,12.4-19.1,12.4c-9.4,0-17.7-8.4-17.7-19.7C148.7,39.3,156.8,33.9,166.5,33.9z M166.5,38c-8.1,0-12.8,4.2-13.6,10.5
			h26.2C178.6,43.1,173.2,38,166.5,38z"/>
		<path class="st2" d="M214.7,33.9c8.7,0,16.9,6.6,16.9,17.2v1.7h-30.7c0,8.2,6.1,15,13.8,15c6.7,0,12.4-3.3,15.7-10.4l3.4,2.1
			c-5,9.4-12,12.4-19.1,12.4c-9.4,0-17.7-8.4-17.7-19.7C197,39.3,205,33.9,214.7,33.9z M214.7,38c-8.1,0-12.8,4.2-13.6,10.5h26.2
			C226.9,43.1,221.4,38,214.7,38z"/>
		<path class="st2" d="M274.2,24.4l1-4c3.4,0.6,5.9,1,8.8,1c3.6,0,9.2-0.2,12.8-0.2c11.6,0,22.1,9.6,22.1,25.2s-10.6,24.8-22.1,24.6
			l-12.6-0.2h-8.1v-4.2h6.7V25.6C280.1,25.5,277,25.1,274.2,24.4z M296.6,66.9c9.4,0,18-7.2,18.1-20.4c0.1-13.2-8.7-21-18.1-21
			c-4.1,0-9.9,0.2-9.9,0.2v41C286.7,66.7,292.7,66.9,296.6,66.9z"/>
		<path class="st2" d="M331.6,52.9c0-10.6,8.6-19,18.9-19c10.4,0,18.9,8.6,18.9,19s-8.6,19-18.9,19
			C340.1,71.9,331.6,63.5,331.6,52.9z M365.5,52.9c0.1-8.2-6.8-14.9-15-14.9s-15,6.7-15,14.9s6.7,14.9,15,14.9
			C358.9,67.8,365.4,61.1,365.5,52.9z"/>
		<path class="st2" d="M417.3,53.5l3.8,0.4c-0.6,11.5-10.1,18-19.8,18c-12.6,0-19.5-9.1-19.5-19.4c0-11.3,6.9-18.7,17.7-18.7
			c7.4,0,15.1,4.2,15.1,11.5c0,3.8-2.2,6.1-4.9,6.1c-2.6,0-4.6-1.9-4.6-4.6c0-2.5,3-4.4,5.4-3.1c-1-3.3-4.8-5.6-11-5.6
			c-8.6,0-13.8,5.5-13.8,14.5c0,8.6,6.3,15.2,15.6,15.2C409.8,67.8,416.7,61.9,417.3,53.5z"/>
		<path class="st2" d="M472.7,70.8l-10.5,0.1v-9.1c-5.5,6.5-8.5,10.3-13.4,10.3c-4.1,0-10.4-2.1-10.4-10.7V41c0-2.3-0.5-2.9-1.4-2.9
			s-1.5,1-3.9,4.5l-3.4-2l0.9-1.4c2.4-3.7,4.2-5.3,6.7-5.3c2.9,0,5.4,1.5,5.2,7.7v19.9c0,5.2,3.6,6.5,6.4,6.5
			c4.4,0,6.4-4.2,13.4-11.8V41c0-2.3-0.5-2.9-1.4-2.9c-0.9,0-1.5,1-3.9,4.5l-3.4-2l0.9-1.4c2.4-3.7,4.2-5.3,6.7-5.3
			c2.9,0,5.4,1.5,5.2,7.7v25.2l6.5-0.1v4.1C472.9,70.8,472.7,70.8,472.7,70.8z"/>
		<path class="st2" d="M486.8,33.9c2.5,0,4.8,1.2,5.1,5.5c3.9-4.6,6.1-5.5,8.6-5.5c3.1,0,5.9,1.5,6.5,6.5c4.5-5.3,6.7-6.5,9.4-6.5
			c3.6,0,6.6,1.9,6.6,8.8v24.1h3.3v4.2h-12.9v-4.2h5.6V43.1c0-4-1.2-4.8-3.3-4.8c-2.2,0-3.9,1.8-8.6,8V71h-4V43.1
			c0-4-1.2-4.8-3.3-4.8c-2,0-3.7,1.5-7.8,6.9v21.6h5.6v4.2h-15.2v-4.2h5.6V41c0-2.3-0.5-2.9-1.4-2.9s-1.5,1-3.9,4.5l-3.4-2l0.9-1.4
			C482.5,35.5,484.3,33.9,486.8,33.9z"/>
		<path class="st2" d="M551.3,33.9c8.7,0,16.9,6.6,16.9,17.2v1.7h-30.7c0,8.2,6.1,15,13.8,15c6.7,0,12.4-3.3,15.7-10.4l3.4,2.1
			c-5,9.4-12,12.4-19.1,12.4c-9.4,0-17.7-8.4-17.7-19.7C533.6,39.3,541.6,33.9,551.3,33.9z M551.3,38c-8.1,0-12.8,4.2-13.6,10.5H564
			C563.5,43.1,558,38,551.3,38z"/>
		<path class="st2" d="M587.9,33.9c2.9,0,5.7,1.5,5.4,7.7V44c5.5-6.5,8.5-10.3,13.4-10.3c4.1,0,10.4,2.1,10.4,10.7v22.3h6.1v4.2
			h-16.1v-4.2h6.2V44.4c0-5.2-3.6-6.5-6.4-6.5c-4.4,0-6.4,4.2-13.4,11.8v16.9h6.2v4.2h-16.2v-4.2h6.2V41c0-2.3-0.5-2.9-1.4-2.9
			c-0.9,0-1.5,1-3.9,4.5l-3.4-2l0.9-1.4C583.8,35.5,585.4,33.9,587.9,33.9z"/>
		<path class="st2" d="M640.3,34.9V21.5h4v13.4h22.4v4.2h-22.4v22.3c0,6.4,3.8,6.5,6.4,6.5c4.6,0,9.4-4,18.2-9.4l2.2,3.3
			c-10.2,6.5-15,10.3-20.4,10.3c-3.9,0-10.4-1.4-10.4-9.6V39.1h-10.4v-4.2H640.3z"/>
		<path class="st2" d="M705.1,21.5h40.2l1.9,24.1l-3.8,0.4l-1.5-20.3h-22.9L718.8,44H731v-9.1h4v22.2h-4v-8.9h-12.2v18.5h9.9v4.2
			H705v-4.2h9.9v-41H705L705.1,21.5L705.1,21.5z"/>
		<path class="st2" d="M754.1,52.9c0-10.6,8.6-19,18.9-19c10.4,0,18.9,8.6,18.9,19s-8.6,19-18.9,19
			C762.6,71.9,754.1,63.5,754.1,52.9z M788,52.9c0.1-8.2-6.8-14.9-15-14.9c-8.2,0-15,6.7-15,14.9s6.7,14.9,15,14.9
			C781.3,67.8,787.9,61.1,788,52.9z"/>
		<path class="st2" d="M808.2,33.9c2.9,0,5.7,1.5,5.4,7.7v2.3c5.8-6.7,9.1-10,15.2-10c6.9,0,11.4,4.4,11.4,12.4
			c0,4.4-2.7,6.8-5.5,6.8c-2.2,0-4.3-1.8-4.3-4.4c0-2.5,2.5-4.8,5.7-3.6c-0.2-3.9-2.4-7.2-7.2-7.1c-3.7,0.1-8.1,2.9-15.2,11.9v16.8
			h15.5V71h-25.9v-4.2h6.5V41c0-2.3-0.5-2.9-1.4-2.9c-0.9,0-1.5,1-3.9,4.5l-3.4-2l0.9-1.4C804.1,35.5,805.6,33.9,808.2,33.9z"/>
		<path class="st2" d="M854.4,33.9c2.5,0,4.8,1.2,5.1,5.5c3.9-4.6,6.1-5.5,8.6-5.5c3.1,0,5.9,1.5,6.5,6.5c4.5-5.3,6.7-6.5,9.4-6.5
			c3.6,0,6.6,1.9,6.6,8.8v24.1h3.3v4.2h-12.9v-4.2h5.6V43.1c0-4-1.2-4.8-3.3-4.8c-2.2,0-3.9,1.8-8.6,8V71h-4V43.1
			c0-4-1.2-4.8-3.3-4.8c-2,0-3.7,1.5-7.8,6.9v21.6h5.6v4.2H850v-4.2h5.6V41c0-2.3-0.5-2.9-1.4-2.9s-1.5,1-3.9,4.5l-3.4-2l0.9-1.4
			C850.1,35.5,851.9,33.9,854.4,33.9z"/>
		<path class="st2" d="M936.6,71.9c-2.9,0-5.5-2.2-5.4-7.5c-5.9,4.9-10.5,7.5-17.1,7.5c-6.2,0-11.4-3-11.5-10.7
			c-0.1-8.2,8.2-11.4,16.7-11.6c9.6-0.2,11.9-1.2,11.9-4.9c0-5.6-7.9-6.6-11.8-6.6c-3.7,0-8.3,0.7-9.5,2.8c1.4-0.7,3.8,1,3.8,3.1
			c0,2.4-1.5,4.1-4.2,4.1c-2.6,0-4.2-2.1-4.2-5.2c0-6.7,8.6-9.1,14-9.1c6.4,0,15.7,2.6,15.7,10.8v19.8c0,2.3,0.5,3.3,1.4,3.3
			c1.4,0,2.1-1.5,4.6-7.6l3.5,1.8C941.7,70,939.9,71.9,936.6,71.9z M919.4,53.8c-7,0.1-12.7,2.3-12.7,7.3c0,4.6,2.8,6.7,7.6,6.7
			c6.2,0,10.6-2.7,17-8.6v-8.1C928.9,52.7,926.4,53.7,919.4,53.8z"/>
		<path class="st2" d="M958.6,34.9V21.5h4v13.4H985v4.2h-22.4v22.3c0,6.4,3.8,6.5,6.4,6.5c4.6,0,9.4-4,18.2-9.4l2.2,3.3
			C979.3,68.3,974.5,72,969,72c-3.9,0-10.4-1.4-10.4-9.6V39.1h-10.4v-4.2H958.6z"/>
	</g>
</g>
</svg>
