<?xml version="1.0" encoding="utf-8"?>
<!-- Generator: Adobe Illustrator 27.0.0, SVG Export Plug-In . SVG Version: 6.00 Build 0)  -->
<svg version="1.1" id="_레이어_2" xmlns="http://www.w3.org/2000/svg" xmlns:xlink="http://www.w3.org/1999/xlink" x="0px"
	 y="0px" viewBox="0 0 920.8 146.5" style="enable-background:new 0 0 920.8 146.5;" xml:space="preserve">
<style type="text/css">
	.st0{fill:#B5B5B6;}
	.st1{fill:#231815;}
	.st2{enable-background:new    ;}
	.st3{fill:#FFFFFF;}
</style>
<g id="_레이어_1-2">
	<rect class="st0" width="920.8" height="146.8"/>
	<g>
		<g>
			<rect y="73.4" class="st1" width="57.5" height="18.3"/>
			<rect x="57.5" y="91.7" class="st1" width="57.5" height="18.3"/>
		</g>
		<g>
			<rect x="115.1" y="73.4" class="st1" width="57.5" height="18.3"/>
			<rect x="172.7" y="91.7" class="st1" width="57.5" height="18.3"/>
		</g>
		<g>
			<rect y="36.6" class="st1" width="57.5" height="18.3"/>
			<rect x="57.5" y="55.1" class="st1" width="57.5" height="18.3"/>
		</g>
		<g>
			<rect x="115.1" y="36.6" class="st1" width="57.5" height="18.3"/>
			<rect x="172.7" y="55.1" class="st1" width="57.5" height="18.3"/>
		</g>
		<g>
			<rect class="st1" width="57.5" height="18.3"/>
			<rect x="57.5" y="18.3" class="st1" width="57.5" height="18.3"/>
		</g>
		<g>
			<rect x="115.1" class="st1" width="57.5" height="18.3"/>
			<rect x="172.7" y="18.3" class="st1" width="57.5" height="18.3"/>
		</g>
		<g>
			<rect y="110" class="st1" width="57.5" height="18.3"/>
			<rect x="57.5" y="128.5" class="st1" width="57.5" height="18.3"/>
		</g>
		<g>
			<rect x="115.1" y="110" class="st1" width="57.5" height="18.3"/>
			<rect x="172.7" y="128.5" class="st1" width="57.5" height="18.3"/>
		</g>
		<g>
			<rect x="230.2" y="73.4" class="st1" width="57.5" height="18.3"/>
			<rect x="287.8" y="91.7" class="st1" width="57.5" height="18.3"/>
		</g>
		<g>
			<rect x="345.3" y="73.4" class="st1" width="57.5" height="18.3"/>
			<rect x="402.9" y="91.7" class="st1" width="57.5" height="18.3"/>
		</g>
		<g>
			<rect x="230.2" y="36.6" class="st1" width="57.5" height="18.3"/>
			<rect x="287.8" y="55.1" class="st1" width="57.5" height="18.3"/>
		</g>
		<g>
			<rect x="345.3" y="36.6" class="st1" width="57.5" height="18.3"/>
			<rect x="402.9" y="55.1" class="st1" width="57.5" height="18.3"/>
		</g>
		<g>
			<rect x="230.2" class="st1" width="57.5" height="18.3"/>
			<rect x="287.8" y="18.3" class="st1" width="57.5" height="18.3"/>
		</g>
		<g>
			<rect x="345.3" class="st1" width="57.5" height="18.3"/>
			<rect x="402.9" y="18.3" class="st1" width="57.5" height="18.3"/>
		</g>
		<g>
			<rect x="230.2" y="110" class="st1" width="57.5" height="18.3"/>
			<rect x="287.8" y="128.5" class="st1" width="57.5" height="18.3"/>
		</g>
		<g>
			<rect x="345.3" y="110" class="st1" width="57.5" height="18.3"/>
			<rect x="402.9" y="128.5" class="st1" width="57.5" height="18.3"/>
		</g>
		<g>
			<rect x="460.4" y="73.4" class="st1" width="57.5" height="18.3"/>
			<rect x="518" y="91.7" class="st1" width="57.5" height="18.3"/>
		</g>
		<g>
			<rect x="575.5" y="73.4" class="st1" width="57.5" height="18.3"/>
			<rect x="633.1" y="91.7" class="st1" width="57.6" height="18.3"/>
		</g>
		<g>
			<rect x="460.4" y="36.6" class="st1" width="57.5" height="18.3"/>
			<rect x="518" y="55.1" class="st1" width="57.5" height="18.3"/>
		</g>
		<g>
			<rect x="575.5" y="36.6" class="st1" width="57.5" height="18.3"/>
			<rect x="633.1" y="55.1" class="st1" width="57.6" height="18.3"/>
		</g>
		<g>
			<rect x="460.4" class="st1" width="57.5" height="18.3"/>
			<rect x="518" y="18.3" class="st1" width="57.5" height="18.3"/>
		</g>
		<g>
			<rect x="575.5" class="st1" width="57.5" height="18.3"/>
			<rect x="633.1" y="18.3" class="st1" width="57.6" height="18.3"/>
		</g>
		<g>
			<rect x="460.4" y="110" class="st1" width="57.5" height="18.3"/>
			<rect x="518" y="128.5" class="st1" width="57.5" height="18.3"/>
		</g>
		<g>
			<rect x="575.5" y="110" class="st1" width="57.5" height="18.3"/>
			<rect x="633.1" y="128.5" class="st1" width="57.6" height="18.3"/>
		</g>
		<g>
			<rect x="690.6" y="73.4" class="st1" width="57.6" height="18.3"/>
			<rect x="748.2" y="91.7" class="st1" width="57.6" height="18.3"/>
		</g>
		<g>
			<rect x="805.7" y="73.4" class="st1" width="57.5" height="18.3"/>
			<rect x="863.3" y="91.7" class="st1" width="57.5" height="18.3"/>
		</g>
		<g>
			<rect x="690.6" y="36.6" class="st1" width="57.6" height="18.3"/>
			<rect x="748.2" y="55.1" class="st1" width="57.6" height="18.3"/>
		</g>
		<g>
			<rect x="805.7" y="36.6" class="st1" width="57.5" height="18.3"/>
			<rect x="863.3" y="55.1" class="st1" width="57.5" height="18.3"/>
		</g>
		<g>
			<rect x="690.6" class="st1" width="57.6" height="18.3"/>
			<rect x="748.2" y="18.3" class="st1" width="57.6" height="18.3"/>
		</g>
		<g>
			<rect x="805.7" class="st1" width="57.5" height="18.3"/>
			<rect x="863.3" y="18.3" class="st1" width="57.5" height="18.3"/>
		</g>
		<g>
			<rect x="690.6" y="110" class="st1" width="57.6" height="18.3"/>
			<rect x="748.2" y="128.5" class="st1" width="57.6" height="18.3"/>
		</g>
		<g>
			<rect x="805.7" y="110" class="st1" width="57.5" height="18.3"/>
			<rect x="863.3" y="128.5" class="st1" width="57.5" height="18.3"/>
		</g>
	</g>
	<g class="st2">
		<path class="st3" d="M135.1,87.6c-1.1,0.4-3.1,0.4-6.2,0.2c-4.3-0.4-14.3-0.5-29.7-0.4c-14.3,0-24.2,0.1-29.9,0.2l-1.7,0.1
			c-3.5,0.4-5.7,0.4-6.6,0.1c-1.2-0.4-2.2-1.6-2.9-3.6c-1-2.8-0.6-4.4,1-4.9c1-0.4,2.8-0.2,5.4,0.2l2.4,0.4
			c5.4,0.5,16.1,0.6,31.9,0.6c15.5,0,25.5-0.2,30.2-0.6c3.8-0.4,6.3-0.4,7.5,0c2,0.6,2.6,2,1.8,4.3C137.4,86,136.4,87.1,135.1,87.6z
			 M90.9,39.4c-2.6,0.1-5.4,0.1-8.1,0.2l-1.1,0.1c-3.7,0.4-6.1,0.4-7.1,0.1c-1.3-0.5-2.3-1.7-3-3.8c-0.8-2.4-0.6-3.8,0.8-4.3
			c0.8-0.4,2.6-0.2,5.2,0.2l2.6,0.4c4.2,0.5,9.9,0.6,16.9,0.6c6.6,0,12-0.2,16.2-0.6c4.6-0.4,7.5-0.4,9,0c2,0.5,2.8,1.7,1.9,3.6
			c-0.7,1.8-1.7,2.9-2.8,3.2c-1.1,0.5-3.2,0.6-6.3,0.6c-0.1,0.7-0.1,1.3-0.2,1.9c0,0.4-0.1,0.8-0.2,1.4l-0.4,2.4l-0.1,12.3
			c4.2-0.2,7.1-0.2,8.4,0.2c1.9,0.5,2.5,1.7,1.8,3.6c-0.7,1.9-1.8,3-3.2,3.5c-1.2,0.4-3.8,0.4-7.7,0.2c-3.6-0.2-8.6-0.4-15.2-0.2
			c-5.7,0-10.3,0.1-13.8,0.2l-1.8,0.1c-4.3,0.4-6.9,0.4-7.9,0c-1.3-0.5-2.4-1.8-3.1-4c-0.8-2.3-0.6-3.7,0.8-4.2
			c0.8-0.2,2.5-0.2,4.9,0.2l2.8,0.4h0.6c1,0,1.6,0,1.8,0.1c0.4,0,0.6,0.1,0.8,0.2l-0.2-4.9c-0.1-1.4-0.4-2.5-0.6-3.2
			c-0.4-1-1-1.7-1.7-1.9c-2.4-0.8-3.5-2.2-3.2-4c0.4-1.7,1.8-2.5,4.6-2.5c2.4,0,4.7,0.6,6.7,1.9c2,1.2,3.1,2.6,3.1,4.1
			c0,0.5-0.1,0.8-0.2,1.3c0,0.2-0.1,0.6-0.2,1.1l-0.4,2.4l-0.2,5.9c3,0.1,5.9,0.1,8.6,0.1s4.9,0,6.6-0.1c-0.1-3.1-0.1-5.4-0.1-6.9
			c0-2.9,0-4.7-0.1-5.4l-0.1-0.6c-0.2-1.7-0.4-2.8-0.6-3.5c-0.4-1.2-0.8-1.9-1.6-2.2l-1.3-0.6L90.9,39.4L90.9,39.4z"/>
		<path class="st3" d="M192.2,69.6c-1.1,0.4-3.1,0.4-6.1,0.2c-3-0.1-6.9-0.2-11.7-0.2c-5.4-0.1-9.5,0-12.2,0.1l-2.4,0.4
			c-1.1,0.2-1.8,0.4-2.4,0.2c-0.7-0.2-1.4-1-2.4-2.2c-0.8-1.2-1.3-2.2-1.4-3.1c-0.1-0.6,0.1-1.4,0.4-2.6l0.2-0.6
			c0.1-0.8,0.2-1.9,0.2-3.2c0.1-1.2,0.1-2.2,0-2.8c-0.2-1.4-0.4-2.6-0.6-3.2c-0.4-1.1-1-1.7-1.7-1.9c-2.5-0.8-3.6-2-3.2-3.7
			c0.4-1.7,1.8-2.5,4.4-2.5c1.4,0,2.9,0.2,4.2,0.6c1.1,0.4,2.2,1,3.4,1.7c0.2,0.1,0.6,0.2,1.1,0.4c0.4,0.1,0.8,0.2,1.4,0.2
			c1.1,0.1,4.2,0,9.5-0.2c4.8-0.1,8.5-0.2,11.1-0.4c0.5,0,0.8-0.1,1-0.2c0.2-0.1,0.4-0.4,0.5-0.7l0.1-6.6c-0.1-0.4-0.1-0.6-0.2-0.7
			c-0.2-0.1-0.6-0.2-1.1-0.2c-4-0.1-7.7-0.1-11.1,0c-3.5,0.1-7.3,0.4-11.5,0.6l-1.6,0.1c-2.4,0.4-4.1,0.4-4.8,0
			c-1.1-0.4-1.9-1.6-2.6-3.5c-1-2.6-0.6-4.2,0.8-4.7c0.8-0.4,2.4-0.2,4.9,0.2l2,0.4c4.6,0.5,9.6,0.6,15.2,0.6c3.4,0,6.6-0.1,9.8-0.2
			l1.8-0.2c0.8-0.1,1.6-0.1,2-0.1c0.8,0.1,1.7,0.5,2.4,1.1c1.2,1,2,1.9,2.3,2.8c0.1,0.5,0,1.3-0.2,2.4l-0.4,1.8
			c-0.1,1.1-0.2,2.4-0.4,4.1v3.4c0.6,0.4,1.1,0.8,1.2,1.2c0.2,0.6,0,1.4-0.5,2.6c-0.6,1.8-1.6,2.9-2.9,3.2c-1,0.4-3,0.4-6.1,0.2
			c-2.8-0.2-6.7-0.4-12-0.4h-9c-0.4,0-0.6,0.1-0.8,0.2c-0.1,0.1-0.2,0.4-0.2,0.7l-0.2,7.1c0,0.5,0.1,0.7,0.2,1
			c0.2,0.2,0.7,0.4,1.4,0.5c1.7,0.1,5,0.1,10.4-0.1c4.8-0.1,8.9-0.2,12.2-0.5l0.6-0.1c3.7-0.2,6.1-0.2,7.1,0.2
			c1.7,0.5,2.2,1.8,1.4,4.1C194.5,68.2,193.5,69.2,192.2,69.6z M223.8,34.9c0,0.2-0.1,0.6-0.2,1.1c-0.2,0.5-0.4,0.8-0.4,1.1
			c-0.1,0.5-0.1,1.1-0.1,1.7c-0.4,12-0.5,24.1-0.5,36.2c0,11.7,0.2,23.4,0.6,34.7c0.2,3.2,0.1,5.4-0.4,6.6c-0.6,1.4-1.9,2.4-4,3
			c-2.4,0.5-3.8,0-4.6-1.4c-0.5-1-0.6-2.9-0.5-6l0.1-2.2c0.6-11.5,1-23.1,1.1-34.7c0.1-12.1,0-23.8-0.2-35.3
			c-0.1-1.3-0.2-2.5-0.6-3.2c-0.4-1.1-1-1.7-1.8-1.9c-2.4-1-3.5-2.3-3.2-4.1c0.4-1.8,1.8-2.6,4.6-2.6c2.4,0,4.7,0.6,6.8,1.9
			c2.2,1.3,3.2,2.8,3.2,4.3C224.1,34.1,223.9,34.5,223.8,34.9z"/>
		<path class="st3" d="M344.1,87c-1,0.2-2.8,0.2-5.4,0l-2.4-0.2c-8.4-0.2-16.9-0.4-25.5-0.4c-5.4,0-14,0.1-25.9,0.2l-6.8,0.1
			l-1.4,0.1c-3.5,0.4-5.7,0.4-6.7,0.1c-1.2-0.4-2.2-1.4-2.8-3.2c-1-2.5-0.7-4,1-4.6c1-0.2,2.8-0.1,5.5,0.2l2.2,0.4
			c1.3,0.1,4.4,0.1,9.2,0.2c2.8,0.1,6.9,0.1,12.7,0.2l6.1,0.1l-0.1-2.4c-0.1-1.3-0.4-2.4-0.6-3.1c-0.4-1-1-1.6-1.7-1.8
			c-2.4-0.8-3.5-2-3.2-3.6c0.4-1.7,1.8-2.4,4.4-2.4c2.4,0,4.7,0.6,6.7,1.7c2.2,1.2,3.2,2.5,3.2,4c0,0.4-0.1,0.7-0.2,1.1
			c0,0.2-0.1,0.6-0.2,1c-0.1,0.5-0.2,0.8-0.2,1.1c-0.1,0.5-0.1,1-0.1,1.4l-0.1,3.1l4-0.1c5.4-0.1,9.3-0.1,11.9-0.2
			c4.6-0.1,7.4-0.1,8.7-0.2l3.1-0.2c3.5-0.4,5.7-0.4,6.8-0.1c1.8,0.6,2.2,2,1.1,4.3C346.6,85.5,345.5,86.6,344.1,87z M330.4,65.7
			c-1,0.4-3,0.4-6.1,0.2c-5.9-0.1-11.1-0.2-15.8-0.2c-5.6-0.1-10.9,0-16.1,0.1l-2.4,0.4c-1.1,0.2-1.9,0.2-2.4,0.1
			c-0.7-0.2-1.4-1-2.4-2.2c-0.7-1-1.2-1.8-1.3-2.5c-0.1-0.5,0-1.1,0.1-1.9l0.2-1.6c0.2-2.8,0.4-5.4,0.5-7.9c0.1-3.5,0.1-6.1-0.1-8
			c-0.2-1.4-0.4-2.6-0.6-3.4c-0.4-1-1-1.7-1.7-1.9c-2.5-0.8-3.6-2-3.2-3.7s1.8-2.5,4.4-2.5c1.4,0,2.9,0.2,4.2,0.6
			c1.1,0.4,2.3,1,3.4,1.8c0.2,0.1,0.6,0.2,1.1,0.4c0.4,0.1,0.8,0.2,1.3,0.2c3.6,0,8.3-0.1,14.3-0.2c5.9-0.1,10.8-0.2,14.6-0.4
			c3.8-0.4,6.3-0.4,7.5,0c1.8,0.5,2.4,1.8,1.6,4c-0.7,1.8-1.7,2.8-3,3.2c-1,0.4-3.1,0.4-6.2,0.2c-5.3-0.2-10.5-0.4-16.1-0.4h-12.3
			c-0.5,0-0.7,0.1-1,0.2c-0.2,0.2-0.4,0.5-0.4,1.1c-0.1,2-0.2,5-0.2,8.7v8.1c0,0.5,0.1,0.7,0.5,1s0.8,0.4,1.4,0.4
			c4.2,0.1,9.5,0.1,15.7-0.1c5.2-0.1,9.9-0.4,14.4-0.6l0.6-0.1c3.7-0.2,6.1-0.2,7.1,0.2c1.7,0.5,2.2,1.8,1.4,4.1
			C332.8,64.3,331.9,65.3,330.4,65.7z"/>
		<path class="st3" d="M435.5,82.4c-1.1,0.4-3.2,0.4-6.3,0.2l-12.9-0.4c0,3.4,0.1,6.3,0.2,9c0.1,3.5,0.2,6.2,0.5,8.3
			c0.1,2.5-0.1,4.2-0.5,5.2c-0.5,1.2-1.8,2.2-3.8,2.6c-2.6,0.5-4.2,0-4.8-1.4c-0.4-1-0.5-2.8-0.2-5.5l0.2-1c0.2-2.2,0.5-4.9,0.6-8.3
			c0.2-2.8,0.4-5.7,0.4-8.7c-2-0.1-5.7-0.2-11.4-0.2c-4.9,0.1-8.6,0.1-11.1,0.2l0.1,4.9c0.1,2.9,0.1,5,0.2,6.5
			c0.1,2.4,0.2,4.3,0.4,5.7c0.1,2.4,0,4.1-0.4,5c-0.6,1.3-1.8,2.2-3.8,2.8c-2.5,0.5-4.1,0.1-4.8-1.2c-0.4-0.8-0.5-2.5-0.2-5l0.2-1.6
			c0.2-1.8,0.4-4.1,0.5-7.1c0.1-1.8,0.2-4.4,0.4-7.9l0.1-1.9l-9.6,0.2l-1.7,0.1c-3.5,0.4-5.6,0.4-6.6,0.1c-1.2-0.4-2.2-1.6-2.8-3.6
			c-1-2.5-0.7-4,0.6-4.6c0.8-0.4,2.5-0.4,5,0l2.9,0.4c9.3,0.5,19.9,0.6,31.7,0.6c11,0,21.3-0.2,30.7-0.6c4-0.2,6.6-0.2,7.7,0.1
			c1.9,0.5,2.5,1.8,1.6,4.1C437.8,81,436.8,81.9,435.5,82.4z M414.4,39.5c0-0.6-0.2-1-0.6-1.2c-0.4-0.2-1-0.2-1.6-0.2
			c-4.7,0-9.3,0-14.1,0.1c-6.9,0.1-12.2,0.4-15.8,0.6l-1.6,0.1c-2.4,0.4-4.1,0.4-4.8,0c-1.1-0.4-1.9-1.6-2.5-3.5
			c-1-2.6-0.7-4.2,0.7-4.7c0.8-0.4,2.5-0.2,4.9,0.2l2,0.4c4.8,0.2,11.1,0.4,19.2,0.5c7.1,0,11.7,0,14-0.1l1.8-0.2
			c0.8-0.1,1.6-0.1,2-0.1c0.8,0.1,1.7,0.5,2.4,1.1c1.2,1,1.9,1.8,2.2,2.5c0.1,0.5,0,1.2-0.2,2.3l-0.4,1.9c-0.1,4.1-0.1,7.7-0.1,10.9
			c0,4,0.1,6.9,0.5,9c0.4,2.2,0.2,3.7-0.2,4.7c-0.6,1.2-1.9,2-4,2.8c-2.6,0.7-4.3,0.2-4.9-1.4c-0.4-1-0.4-2.9,0-5.7l0.1-0.2l0.1-1.1
			c0.1-1,0.2-1.7,0.2-2.3c0.1-0.8,0.1-1.9,0.2-3.1c-4.9,0-9.8,0-14.7,0.1c-6.7,0.1-11.6,0.2-14.7,0.4l-1.2,0.1
			c-2.6,0.5-4.4,0.5-5.2,0.2c-1.1-0.4-2-1.6-2.6-3.5c-1-2.8-0.7-4.4,0.8-4.9c1-0.2,2.6-0.1,5.2,0.5l1.7,0.4c3.5,0.2,9,0.4,16.4,0.5
			c6.2,0,11,0,14.6-0.1L414.4,39.5z"/>
		<path class="st3" d="M493.2,61.2c0.2,1,0.2,1.7,0.2,2c-0.1,0.7-0.6,1.6-1.3,2.5c-1,1.2-1.8,1.9-2.5,2.2c-0.5,0.1-1.3,0.1-2.4-0.2
			l-2.4-0.2l-0.6-0.1c-4.6-0.1-8.1-0.1-10.9-0.1c-4.7,0-8.3,0.1-10.8,0.2l-2.4,0.2c-1.1,0.2-1.8,0.4-2.4,0.2c-0.7-0.2-1.4-1-2.4-2.2
			c-0.7-1-1.2-1.8-1.3-2.5c-0.1-0.5,0-1.1,0.1-1.9l0.2-1.6c0.2-2.2,0.4-4.9,0.5-8.5c0.1-4,0.1-7.1-0.1-9.3c-0.2-1.4-0.4-2.6-0.6-3.2
			c-0.5-1-1.1-1.7-1.8-1.9c-2.4-0.8-3.5-2-3.2-3.7c0.4-1.7,1.8-2.5,4.4-2.5c1.3,0,2.6,0.2,4,0.6c1,0.4,2.2,0.8,3.4,1.4
			c0.4,0.1,0.7,0.1,1.3,0.2c0.5,0.1,1.1,0.1,1.9,0.2c2.5,0.1,6.3,0.1,11.5,0.1c3.2-0.1,6.5-0.1,9.7-0.2l1.7-0.2
			c1-0.2,1.7-0.2,2.2-0.2c0.7,0.1,1.6,0.5,2.4,1.1c1.2,1,1.9,1.9,2.2,2.6c0.1,0.5,0,1.3-0.2,2.4l-0.4,1.9c-0.4,1.9-0.5,5-0.5,9.3
			c0.1,4.2,0.2,7.5,0.5,10.1L493.2,61.2z M512.5,117.6c-1,0.4-3,0.4-6.1,0.1c-3.8-0.1-9-0.2-15.6-0.2c-8.3,0-13.7,0.1-16.3,0.2
			l-2.4,0.2c-1.1,0.2-1.9,0.4-2.4,0.2c-0.7-0.2-1.6-1-2.5-2.2c-0.7-1-1.2-1.8-1.3-2.5c-0.1-0.5,0-1.1,0.1-1.9l0.2-1.6
			c0.2-2.5,0.4-5,0.5-7.8c0.1-3.7,0.1-7.1-0.1-10.1c-0.2-1.4-0.4-2.6-0.6-3.4c-0.4-1-1-1.7-1.7-1.9c-2.5-0.8-3.6-2-3.2-3.7
			c0.4-1.7,1.8-2.5,4.4-2.5c2.4,0,4.6,0.6,6.6,1.8c2.2,1.2,3.2,2.6,3.2,4.1c0,0.4-0.1,0.7-0.2,1.1c0,0.2-0.1,0.6-0.2,1.1
			c-0.2,0.5-0.4,0.8-0.4,1.1c-0.1,0.5-0.1,1.1-0.1,1.6c-0.1,3.2-0.2,6.7-0.2,10.4v7.4c0,0.6,0.1,1.1,0.4,1.4
			c0.4,0.4,0.8,0.6,1.7,0.6c1.4,0.1,6.2,0,14-0.2c7.8-0.1,13.2-0.2,16.1-0.5l1-0.1c3.6-0.2,5.9-0.2,6.8,0.1c1.7,0.5,2.2,1.8,1.4,4.1
			C514.9,116.3,513.9,117.3,512.5,117.6z M485,39.4c-0.4-0.2-1-0.2-1.6-0.2c-3-0.1-6.3-0.2-10.2-0.2c-4.9-0.1-7.8,0-8.9,0.1
			c-0.7,0-1.2,0.1-1.4,0.5c-0.2,0.4-0.4,1-0.4,1.9l-0.2,17.6c0,0.7,0.1,1.2,0.2,1.4c0.2,0.4,0.6,0.5,1.1,0.6
			c1.3,0.1,4.6,0.1,9.7,0.1c4.7-0.1,8-0.1,10.3-0.1c0.7,0,1.2-0.1,1.4-0.4c0.2-0.2,0.4-0.7,0.5-1.4V40.5
			C485.4,40,485.2,39.7,485,39.4z M524,34.9c0,0.2-0.1,0.6-0.2,1.1c-0.1,0.5-0.2,0.8-0.2,1.1c-0.1,0.5-0.2,1-0.2,1.4
			c-0.2,5.3-0.4,11.4-0.2,18.4c0.1,6.9,0.2,11.7,0.5,14.4c0.4,3.1,0.4,5.2-0.2,6.3c-0.5,1.3-1.8,2.4-3.7,3c-2.5,0.6-4.1,0.1-4.6-1.4
			c-0.4-1-0.4-3.4-0.1-6.9l0.1-1c0.2-1.6,0.4-4,0.5-7.1c0.2-3.2,0.4-6.8,0.5-10.8c-1.2,0-3.1,0-5.4,0.1c-2.5,0.1-4.2,0.1-5,0.2
			l-1.4,0.1c-2.8,0.4-4.7,0.4-5.4,0.1c-1.1-0.4-2-1.6-2.6-3.6c-0.8-2.6-0.6-4.3,0.7-4.8c0.8-0.4,2.5-0.4,4.9,0.2l2.5,0.4L516,47
			c0.1-1.2,0.1-2.6,0-4.1c-0.1-1-0.1-2.2-0.2-3.6c-0.1-1.3-0.2-2.5-0.6-3.2c-0.4-1.1-1-1.8-1.7-2c-2.2-0.8-3.1-2-2.9-3.8
			c0.4-1.7,1.7-2.5,4.1-2.5c1.9,0,4,0.6,6.1,1.9c2.2,1.3,3.2,2.8,3.2,4.2C524.1,34.1,524.1,34.5,524,34.9z"/>
		<path class="st3" d="M617.3,87.6c-1.1,0.4-3.1,0.4-6.2,0.2c-4.3-0.4-14.3-0.5-29.7-0.4c-14.3,0-24.2,0.1-29.9,0.2l-1.7,0.1
			c-3.5,0.4-5.7,0.4-6.6,0.1c-1.2-0.4-2.2-1.6-2.9-3.6c-1-2.8-0.6-4.4,1-4.9c1-0.4,2.8-0.2,5.4,0.2L549,80
			c5.4,0.5,16.1,0.6,31.9,0.6c15.5,0,25.5-0.2,30.2-0.6c3.8-0.4,6.3-0.4,7.5,0c2,0.6,2.6,2,1.8,4.3C619.7,86,618.8,87.1,617.3,87.6z
			 M592.2,44.9h2l0.4-0.1c3.7-0.2,6.1-0.2,7.1,0c1.8,0.5,2.4,1.8,1.6,4c-0.6,1.8-1.7,2.8-3,3.2c-1,0.4-3,0.4-6.1,0.2
			c-2.3-0.1-6.9-0.2-14-0.2h-14.7v5.7c0,0.6,0.1,1.1,0.4,1.3c0.2,0.2,0.6,0.2,1.2,0.2c1.7,0.1,6.3,0,14.4-0.2
			c7.5-0.1,12.9-0.2,16.2-0.4l0.6-0.1c3.7-0.2,6.1-0.2,7.1,0.1c1.7,0.5,2.2,1.8,1.4,4c-0.7,1.7-1.7,2.8-3.1,3.1
			c-1.1,0.4-3.1,0.5-6.1,0.2c-2.3-0.2-7.4-0.4-15.6-0.4c-6.9,0-12.3,0-16.3,0.1l-2.5,0.4c-1.1,0.2-1.8,0.4-2.3,0.2
			c-0.7-0.2-1.6-1-2.5-2.2c-0.7-1-1.2-1.8-1.3-2.5c-0.1-0.5,0-1.2,0.1-2l0.2-1.6c0.2-3.1,0.4-5.7,0.5-7.9c0.1-3.4,0.1-6.3-0.1-9.1
			c-0.2-1.4-0.4-2.6-0.6-3.2c-0.4-1-1-1.7-1.7-1.9c-2.5-0.8-3.6-2-3.2-3.7s1.8-2.5,4.4-2.5c1.4,0,2.9,0.2,4.2,0.6
			c1.1,0.4,2.3,1,3.4,1.8c0.2,0.2,0.6,0.4,1.1,0.4c0.4,0.1,0.7,0.2,1.3,0.2c1.6,0,5.9,0,13.1-0.1c7.9-0.1,13.2-0.4,15.8-0.6
			c3.8-0.2,6.3-0.2,7.4,0.1c1.8,0.5,2.4,1.8,1.6,4c-0.7,1.8-1.7,2.8-3,3.2c-1,0.4-3.1,0.4-6.2,0.2c-2.6-0.2-7.9-0.4-15.8-0.4h-12.9
			c-0.4,0-0.6,0.1-0.7,0.2c-0.1,0.1-0.2,0.4-0.2,0.6l-0.2,5.9L592.2,44.9z"/>
		<path class="st3" d="M735.3,87c-1,0.2-2.8,0.2-5.4,0l-2.4-0.2c-8.4-0.2-16.9-0.4-25.5-0.4c-5.4,0-14,0.1-25.9,0.2l-6.8,0.1
			l-1.4,0.1c-3.5,0.4-5.7,0.4-6.7,0.1c-1.2-0.4-2.2-1.4-2.8-3.2c-1-2.5-0.7-4,1-4.6c1-0.2,2.8-0.1,5.5,0.2l2.2,0.4
			c1.3,0.1,4.4,0.1,9.2,0.2c2.8,0.1,6.9,0.1,12.7,0.2l6.1,0.1l-0.1-2.4c-0.1-1.3-0.4-2.4-0.6-3.1c-0.4-1-1-1.6-1.7-1.8
			c-2.4-0.8-3.5-2-3.2-3.6c0.4-1.7,1.8-2.4,4.4-2.4c2.4,0,4.7,0.6,6.7,1.7c2.2,1.2,3.2,2.5,3.2,4c0,0.4-0.1,0.7-0.2,1.1
			c0,0.2-0.1,0.6-0.2,1c-0.1,0.5-0.2,0.8-0.2,1.1c-0.1,0.5-0.1,1-0.1,1.4l-0.1,3.1l4-0.1c5.4-0.1,9.3-0.1,11.9-0.2
			c4.6-0.1,7.4-0.1,8.7-0.2l3.1-0.2c3.5-0.4,5.7-0.4,6.8-0.1c1.8,0.6,2.2,2,1.1,4.3C737.8,85.5,736.7,86.6,735.3,87z M691.3,39.4
			c-2.6,0.1-5.4,0.1-8.1,0.2l-1.1,0.1c-3.7,0.4-6.1,0.4-7.1,0.1c-1.3-0.5-2.3-1.7-3-3.8c-0.8-2.4-0.6-3.8,0.8-4.3
			c0.8-0.4,2.6-0.2,5.2,0.2l2.6,0.4c4.2,0.5,9.9,0.6,16.9,0.6c6.6,0,12-0.2,16.2-0.6c4.6-0.4,7.5-0.4,9,0c2,0.5,2.8,1.7,1.9,3.6
			c-0.7,1.8-1.7,2.9-2.8,3.2c-1.1,0.5-3.2,0.6-6.3,0.6c-0.1,0.7-0.1,1.3-0.2,1.9c0,0.4-0.1,0.8-0.2,1.4l-0.4,2.4l-0.1,12.3
			c4.2-0.2,7.1-0.2,8.4,0.2c1.9,0.5,2.5,1.7,1.8,3.6c-0.7,1.9-1.8,3-3.2,3.5c-1.2,0.4-3.8,0.4-7.7,0.2c-3.6-0.2-8.6-0.4-15.2-0.2
			c-5.7,0-10.3,0.1-13.8,0.2l-1.8,0.1c-4.3,0.4-6.9,0.4-7.9,0c-1.3-0.5-2.4-1.8-3.1-4c-0.8-2.3-0.6-3.7,0.8-4.2
			c0.8-0.2,2.5-0.2,4.9,0.2l2.8,0.4h0.6c1,0,1.6,0,1.8,0.1c0.4,0,0.6,0.1,0.8,0.2l-0.2-4.9c-0.1-1.4-0.4-2.5-0.6-3.2
			c-0.4-1-1-1.7-1.7-1.9c-2.4-0.8-3.5-2.2-3.2-4c0.4-1.7,1.8-2.5,4.6-2.5c2.4,0,4.7,0.6,6.7,1.9c2,1.2,3.1,2.6,3.1,4.1
			c0,0.5-0.1,0.8-0.2,1.3c0,0.2-0.1,0.6-0.2,1.1l-0.4,2.4l-0.2,5.9c3,0.1,5.9,0.1,8.6,0.1c2.8,0,4.9,0,6.6-0.1
			c-0.1-3.1-0.1-5.4-0.1-6.9c0-2.9,0-4.7-0.1-5.4l-0.1-0.6c-0.2-1.7-0.4-2.8-0.6-3.5c-0.4-1.2-0.8-1.9-1.6-2.2l-1.3-0.6L691.3,39.4
			L691.3,39.4z"/>
		<path class="st3" d="M789.1,61.2c0.2,1,0.2,1.7,0.2,2c-0.1,0.7-0.6,1.6-1.3,2.5c-1,1.2-1.8,1.9-2.5,2.2c-0.5,0.1-1.3,0.1-2.4-0.2
			l-2.4-0.2l-0.6-0.1c-4.6-0.1-8.1-0.1-10.9-0.1c-4.7,0-8.3,0.1-10.8,0.2l-2.4,0.2c-1.1,0.2-1.8,0.4-2.4,0.2c-0.7-0.2-1.4-1-2.4-2.2
			c-0.7-1-1.2-1.8-1.3-2.5c-0.1-0.5,0-1.1,0.1-1.9l0.2-1.6c0.2-2.4,0.4-5.2,0.5-8.5c0.1-4,0.1-7.1-0.1-9.3c-0.2-1.4-0.4-2.6-0.6-3.2
			c-0.5-1-1.1-1.7-1.8-1.9c-2.4-0.8-3.5-2-3.2-3.7c0.4-1.7,1.8-2.5,4.4-2.5c1.4,0,2.8,0.2,4,0.6c1,0.4,2,0.8,3.2,1.4l3.2,0.4
			c2.5,0.1,6.3,0.1,11.5,0.1c3.2-0.1,6.5-0.1,9.7-0.2l1.7-0.2c1-0.2,1.7-0.2,2.2-0.2c0.7,0.1,1.6,0.5,2.4,1.1c1.2,1,1.9,1.8,2,2.5
			c0.2,0.5,0.1,1.2-0.2,2.3l-0.4,2.2c-0.4,1.9-0.5,5-0.5,9.3c0.1,4.2,0.2,7.5,0.5,10.1L789.1,61.2z M780.8,39.4
			c-0.4-0.2-1-0.2-1.6-0.2c-3-0.1-6.3-0.2-10.2-0.2c-4.9-0.1-7.8,0-8.9,0.1c-0.7,0-1.2,0.1-1.4,0.5c-0.2,0.4-0.4,1-0.4,1.9
			l-0.2,17.6c0,0.7,0.1,1.2,0.2,1.4c0.2,0.4,0.5,0.5,1.1,0.6c1.3,0.1,4.7,0.1,9.8,0.1c4.7-0.1,8-0.1,10.3-0.1c0.7,0,1.2-0.1,1.4-0.4
			s0.4-0.7,0.5-1.4V40.5C781.3,40,781.2,39.7,780.8,39.4z M801.4,107.8c3.4,2.3,6.6,3.4,10.1,3.4l1.1-0.2c3-0.2,4.9-0.2,5.9,0.1
			c1.4,0.5,1.8,1.8,1.1,4.1c-0.6,1.7-1.7,2.6-3,3c-1,0.4-2.9,0.4-6,0.2c-4.2-0.2-8.4-1.6-12.5-4.1c-3.2-2-6-4.4-8.1-7.4
			c-2,3.1-4.8,5.6-8.4,7.7c-3.7,2.3-7.7,3.6-11.9,3.7l-1.6,0.2c-2.5,0.4-4.1,0.4-4.9,0c-1.1-0.4-2-1.6-2.8-3.5
			c-1-2.6-0.7-4.3,0.8-4.8c0.8-0.2,2.5-0.1,5,0.5l1.9,0.4c4.3,0.1,8.5-1.8,12.5-5.4c4.1-3.8,6.1-7.8,5.7-12
			c-0.1-1.4-0.2-2.5-0.6-3.2c-0.4-1-1-1.7-1.7-1.9c-2.4-0.8-3.5-2-3.2-3.7s1.7-2.5,4.3-2.5c2.4,0,4.7,0.6,6.8,1.8
			c2.2,1.2,3.2,2.5,3.2,4.1c0,0.4-0.1,0.7-0.2,1.1c0,0.2-0.1,0.6-0.2,1c-0.2,0.5-0.4,0.8-0.4,1.1c-0.1,0.5-0.1,1.1-0.1,1.6
			c0,0.8-0.1,1.7-0.2,2.6l-0.5,3.5C795.6,102.4,798,105.4,801.4,107.8z M829.3,34.7c0,0.2-0.1,0.6-0.2,1.1c-0.2,0.5-0.4,0.8-0.4,1.1
			c-0.1,0.5-0.1,1.1-0.1,1.7c-0.2,5.6-0.4,12.5-0.4,20.7c0.1,8.3,0.2,13.4,0.6,15.6c0.4,3.1,0.4,5.2-0.2,6.5s-1.9,2.4-4,3
			c-2.5,0.6-4.1,0.1-4.7-1.7c-0.4-1.1-0.4-3.5,0-7.3l0.1-0.5c0.2-1.4,0.4-4.1,0.6-7.9c0.2-4.1,0.4-8.3,0.4-12.3
			c-1.6-0.1-3.6-0.2-6.1-0.2s-4.8,0-6.6,0.1c0,4.2,0,7.7,0.1,10.3c0.1,3.4,0.2,5.6,0.4,6.8c0.2,3.1,0.1,5.3-0.2,6.5
			c-0.5,1.4-1.8,2.4-3.8,2.9c-2.5,0.6-4.1,0.1-4.7-1.4c-0.4-1-0.4-3.4,0-6.9l0.2-1c0.2-2.8,0.5-7.2,0.7-13.3
			c0.2-7.3,0.1-13.1-0.1-17.4c-0.1-1.6-0.4-2.6-0.6-3.4c-0.4-1-1-1.7-1.7-1.9c-2.3-1-3.4-2.3-3.1-4.1c0.4-1.8,1.8-2.6,4.3-2.6
			c2.3,0,4.4,0.6,6.5,1.9c2,1.2,3,2.6,3,4.3c0,0.5-0.1,0.8-0.2,1.2c0,0.2-0.1,0.6-0.2,1.1c-0.1,0.5-0.2,0.8-0.2,1.1
			c-0.1,0.5-0.2,1-0.2,1.4l-0.2,7.7h6.6c2.5-0.1,4.6-0.1,6.1-0.2l-0.1-8.3c-0.1-1.3-0.2-2.5-0.6-3.4c-0.4-1.1-1-1.8-1.8-2
			c-2.3-0.8-3.2-2-2.9-3.8c0.2-1.7,1.7-2.5,4.1-2.5c2.3,0,4.4,0.6,6.5,1.9c2.2,1.2,3.2,2.6,3.2,4.2C829.6,34,829.5,34.4,829.3,34.7z
			"/>
	</g>
</g>
</svg>
