<?xml version="1.0" encoding="utf-8"?>
<!-- Generator: Adobe Illustrator 27.0.0, SVG Export Plug-In . SVG Version: 6.00 Build 0)  -->
<svg version="1.1" id="_레이어_2" xmlns="http://www.w3.org/2000/svg" xmlns:xlink="http://www.w3.org/1999/xlink" x="0px"
	 y="0px" viewBox="0 0 920.8 100.2" style="enable-background:new 0 0 920.8 100.2;" xml:space="preserve">
<style type="text/css">
	.st0{fill:#B5B5B6;}
	.st1{fill:#231815;}
	.st2{fill:#FFFFFF;}
	.st3{font-family:'H2ta2M';}
	.st4{font-size:80px;}
	.st5{letter-spacing:-4;}
</style>
<g id="_레이어_1-2">
	<rect x="0" class="st0" width="920.8" height="100.2"/>
	<g>
		<g>
			<rect y="50.1" class="st1" width="57.5" height="12.5"/>
			<rect x="57.5" y="62.6" class="st1" width="57.5" height="12.5"/>
		</g>
		<g>
			<rect x="115.1" y="50.1" class="st1" width="57.5" height="12.5"/>
			<rect x="172.7" y="62.6" class="st1" width="57.5" height="12.5"/>
		</g>
		<g>
			<rect y="25" class="st1" width="57.5" height="12.5"/>
			<rect x="57.5" y="37.6" class="st1" width="57.5" height="12.5"/>
		</g>
		<g>
			<rect x="115.1" y="25" class="st1" width="57.5" height="12.5"/>
			<rect x="172.7" y="37.6" class="st1" width="57.5" height="12.5"/>
		</g>
		<g>
			<rect y="0" class="st1" width="57.5" height="12.5"/>
			<rect x="57.5" y="12.5" class="st1" width="57.5" height="12.5"/>
		</g>
		<g>
			<rect x="115.1" y="0" class="st1" width="57.5" height="12.5"/>
			<rect x="172.7" y="12.5" class="st1" width="57.5" height="12.5"/>
		</g>
		<g>
			<rect y="75.1" class="st1" width="57.5" height="12.5"/>
			<rect x="57.5" y="87.7" class="st1" width="57.5" height="12.5"/>
		</g>
		<g>
			<rect x="115.1" y="75.1" class="st1" width="57.5" height="12.5"/>
			<rect x="172.7" y="87.7" class="st1" width="57.5" height="12.5"/>
		</g>
		<g>
			<rect x="230.2" y="50.1" class="st1" width="57.5" height="12.5"/>
			<rect x="287.8" y="62.6" class="st1" width="57.5" height="12.5"/>
		</g>
		<g>
			<rect x="345.3" y="50.1" class="st1" width="57.5" height="12.5"/>
			<rect x="402.9" y="62.6" class="st1" width="57.5" height="12.5"/>
		</g>
		<g>
			<rect x="230.2" y="25" class="st1" width="57.5" height="12.5"/>
			<rect x="287.8" y="37.6" class="st1" width="57.5" height="12.5"/>
		</g>
		<g>
			<rect x="345.3" y="25" class="st1" width="57.5" height="12.5"/>
			<rect x="402.9" y="37.6" class="st1" width="57.5" height="12.5"/>
		</g>
		<g>
			<rect x="230.2" y="0" class="st1" width="57.5" height="12.5"/>
			<rect x="287.8" y="12.5" class="st1" width="57.5" height="12.5"/>
		</g>
		<g>
			<rect x="345.3" y="0" class="st1" width="57.5" height="12.5"/>
			<rect x="402.9" y="12.5" class="st1" width="57.5" height="12.5"/>
		</g>
		<g>
			<rect x="230.2" y="75.1" class="st1" width="57.5" height="12.5"/>
			<rect x="287.8" y="87.7" class="st1" width="57.5" height="12.5"/>
		</g>
		<g>
			<rect x="345.3" y="75.1" class="st1" width="57.5" height="12.5"/>
			<rect x="402.9" y="87.7" class="st1" width="57.5" height="12.5"/>
		</g>
		<g>
			<rect x="460.4" y="50.1" class="st1" width="57.5" height="12.5"/>
			<rect x="518" y="62.6" class="st1" width="57.5" height="12.5"/>
		</g>
		<g>
			<rect x="575.5" y="50.1" class="st1" width="57.5" height="12.5"/>
			<rect x="633.1" y="62.6" class="st1" width="57.6" height="12.5"/>
		</g>
		<g>
			<rect x="460.4" y="25" class="st1" width="57.5" height="12.5"/>
			<rect x="518" y="37.6" class="st1" width="57.5" height="12.5"/>
		</g>
		<g>
			<rect x="575.5" y="25" class="st1" width="57.5" height="12.5"/>
			<rect x="633.1" y="37.6" class="st1" width="57.6" height="12.5"/>
		</g>
		<g>
			<rect x="460.4" y="0" class="st1" width="57.5" height="12.5"/>
			<rect x="518" y="12.5" class="st1" width="57.5" height="12.5"/>
		</g>
		<g>
			<rect x="575.5" y="0" class="st1" width="57.5" height="12.5"/>
			<rect x="633.1" y="12.5" class="st1" width="57.6" height="12.5"/>
		</g>
		<g>
			<rect x="460.4" y="75.1" class="st1" width="57.5" height="12.5"/>
			<rect x="518" y="87.7" class="st1" width="57.5" height="12.5"/>
		</g>
		<g>
			<rect x="575.5" y="75.1" class="st1" width="57.5" height="12.5"/>
			<rect x="633.1" y="87.7" class="st1" width="57.6" height="12.5"/>
		</g>
		<g>
			<rect x="690.6" y="50.1" class="st1" width="57.6" height="12.5"/>
			<rect x="748.2" y="62.6" class="st1" width="57.6" height="12.5"/>
		</g>
		<g>
			<rect x="805.7" y="50.1" class="st1" width="57.5" height="12.5"/>
			<rect x="863.3" y="62.6" class="st1" width="57.5" height="12.5"/>
		</g>
		<g>
			<rect x="690.6" y="25" class="st1" width="57.6" height="12.5"/>
			<rect x="748.2" y="37.6" class="st1" width="57.6" height="12.5"/>
		</g>
		<g>
			<rect x="805.7" y="25" class="st1" width="57.5" height="12.5"/>
			<rect x="863.3" y="37.6" class="st1" width="57.5" height="12.5"/>
		</g>
		<g>
			<rect x="690.6" y="0" class="st1" width="57.6" height="12.5"/>
			<rect x="748.2" y="12.5" class="st1" width="57.6" height="12.5"/>
		</g>
		<g>
			<rect x="805.7" y="0" class="st1" width="57.5" height="12.5"/>
			<rect x="863.3" y="12.5" class="st1" width="57.5" height="12.5"/>
		</g>
		<g>
			<rect x="690.6" y="75.1" class="st1" width="57.6" height="12.5"/>
			<rect x="748.2" y="87.7" class="st1" width="57.6" height="12.5"/>
		</g>
		<g>
			<rect x="805.7" y="75.1" class="st1" width="57.5" height="12.5"/>
			<rect x="863.3" y="87.7" class="st1" width="57.5" height="12.5"/>
		</g>
	</g>
	<text transform="matrix(1 0 0 1 115.1098 79.7599)" class="st2 st3 st4 st5">프리 도큐먼트 포맷</text>
</g>
</svg>
