<?xml version="1.0" encoding="utf-8"?>
<!-- Generator: Adobe Illustrator 27.0.0, SVG Export Plug-In . SVG Version: 6.00 Build 0)  -->
<svg version="1.1" id="_레이어_2" xmlns="http://www.w3.org/2000/svg" xmlns:xlink="http://www.w3.org/1999/xlink" x="0px"
	 y="0px" viewBox="0 0 83 989.3" style="enable-background:new 0 0 83 989.3;" xml:space="preserve">
<style type="text/css">
	.st0{fill:#231815;}
	.st1{enable-background:new    ;}
	.st2{fill:#FFFFFF;}
</style>
<g id="_레이어_1-2">
	<rect y="0" class="st0" width="83" height="989.3"/>
	<g class="st1">
		<path class="st2" d="M42.9,966.7c-2.8,0-5.1-2.4-5.1-5.2s2.3-5.1,5.1-5.1c2.6,0,5,2.3,5,5.1S45.5,966.7,42.9,966.7z"/>
	</g>
	<g class="st1">
		<path class="st2" d="M30.4,917.4c-0.2,0.1-0.3,0.3-0.4,0.5c-0.3,0.9-0.8,1.2-1.4,1.1c-0.6-0.1-0.9-0.6-0.9-1.6
			c0-0.9,0.2-1.7,0.6-2.5c0.5-0.8,1-1.2,1.5-1.2l0.7,0.1l0.7,0.1c0-0.8,0-1.5-0.1-2.1c0-0.5-0.1-1-0.1-1.6c-0.1-1.5-0.1-2.5,0-2.9
			c0.2-0.7,0.7-0.9,1.5-0.6c0.5,0.2,0.8,0.5,1,0.9c0.1,0.4,0.2,1,0.2,1.9c0.5-0.3,1-0.6,1.6-0.8s1.4-0.3,2.1-0.3
			c2,0,3.5,0.6,4.5,1.7c1.2,1.2,1.7,3.2,1.7,5.8s-0.6,4.5-1.7,5.8c-1,1.1-2.6,1.7-4.5,1.7c-0.8,0-1.5-0.1-2.1-0.3
			c-0.5-0.2-1.1-0.4-1.6-0.7c0.1,0.9,0,1.5-0.1,1.8c-0.2,0.3-0.5,0.6-1.2,0.9c-0.9,0.3-1.5,0.2-1.7-0.3c-0.1-0.3-0.1-1,0-1.9
			l0.1-1.1c0.1-0.7,0.1-1.3,0.1-2s0.1-1.6,0.1-2.6C30.9,917.2,30.6,917.3,30.4,917.4z M38.2,894.6c0.1,0.3,0.1,0.9,0,1.9l-0.1,0.5
			c0,0.2-0.1,0.5-0.1,1v1.2c3.1,0.1,6.4,0.1,10.1,0.1c3,0,6.3-0.1,9.7-0.2c1.2-0.1,2,0,2.4,0.1c0.5,0.2,0.9,0.7,1.1,1.4
			c0.2,0.9,0,1.5-0.6,1.7c-0.3,0.1-1.1,0.2-2.3,0.1l-0.6-0.1c-4-0.2-8.2-0.3-12.5-0.4c-4.5-0.1-8.8,0-13,0.1c-0.5,0-0.9,0.1-1.2,0.2
			c-0.4,0.2-0.6,0.4-0.7,0.7c-0.3,0.9-0.8,1.3-1.5,1.2c-0.6-0.1-1-0.6-1-1.6c0-0.9,0.2-1.8,0.7-2.5c0.5-0.8,1-1.2,1.6-1.2
			c0.1,0,0.3,0,0.4,0.1c0.1,0,0.2,0,0.4,0.1c0.2,0.1,0.3,0.1,0.4,0.1c0.2,0,0.4,0,0.6,0l2.2,0.1h1.2c0-0.5-0.1-0.9-0.1-1.3
			c0-0.6-0.1-1.1-0.1-1.5l-0.1-0.8c-0.2-0.9-0.2-1.6-0.1-1.9c0.2-0.6,0.8-0.7,1.8-0.3C37.5,893.9,38,894.2,38.2,894.6z M34.8,912.3
			c-0.8,0.8-1.1,2-1.1,3.6s0.4,2.8,1.1,3.6c0.7,0.7,1.6,1.1,2.8,1.1s2.2-0.4,2.9-1.1c0.7-0.8,1.1-2,1.1-3.6s-0.4-2.8-1.1-3.6
			c-0.7-0.8-1.6-1.1-2.9-1.1C36.4,911.2,35.5,911.6,34.8,912.3z"/>
		<path class="st2" d="M38.2,856c0.1,0.3,0.1,0.9,0,1.9l-0.1,0.5c0,0.2-0.1,0.5-0.1,1v1.2c3.1,0.1,6.4,0.1,10.1,0.1
			c3,0,6.3-0.1,9.7-0.2c1.2-0.1,2,0,2.4,0.1c0.5,0.2,0.9,0.7,1.1,1.4c0.2,0.9,0,1.5-0.6,1.7c-0.3,0.1-1.1,0.2-2.3,0.1l-0.6-0.1
			c-4-0.2-8.2-0.3-12.5-0.4c-4.5-0.1-8.8,0-13,0.1c-0.5,0-0.9,0.1-1.2,0.2c-0.4,0.2-0.6,0.4-0.7,0.7c-0.3,0.9-0.8,1.3-1.5,1.2
			c-0.6-0.1-1-0.6-1-1.6c0-0.9,0.2-1.8,0.7-2.5c0.5-0.8,1-1.2,1.6-1.2c0.1,0,0.3,0,0.4,0.1c0.1,0,0.2,0,0.4,0.1
			c0.2,0.1,0.3,0.1,0.4,0.1c0.2,0,0.4,0,0.6,0l2.2,0.1h1.2c0-0.5-0.1-0.9-0.1-1.3c0-0.6-0.1-1.1-0.1-1.5l-0.1-0.8
			c-0.2-0.9-0.2-1.6-0.1-1.9c0.2-0.6,0.8-0.7,1.8-0.3C37.5,855.2,38,855.5,38.2,856z M42.5,870.4c0.1,0.4,0.1,1.1,0.1,2.2
			c0,1.1-0.1,2.6-0.1,4.3c0,2,0,3.5,0.1,4.5l0.1,0.9c0.1,0.4,0.1,0.7,0.1,0.9c-0.1,0.3-0.4,0.6-0.8,0.9c-0.3,0.3-0.6,0.4-0.9,0.5
			c-0.2,0-0.4,0-0.7,0l-0.6-0.1c-0.9-0.1-1.9-0.1-2.8-0.2c-1.3,0-2.6,0-3.7,0.1c-0.5,0-1,0.1-1.2,0.2c-0.4,0.1-0.6,0.3-0.7,0.6
			c-0.3,0.9-0.8,1.3-1.4,1.2s-0.9-0.6-0.9-1.6c0-0.8,0.2-1.6,0.6-2.4c0.4-0.8,0.9-1.2,1.5-1.2c0.2,0,0.3,0,0.5,0.1
			c0.1,0,0.2,0,0.4,0.1l0.4,0.1c0.2,0,0.3,0,0.5,0c1.2,0,2.4,0.1,3.8,0.1h2.7c0.2,0,0.4,0,0.5-0.1s0.2-0.3,0.2-0.6
			c0-0.5,0-1.7-0.1-3.7c0-1.8-0.1-3.3-0.2-4.4v-0.2c-0.1-1.3-0.1-2.2,0.1-2.6c0.2-0.6,0.7-0.8,1.5-0.5
			C42,869.5,42.3,869.9,42.5,870.4z"/>
		<path class="st2" d="M30.6,820.9c0.1,0,0.2,0,0.4,0.1c0.2,0.1,0.3,0.1,0.4,0.1c0.2,0,0.4,0,0.6,0c4.4,0.1,8.8,0.2,13.2,0.2
			c4.3,0,8.5-0.1,12.7-0.2c1.2-0.1,2,0,2.4,0.1c0.5,0.2,0.9,0.7,1.1,1.4c0.2,0.9,0,1.4-0.5,1.6c-0.3,0.2-1.1,0.2-2.2,0.2h-0.8
			c-4.2-0.2-8.4-0.3-12.7-0.4c-4.4,0-8.7,0-12.9,0.1c-0.5,0-0.9,0.1-1.2,0.2c-0.4,0.1-0.6,0.4-0.7,0.6c-0.3,0.9-0.8,1.3-1.5,1.2
			c-0.6-0.1-1-0.7-1-1.6c0-0.9,0.2-1.7,0.7-2.5s1-1.2,1.6-1.2C30.3,820.8,30.5,820.9,30.6,820.9z M40.5,831.8
			c1.3,1.3,1.9,3.4,1.9,6.1c0,2.7-0.6,4.8-1.9,6.1c-1.1,1.2-2.8,1.8-4.9,1.8c-2.2,0-3.9-0.6-5-1.8c-1.3-1.3-1.9-3.4-1.9-6.1
			c0-2.7,0.6-4.8,1.9-6.1c1.2-1.3,2.8-1.9,5-1.9C37.7,829.9,39.4,830.6,40.5,831.8z M32.3,834.1c-0.8,0.9-1.3,2.2-1.3,3.9
			s0.4,2.9,1.3,3.8c0.8,0.8,1.9,1.3,3.3,1.3c1.4,0,2.5-0.4,3.3-1.3c0.8-0.9,1.3-2.2,1.3-3.8s-0.4-2.9-1.3-3.9
			c-0.8-0.9-1.9-1.3-3.3-1.3C34.2,832.7,33.1,833.2,32.3,834.1z M48.7,828.8c0.1,0.4,0.1,1.1,0.1,2.3c-0.1,1.5-0.1,3.7-0.1,6.5
			c0,1.8,0,3.9,0.1,6.5v0.6c0.1,1.3,0.1,2.1,0,2.4c-0.1,0.5-0.6,0.8-1.3,1.1c-1,0.3-1.6,0.2-1.8-0.3c-0.1-0.3-0.1-1,0.1-2L46,845
			c0.2-2,0.2-4.4,0.2-7.3c0-2.7-0.1-4.9-0.2-6.7c-0.1-1.4-0.1-2.3,0-2.8c0.2-0.7,0.7-0.9,1.6-0.6C48.2,827.9,48.6,828.3,48.7,828.8z
			"/>
	</g>
	<g class="st1">
		<path class="st2" d="M42.9,784.5c-2.8,0-5.1-2.4-5.1-5.2s2.3-5.1,5.1-5.1c2.6,0,5,2.3,5,5.1S45.5,784.5,42.9,784.5z"/>
	</g>
	<g class="st1">
		<path class="st2" d="M30.4,724.1c-0.2,0.1-0.3,0.3-0.4,0.5c-0.3,0.9-0.8,1.3-1.4,1.2s-0.9-0.6-0.9-1.6c0-0.9,0.2-1.7,0.6-2.5
			c0.5-0.8,1-1.2,1.5-1.2l0.7,0.1l0.7,0.1c0-1.2,0-2.1-0.1-2.7l-0.1-2v-0.1c-0.1-1.4,0-2.4,0.1-2.8c0.2-0.7,0.7-0.9,1.5-0.6
			c0.5,0.2,0.9,0.5,1,0.9c0.2,0.4,0.2,1.2,0.2,2.5c0.4-0.4,0.9-0.7,1.5-0.9s1.2-0.3,1.8-0.3c1.7,0,3,0.6,4.1,1.9
			c1.2,1.4,1.7,3.5,1.7,6.1c0,2.7-0.6,4.8-1.7,6.2c-1,1.3-2.4,1.9-4.1,1.9c-0.6,0-1.2-0.1-1.8-0.3s-1.1-0.5-1.5-0.9
			c0.1,1.2,0,1.9-0.1,2.3c-0.2,0.4-0.6,0.7-1.2,0.9c-0.9,0.3-1.5,0.2-1.7-0.3c-0.1-0.3-0.1-1,0.1-1.9l0.1-1c0-0.6,0.1-1.4,0.1-2.4
			s0.1-2.1,0.1-3.3C30.9,723.9,30.6,724,30.4,724.1z M34.6,718.6c-0.6,0.9-1,2.2-1,4.1c0,1.9,0.3,3.2,1,4.1c0.6,0.8,1.4,1.2,2.5,1.2
			s1.9-0.4,2.5-1.2c0.7-0.9,1-2.3,1-4.1s-0.3-3.2-1-4.1c-0.6-0.8-1.4-1.2-2.5-1.2S35.2,717.8,34.6,718.6z M49.8,709.2
			c0.1,0.4,0.1,1.1,0.1,2.3c-0.1,1.6-0.2,5.2-0.1,10.8c0,5.2,0,8.8,0.1,10.9v0.6c0.1,1.3,0.1,2.1,0,2.4c-0.1,0.5-0.6,0.8-1.3,1.1
			c-1,0.3-1.6,0.2-1.8-0.3c-0.1-0.3-0.1-1,0.1-2l0.1-0.9c0.2-2,0.2-5.9,0.2-11.6c0-5.6-0.1-9.3-0.2-11c-0.1-1.4-0.1-2.3,0-2.8
			c0.2-0.7,0.7-0.9,1.6-0.6C49.2,708.3,49.6,708.7,49.8,709.2z"/>
		<path class="st2" d="M41.8,675.6c0.1,0.4,0.1,1.1,0.1,2.2c-0.1,0.9-0.1,2.8-0.1,5.6c0,2.7,0,4.7,0,5.9l0.2,0.9
			c0.1,0.4,0.1,0.7,0.1,0.9c-0.1,0.3-0.4,0.6-0.8,0.9c-0.5,0.4-0.9,0.6-1.3,0.6c-0.3,0-0.6,0-1-0.2c-0.2,0-0.4-0.1-0.8-0.1
			c-0.3,0-0.6,0-0.9,0c-0.4,0.1-0.7,0.1-1,0.2c-0.4,0.2-0.6,0.4-0.6,0.6c-0.3,0.9-0.8,1.3-1.4,1.2s-0.9-0.6-0.9-1.6
			c0-0.5,0.1-1.1,0.2-1.5c0.1-0.4,0.4-0.8,0.6-1.2l0.1-0.3c0-0.2,0.1-0.3,0.1-0.5c0-0.5,0-2.1-0.1-4.9c0-2.9-0.1-4.7-0.1-5.6
			c0-0.1,0-0.2-0.1-0.2c0,0-0.1-0.1-0.2-0.1c-0.1,0-0.4,0-0.9,0c-0.2,0-0.6,0-0.9,0c-0.1,0-0.2,0.1-0.3,0.3c0,0.1-0.1,0.3-0.1,0.4
			v2.1c0,2,0,3.5,0.1,4.5c0,1.8,0.1,3.2,0.1,4.2v0.5c0.1,1,0.1,1.6,0,1.8c-0.1,0.4-0.6,0.7-1.3,1c-1,0.3-1.5,0.2-1.7-0.3
			c-0.1-0.3-0.1-0.9,0.1-1.8l0.1-0.7c0.2-1.7,0.2-4,0.2-7c0-2.2,0-3.8-0.1-5l-0.1-0.6c0-0.3-0.1-0.6,0-0.8c0-0.3,0.2-0.6,0.4-0.9
			c0.4-0.5,0.7-0.7,1-0.8c0.2,0,0.5,0,0.9,0.1l0.6,0.1c0.6,0.1,1.1,0.1,1.4,0.1c0.3,0,0.5,0,0.8,0c0.1-0.2,0.2-0.3,0.4-0.4
			c0.3-0.1,0.6,0,1,0.1c0.6,0.2,1,0.6,1.2,1.1c0.1,0.4,0.1,1.1,0.1,2.2c-0.1,1-0.1,2.9-0.1,5.8v4.6c0,0.2,0,0.3,0.1,0.4
			c0.1,0.1,0.2,0.1,0.4,0.1s0.5,0.1,0.9,0.1H39c0.2,0,0.3-0.1,0.4-0.2c0.1-0.1,0.1-0.2,0.1-0.3c0-0.7,0-2.5,0-5.2
			c-0.1-2.9-0.1-4.9-0.2-5.9c-0.2-1.3-0.2-2.3,0-2.7c0.2-0.7,0.7-0.9,1.5-0.6C41.3,674.7,41.6,675.1,41.8,675.6z M49.8,670.5
			c0.1,0.4,0.1,1.1,0.1,2.3c-0.1,1.6-0.2,5.2-0.1,10.8c0,5.2,0,8.8,0.1,10.9v0.6c0.1,1.3,0.1,2.1,0,2.4c-0.1,0.5-0.6,0.8-1.3,1.1
			c-1,0.3-1.6,0.2-1.8-0.3c-0.1-0.3-0.1-1,0.1-2l0.1-0.9c0.2-2,0.2-5.9,0.2-11.6c0-5.6-0.1-9.3-0.2-11c-0.1-1.4-0.1-2.3,0-2.8
			c0.2-0.7,0.7-0.9,1.6-0.6C49.2,669.6,49.6,670,49.8,670.5z"/>
		<path class="st2" d="M40.9,637.8c0.1,0.4,0.1,1.1,0.1,2.2c0,1.1-0.1,3-0.1,5.7c0,3,0,4.9,0.1,5.9l0.1,0.9c0.1,0.4,0.1,0.7,0.1,0.9
			c-0.1,0.3-0.4,0.6-0.8,0.9c-0.4,0.3-0.7,0.4-1,0.5c-0.2,0-0.4,0-0.8,0l-0.5-0.1c-0.9-0.1-1.7-0.1-2.4-0.2c-1,0-1.9,0-2.6,0
			c-0.5,0.1-1,0.1-1.2,0.2c-0.4,0.1-0.6,0.3-0.7,0.6c-0.3,0.9-0.8,1.3-1.4,1.2s-0.9-0.6-0.9-1.6c0-0.9,0.2-1.7,0.6-2.4
			c0.5-0.8,0.9-1.2,1.5-1.2c0.2,0,0.3,0,0.5,0.1l0.8,0.2c0.2,0,0.3,0,0.5,0c0.8,0,1.7,0.1,2.7,0.1h2.3c0.2,0,0.4,0,0.5-0.1
			s0.2-0.3,0.2-0.6c0-0.5,0-2.3-0.1-5.1c0-2.8-0.1-4.8-0.2-5.8v-0.2c-0.1-1.3-0.1-2.2,0.1-2.6c0.2-0.6,0.7-0.8,1.4-0.5
			C40.4,637,40.8,637.3,40.9,637.8z M46.7,632.8c0.1,0.4,0.1,1.1,0.1,2.3c-0.1,1.6-0.2,5.2-0.1,10.8c0,5.2,0,8.8,0.1,10.9v0.6
			c0.1,1.3,0.1,2.1,0,2.4c-0.1,0.5-0.6,0.8-1.3,1.1c-1,0.3-1.6,0.2-1.8-0.3c-0.1-0.3-0.1-1,0.1-2l0.1-0.9c0.2-1.9,0.2-5.8,0.2-11.6
			c0-5.6-0.1-9.2-0.2-11c-0.1-1.4-0.1-2.3,0-2.8c0.2-0.7,0.7-0.9,1.6-0.6C46.1,631.9,46.5,632.3,46.7,632.8z M60.8,637.8
			c0.1,0.4,0.1,1.1,0,2.2c0,1.4-0.1,3.3-0.1,5.7c0,3,0,5,0.1,5.9l0.1,0.9c0.1,0.4,0.1,0.7,0.1,0.9c-0.1,0.3-0.4,0.6-0.8,0.9
			c-0.3,0.3-0.6,0.4-0.9,0.5c-0.2,0-0.4,0-0.7,0l-0.6-0.1c-1-0.1-1.8-0.1-2.3-0.2c-0.9,0-1.8,0-2.6,0c-0.5,0.1-1,0.1-1.2,0.2
			c-0.4,0.1-0.6,0.3-0.7,0.6c-0.3,0.9-0.8,1.3-1.4,1.2c-0.6-0.1-0.9-0.6-0.9-1.6c0-0.9,0.2-1.7,0.6-2.4c0.5-0.8,0.9-1.2,1.5-1.2
			c0.1,0,0.3,0,0.4,0.1c0.1,0,0.2,0,0.4,0.1s0.3,0.1,0.4,0.1c0.2,0,0.4,0,0.6,0c0.9,0,1.8,0.1,2.7,0.1h2.2c0.2,0,0.4,0,0.5-0.1
			s0.2-0.3,0.2-0.6c0-0.5,0-2.3-0.1-5.1c0-2.8-0.1-4.8-0.2-5.8v-0.3c-0.1-1.3-0.1-2.1,0-2.5c0.2-0.6,0.7-0.8,1.5-0.5
			C60.3,637,60.6,637.3,60.8,637.8z"/>
	</g>
	<g class="st1">
		<path class="st2" d="M42.9,598.2c-2.8,0-5.1-2.4-5.1-5.2s2.3-5.1,5.1-5.1c2.6,0,5,2.3,5,5.1C47.9,595.9,45.5,598.2,42.9,598.2z"/>
	</g>
	<g class="st1">
		<path class="st2" d="M30.6,524.8c0.1,0,0.2,0,0.4,0.1c0.2,0,0.3,0.1,0.4,0.1c0.2,0,0.3,0.1,0.5,0.1c1.9,0.1,4.2,0.1,6.7,0.1
			s4.3-0.1,5.3-0.2c1.1-0.1,1.9-0.1,2.3,0.1c0.5,0.2,0.9,0.6,1.1,1.4c0.2,0.9,0.1,1.5-0.5,1.7c-0.4,0.1-1.2,0.1-2.5,0H44l-3.6-0.2
			c0,0.4,0,1,0,1.8c0,0.9,0.1,1.4,0.1,1.6v0.6c0.1,1.1,0.2,1.8,0.1,2.1c-0.1,0.4-0.6,0.8-1.3,1c-1,0.3-1.6,0.2-1.8-0.3
			c-0.1-0.3-0.1-0.9,0.1-1.9l0.2-1.1l0.2-4h-0.6c-0.7,0-1.2,0-1.5,0c-0.6,0-1.1,0-1.5,0l0.1,3.5l0.1,0.7c0.1,1.1,0.1,1.8,0,2.1
			c-0.1,0.4-0.6,0.7-1.3,1c-1,0.3-1.6,0.2-1.8-0.3c-0.1-0.3-0.1-1,0.1-1.9l0.2-1.1l0.1-2.3c0-0.8,0.1-1.4,0.1-1.7h-0.2
			c-0.3,0-0.5,0.1-0.7,0.2c-0.3,0.1-0.6,0.3-0.7,0.6c-0.3,0.8-0.8,1.1-1.4,1.1c-0.6-0.1-0.9-0.6-0.9-1.5c0-0.7,0.2-1.4,0.7-2.2
			s1-1.2,1.5-1.2C30.3,524.7,30.5,524.7,30.6,524.8z M41.6,537c1.3,1.3,2,3.3,2,6.1c0,2.7-0.7,4.8-2,6.1s-3.1,1.9-5.4,1.9
			c-2.4,0-4.3-0.6-5.5-1.9c-1.3-1.3-2-3.3-2-6.1c0-2.7,0.7-4.8,2-6.1s3.1-1.9,5.5-1.9S40.4,535.8,41.6,537z M32.5,539.3
			c-0.9,0.9-1.4,2.2-1.4,3.9s0.5,3,1.4,3.9c0.9,0.8,2.2,1.3,3.8,1.3c1.5,0,2.8-0.4,3.7-1.3c1-0.9,1.4-2.2,1.4-3.9s-0.5-2.9-1.4-3.9
			c-0.9-0.9-2.1-1.3-3.7-1.3C34.6,537.9,33.4,538.4,32.5,539.3z M60.8,528.9c0.1,0.4,0.1,1.1,0,2.2c0,1.4-0.1,3.3-0.1,5.7
			c0,3,0,5,0.1,5.9l0.1,0.9c0.1,0.4,0.1,0.7,0.1,0.9c-0.1,0.3-0.4,0.6-0.8,0.9c-0.3,0.3-0.6,0.4-0.9,0.5c-0.2,0-0.4,0-0.7,0
			l-0.6-0.1c-0.9-0.1-1.9-0.1-2.8-0.2c-1.3,0-2.6,0-3.6,0c-0.5,0.1-1,0.1-1.2,0.2c-0.4,0.1-0.6,0.3-0.7,0.6
			c-0.3,0.9-0.8,1.3-1.4,1.2c-0.6-0.1-0.9-0.6-0.9-1.6c0-0.9,0.2-1.7,0.6-2.4c0.5-0.8,0.9-1.2,1.5-1.2c0.1,0,0.3,0,0.4,0.1
			c0.1,0,0.2,0,0.4,0.1s0.3,0.1,0.4,0.1c0.2,0,0.4,0,0.6,0c1.2,0,2.4,0.1,3.8,0.1h2.7c0.2,0,0.4,0,0.5-0.1s0.2-0.3,0.2-0.6
			c0-0.5,0-2.3-0.1-5.1c0-2.8-0.1-4.8-0.2-5.8v-0.3c-0.1-1.3-0.1-2.1,0-2.5c0.2-0.6,0.7-0.8,1.5-0.5
			C60.3,528.1,60.6,528.4,60.8,528.9z"/>
		<path class="st2" d="M30.6,487.1c0.1,0,0.2,0,0.4,0.1c0.2,0,0.3,0.1,0.4,0.1c0.2,0,0.3,0.1,0.5,0.1c1.9,0.1,4.2,0.1,6.7,0.1
			s4.3-0.1,5.3-0.2c1.1-0.1,1.9-0.1,2.3,0.1c0.5,0.2,0.9,0.6,1.1,1.4c0.2,0.9,0.1,1.5-0.5,1.7c-0.4,0.1-1.2,0.1-2.5,0H44l-3.6-0.2
			c0,0.4,0,1,0,1.8c0,0.9,0.1,1.4,0.1,1.6v0.6c0.1,1.1,0.2,1.8,0.1,2.1c-0.1,0.4-0.6,0.8-1.3,1c-1,0.3-1.6,0.2-1.8-0.3
			c-0.1-0.3-0.1-0.9,0.1-1.9l0.2-1.1l0.2-4h-0.6c-0.7,0-1.2,0-1.5,0c-0.6,0-1.1,0-1.5,0l0.1,3.5l0.1,0.7c0.1,1.1,0.1,1.8,0,2.1
			c-0.1,0.4-0.6,0.7-1.3,1c-1,0.3-1.6,0.2-1.8-0.3c-0.1-0.3-0.1-1,0.1-1.9l0.2-1.1l0.1-2.3c0-0.8,0.1-1.4,0.1-1.7h-0.2
			c-0.3,0-0.5,0.1-0.7,0.2c-0.3,0.1-0.6,0.3-0.7,0.6c-0.3,0.8-0.8,1.1-1.4,1.1c-0.6-0.1-0.9-0.6-0.9-1.5c0-0.7,0.2-1.4,0.7-2.2
			c0.5-0.8,1-1.2,1.5-1.2C30.3,487,30.5,487.1,30.6,487.1z M41.9,498.4c0.5,0.2,0.8,0.7,1.1,1.4c0.3,0.9,0.1,1.5-0.5,1.7
			c-0.4,0.1-1.2,0.1-2.5,0h-0.3c-1.1-0.1-2.3-0.2-3.8-0.3c-1.4-0.1-2.4-0.1-2.9-0.1c-0.3,0-0.5,0-0.6,0.1c-0.1,0.1-0.2,0.3-0.2,0.5
			v3.9c0,1.7,0.1,3.1,0.2,4.5l0.1,0.6c0.1,0.9,0.1,1.5,0,1.7c-0.1,0.4-0.6,0.7-1.3,0.9c-1,0.3-1.5,0.2-1.7-0.3
			c-0.1-0.3-0.1-0.9,0.1-1.8l0.1-0.7c0.1-1.7,0.2-3.5,0.2-5.6c0-1.2-0.1-2.5-0.1-3.8l-0.1-0.3c0-0.1,0-0.2-0.1-0.3
			c-0.1-0.3-0.1-0.5-0.1-0.7c0-0.3,0.2-0.6,0.5-1s0.6-0.7,0.9-0.8c0.2,0,0.4,0,0.8,0.1l0.7,0.1c1.4,0,2.6,0,3.8,0
			c1.5,0,2.6-0.1,3.4-0.2C40.7,498.1,41.5,498.2,41.9,498.4z M60.8,491.3c0.1,0.4,0.1,1.1,0,2.2c0,1.3-0.1,3.2-0.1,5.7
			c0,2.9,0,4.9,0,5.9l0.1,0.9c0.1,0.4,0.1,0.7,0.1,0.9c-0.1,0.3-0.4,0.6-0.8,0.9c-0.3,0.3-0.6,0.4-0.9,0.5c-0.2,0-0.4,0-0.8,0
			l-0.6-0.1c-0.3,0-0.6-0.1-1-0.1s-0.7,0-0.9,0c-0.5,0.1-0.9,0.1-1.2,0.2c-0.4,0.1-0.6,0.3-0.7,0.6c-0.3,0.9-0.8,1.3-1.4,1.2
			s-0.9-0.6-0.9-1.6c0-0.5,0.1-1,0.2-1.5c0.1-0.4,0.4-0.8,0.6-1.2c0-0.1,0.1-0.2,0.1-0.3c0-0.2,0.1-0.3,0.1-0.5c0-0.4,0-2,0-4.9
			c-0.1-2.6-0.1-4.5-0.1-5.5c0-0.2,0-0.3-0.1-0.4c0,0-0.1-0.1-0.3-0.2h-1.9c-0.2,0-0.2,0.1-0.3,0.1c0,0.1-0.1,0.2-0.1,0.4
			c0,1.6,0,3.4,0,5.5c0,2.3,0.1,4.2,0.2,5.6v0.6c0.1,0.9,0.1,1.5,0,1.7c-0.1,0.4-0.6,0.7-1.3,1c-1,0.3-1.5,0.2-1.7-0.3
			c-0.1-0.3-0.1-0.9,0.1-1.8l0.1-0.7c0.1-1.7,0.2-4,0.2-7c0-2.3,0-3.9-0.1-5l-0.1-0.6c0-0.3-0.1-0.6,0-0.8c0-0.3,0.2-0.6,0.4-0.9
			c0.4-0.5,0.7-0.7,1-0.8c0.2,0,0.5,0,0.9,0.1l0.6,0.1c0.5,0.1,0.9,0.1,1.3,0.1c0.3,0,0.6,0,0.9,0c0.1-0.2,0.3-0.4,0.5-0.4
			c0.2-0.1,0.5,0,0.9,0.2c0.6,0.2,1,0.6,1.2,1.1c0.1,0.4,0.1,1.1,0.1,2.2c-0.1,1-0.1,2.9-0.1,5.8v4.7c0,0.1,0,0.2,0.1,0.3
			s0.1,0.1,0.3,0.1l2.3,0.1c0.2,0,0.3,0,0.4-0.1c0.1-0.1,0.1-0.2,0.2-0.5c0-0.6,0-2.4,0-5.2c-0.1-2.8-0.1-4.8-0.2-5.8v-0.3
			c-0.1-1.3-0.1-2.1,0-2.5c0.2-0.6,0.7-0.8,1.5-0.5C60.3,490.5,60.6,490.8,60.8,491.3z"/>
		<path class="st2" d="M30.6,448.4c0.1,0,0.2,0,0.4,0.1c0.2,0,0.3,0.1,0.4,0.1c0.2,0,0.3,0.1,0.5,0.1c2.1,0.1,4.6,0.1,7.3,0.1
			c2.8,0,4.6-0.1,5.6-0.2c1.1-0.1,1.9-0.1,2.3,0.1c0.5,0.2,0.9,0.7,1.1,1.5c0.3,1,0.1,1.6-0.5,1.8c-0.4,0.1-1.2,0.2-2.5,0.1
			l-0.5-0.1c-1.2-0.1-3.1-0.2-5.6-0.3c-3-0.1-5.3-0.1-7.1,0c-0.5,0-0.9,0.1-1.2,0.2c-0.4,0.1-0.6,0.3-0.8,0.6
			c-0.3,0.9-0.8,1.3-1.4,1.2c-0.6-0.1-0.9-0.7-0.9-1.6c0-0.8,0.2-1.6,0.7-2.4c0.5-0.9,1-1.3,1.5-1.3
			C30.3,448.3,30.5,448.4,30.6,448.4z M47.3,456.3c0.1,0.4,0.1,1.1,0.1,2.3c-0.1,1.6-0.2,3.8-0.1,6.3c0,2,0,4.2,0.1,6.7v0.6
			c0.1,1.3,0.1,2.1,0,2.4c-0.1,0.5-0.6,0.8-1.3,1.1c-1,0.3-1.6,0.2-1.7-0.3c-0.1-0.3-0.1-1,0.1-2l0.1-0.9c0-0.7,0.1-1.5,0.1-2.6
			c0-1,0.1-2,0.1-3h-0.6c-0.4,0-0.8,0.1-1,0.2c-0.3,0.1-0.5,0.3-0.6,0.6c-0.2,0.5-0.4,0.9-0.8,1.1c-0.3,0.2-0.6,0.2-1,0.1l0.1,0.7
			l0.1,0.9c0.1,0.4,0.1,0.7,0.1,0.9c-0.1,0.3-0.4,0.6-0.8,0.9c-0.3,0.3-0.6,0.4-0.9,0.5c-0.2,0-0.4,0-0.7,0l-0.6-0.1
			c-1-0.1-1.8-0.1-2.5-0.1c-0.9,0-1.8,0-2.5,0c-0.5,0-0.9,0.1-1.2,0.2c-0.4,0.1-0.6,0.3-0.7,0.6c-0.3,0.9-0.8,1.3-1.4,1.2
			c-0.6-0.1-0.9-0.6-0.9-1.6c0-0.5,0.1-1.1,0.2-1.5s0.4-0.8,0.6-1.2c0-0.1,0.1-0.2,0.1-0.4c0-0.2,0.1-0.3,0.1-0.5
			c0-0.5,0-1.6-0.1-3.3c0-1.8-0.1-3.3-0.1-4.3c-0.1-1.4-0.1-2.3,0-2.7c0.2-0.7,0.6-0.9,1.4-0.6c0.6,0.2,1,0.6,1.2,1.1
			c0.1,0.4,0.1,1.1,0.1,2.2c-0.1,1-0.1,2.4-0.1,4.3v3.1c0,0.2,0,0.3,0.1,0.3c0.1,0.1,0.2,0.1,0.4,0.1c0.8,0,1.6,0.1,2.6,0.1H38
			c0.2,0,0.3-0.1,0.4-0.2c0.1-0.1,0.1-0.3,0.1-0.5c0-0.8,0-2-0.1-3.9c0-1.6-0.1-3-0.2-4.2v-0.2c-0.1-1.3-0.1-2.2,0.1-2.6
			c0.2-0.6,0.7-0.8,1.4-0.5c0.6,0.2,1,0.6,1.1,1.1c0.1,0.4,0.1,1.1,0.1,2.2l-0.1,4c0.2-0.4,0.5-0.7,0.7-0.9c0.3-0.2,0.6-0.4,0.9-0.4
			c0.2,0,0.4,0,0.5,0.1l0.4,0.1l0.6,0.1h0.9c0-1,0-2-0.1-2.9c0-0.8-0.1-1.6-0.1-2.5c-0.1-1.4-0.1-2.3,0-2.8c0.2-0.7,0.7-0.9,1.5-0.6
			C46.8,455.4,47.1,455.8,47.3,456.3z M60.8,452.6c0.1,0.4,0.1,1.1,0,2.2c0,1.4-0.1,3.3-0.1,5.7c0,3,0,5,0.1,5.9l0.1,0.9
			c0.1,0.4,0.1,0.7,0.1,0.9c-0.1,0.3-0.4,0.6-0.8,0.9c-0.3,0.3-0.6,0.4-0.9,0.5c-0.2,0-0.4,0-0.7,0l-0.6-0.1c-1-0.1-1.8-0.1-2.3-0.2
			c-0.9,0-1.8,0-2.6,0c-0.5,0.1-1,0.1-1.2,0.2c-0.4,0.1-0.6,0.3-0.7,0.6c-0.3,0.9-0.8,1.3-1.4,1.2s-0.9-0.6-0.9-1.6
			c0-0.9,0.2-1.7,0.6-2.4c0.5-0.8,0.9-1.2,1.5-1.2c0.1,0,0.3,0,0.4,0.1c0.1,0,0.2,0,0.4,0.1s0.3,0.1,0.4,0.1c0.2,0,0.4,0,0.6,0
			c0.9,0,1.8,0.1,2.7,0.1h2.2c0.2,0,0.4,0,0.5-0.1s0.2-0.3,0.2-0.6c0-0.5,0-2.3-0.1-5.1c0-2.8-0.1-4.8-0.2-5.8v-0.3
			c-0.1-1.3-0.1-2.1,0-2.5c0.2-0.6,0.7-0.8,1.5-0.5C60.3,451.7,60.6,452.1,60.8,452.6z"/>
	</g>
	<g class="st1">
		<path class="st2" d="M42.9,412c-2.8,0-5.1-2.4-5.1-5.2c0-2.8,2.3-5.1,5.1-5.1c2.6,0,5,2.3,5,5.1S45.5,412,42.9,412z"/>
	</g>
	<g class="st1">
		<path class="st2" d="M38.2,337.9c0.1,0.3,0.1,0.9,0,1.9l-0.1,0.5c0,0.2-0.1,0.5-0.1,1v1.2c3.1,0.1,6.4,0.1,10.1,0.1
			c3,0,6.3-0.1,9.7-0.2c1.2-0.1,2,0,2.4,0.1c0.5,0.2,0.9,0.7,1.1,1.4c0.2,0.9,0,1.5-0.6,1.7c-0.3,0.1-1.1,0.2-2.3,0.1l-0.6-0.1
			c-4-0.2-8.2-0.3-12.5-0.4c-4.5-0.1-8.8,0-13,0.1c-0.5,0-0.9,0.1-1.2,0.2c-0.4,0.2-0.6,0.4-0.7,0.7c-0.3,0.9-0.8,1.3-1.5,1.2
			c-0.6-0.1-1-0.6-1-1.6c0-0.9,0.2-1.8,0.7-2.5c0.5-0.8,1-1.2,1.6-1.2c0.1,0,0.3,0,0.4,0.1c0.1,0,0.2,0,0.4,0.1
			c0.2,0.1,0.3,0.1,0.4,0.1c0.2,0,0.4,0,0.6,0l2.2,0.1h1.2c0-0.5-0.1-0.9-0.1-1.3c0-0.6-0.1-1.1-0.1-1.5l-0.1-0.8
			c-0.2-0.9-0.2-1.6-0.1-1.9c0.2-0.6,0.8-0.7,1.8-0.3C37.5,337.1,38,337.5,38.2,337.9z M32.4,361.5l0.1,2v0.7c0.1,1.4,0.1,2.3,0,2.6
			c-0.1,0.5-0.6,0.8-1.3,1.1c-0.9,0.3-1.5,0.3-1.7-0.2c-0.1-0.3-0.1-0.9,0-1.8l0.1-1.1c0.2-1.9,0.2-3.8,0.2-5.7
			c0-1.8-0.1-3.5-0.2-5.2c-0.1-1.4-0.1-2.3,0-2.8c0.2-0.7,0.7-0.9,1.5-0.6c0.6,0.2,1,0.6,1.1,1.1c0.1,0.4,0.1,1.2,0.1,2.3l-0.1,3.5
			l0.5,0.1c0.4,0,0.8,0,1.4,0.1c0.5,0.1,1,0.2,1.4,0.3c1.5-0.5,2.6-1.2,3.5-2.1c0.8-0.9,1.3-1.8,1.2-2.7v-0.2
			c-0.1-1.1-0.1-1.9,0-2.2c0.2-0.6,0.7-0.8,1.5-0.5c0.6,0.3,1,0.6,1.2,1.1c0.1,0.4,0.1,1.1,0,2.2c0,1.3-0.5,2.5-1.3,3.6
			c-0.7,0.9-1.6,1.7-2.7,2.4c1.2,0.8,2.1,1.7,2.8,2.6c0.8,1,1.2,2.1,1.2,3.1v0.4c0.2,1,0.2,1.6,0.1,1.9c-0.1,0.4-0.6,0.8-1.3,1
			c-1,0.3-1.6,0.2-1.8-0.3c-0.1-0.3,0-0.9,0.1-1.8l0.1-0.7c0-0.5-0.2-1.1-0.6-1.7c-0.4-0.6-1-1.2-1.8-1.7c-0.8-0.6-1.7-1-2.6-1.3
			c-1-0.3-2-0.4-3-0.2L32.4,361.5z"/>
		<path class="st2" d="M40.5,308.5c1.3,1.5,1.9,3.9,1.9,7c0,3.2-0.6,5.5-1.9,7c-1.1,1.4-2.8,2.1-4.9,2.1c-2.2,0-3.9-0.7-5-2.1
			c-1.3-1.5-1.9-3.9-1.9-7s0.6-5.5,1.9-7c1.1-1.4,2.8-2.1,5-2.1S39.4,307.1,40.5,308.5z M32.3,310.7c-0.8,1.1-1.3,2.7-1.3,4.7
			s0.4,3.6,1.3,4.7c0.8,1,1.9,1.5,3.3,1.5c1.4,0,2.5-0.5,3.3-1.5c0.8-1.1,1.3-2.7,1.3-4.7s-0.4-3.6-1.3-4.7c-0.8-1-1.9-1.6-3.3-1.6
			C34.2,309.2,33.1,309.7,32.3,310.7z M47.9,301.9c0.1,0.4,0.1,1.2,0.1,2.3l-0.1,4.7c1.2,0,2.3,0,3.3-0.1c1.3,0,2.3-0.1,3-0.2
			c0.9,0,1.5,0,1.9,0.2c0.5,0.2,0.8,0.6,1,1.4c0.2,1,0,1.5-0.5,1.7c-0.3,0.1-1,0.2-2,0.1l-0.3-0.1c-0.8-0.1-1.8-0.2-3-0.2
			c-1-0.1-2.1-0.1-3.2-0.1c0,0.7-0.1,2.1-0.1,4.1c0,1.8,0,3.1,0.1,4.1h1.8c1.1,0,1.9,0,2.4-0.1c0.9,0,1.6-0.1,2.1-0.1
			c0.9,0,1.5,0,1.8,0.1c0.5,0.2,0.8,0.7,1,1.4c0.2,0.9,0,1.5-0.4,1.7c-0.3,0.1-0.9,0.2-1.8,0.1l-0.6-0.1c-0.6-0.1-1.5-0.1-2.6-0.2
			c-0.7,0-1.6-0.1-2.9-0.1h-0.7l0.1,3.5v0.6c0.1,1.3,0.1,2,0,2.4c-0.1,0.5-0.6,0.8-1.3,1c-0.9,0.3-1.5,0.3-1.6-0.2
			c-0.1-0.3-0.1-0.9,0-1.8l0.1-1.1c0.2-3.4,0.2-7.3,0.2-11.6c0-4-0.1-7.8-0.2-11.2c-0.1-1.5-0.1-2.4,0-2.8c0.2-0.7,0.7-0.9,1.5-0.6
			C47.4,301.1,47.8,301.4,47.9,301.9z"/>
		<path class="st2" d="M41.8,269.4c0.1,0.4,0.1,1.1,0.1,2.2c-0.1,0.9-0.1,2.8-0.1,5.6c0,2.7,0,4.7,0,5.9L42,284
			c0.1,0.4,0.1,0.7,0.1,0.9c-0.1,0.3-0.4,0.6-0.8,0.9c-0.5,0.4-0.9,0.6-1.3,0.6c-0.3,0-0.6,0-1-0.2c-0.2,0-0.4-0.1-0.8-0.1
			c-0.3,0-0.6,0-0.9,0c-0.4,0.1-0.7,0.1-1,0.2c-0.4,0.2-0.6,0.4-0.6,0.6c-0.3,0.9-0.8,1.3-1.4,1.2s-0.9-0.6-0.9-1.6
			c0-0.5,0.1-1.1,0.2-1.5c0.1-0.4,0.4-0.8,0.6-1.2l0.1-0.3c0-0.2,0.1-0.3,0.1-0.5c0-0.5,0-2.1-0.1-4.9c0-2.9-0.1-4.7-0.1-5.6
			c0-0.1,0-0.2-0.1-0.2c0,0-0.1-0.1-0.2-0.1c-0.1,0-0.4,0-0.9,0c-0.2,0-0.6,0-0.9,0c-0.1,0-0.2,0.1-0.3,0.3c0,0.1-0.1,0.3-0.1,0.4
			v2.1c0,2,0,3.5,0.1,4.5c0,1.8,0.1,3.2,0.1,4.2v0.5c0.1,1,0.1,1.6,0,1.8c-0.1,0.4-0.6,0.7-1.3,1c-1,0.3-1.5,0.2-1.7-0.3
			c-0.1-0.3-0.1-0.9,0.1-1.8l0.1-0.7c0.2-1.7,0.2-4,0.2-7c0-2.2,0-3.8-0.1-5l-0.1-0.6c0-0.3-0.1-0.6,0-0.8c0-0.3,0.2-0.6,0.4-0.9
			c0.4-0.5,0.7-0.7,1-0.8c0.2,0,0.5,0,0.9,0.1l0.6,0.1c0.6,0.1,1.1,0.1,1.4,0.1c0.3,0,0.5,0,0.8,0c0.1-0.2,0.2-0.3,0.4-0.4
			c0.3-0.1,0.6,0,1,0.1c0.6,0.2,1,0.6,1.2,1.1c0.1,0.4,0.1,1.1,0.1,2.2c-0.1,1-0.1,2.9-0.1,5.8v4.6c0,0.2,0,0.3,0.1,0.4
			s0.2,0.1,0.4,0.1s0.5,0.1,0.9,0.1H39c0.2,0,0.3-0.1,0.4-0.2c0.1-0.1,0.1-0.2,0.1-0.3c0-0.7,0-2.5,0-5.2c-0.1-2.9-0.1-4.9-0.2-5.9
			c-0.2-1.3-0.2-2.3,0-2.7c0.2-0.7,0.7-0.9,1.5-0.6C41.3,268.5,41.6,268.9,41.8,269.4z M49.6,264.4c0.1,0.3,0.1,1,0,1.9l-0.1,0.9
			c-0.1,3.1-0.1,6.2-0.1,9.3c0,2,0,5.1,0.1,9.4v2.5v0.5c0.1,1.3,0.1,2.1,0,2.5c-0.1,0.5-0.5,0.8-1.2,1c-0.9,0.4-1.5,0.3-1.6-0.3
			c-0.1-0.3-0.1-1,0.1-2l0.1-0.8c0-0.5,0.1-1.6,0.1-3.4c0-1,0-2.5,0.1-4.6v-2.2h-0.9c-0.5,0-0.9,0.1-1.1,0.2
			c-0.3,0.1-0.6,0.3-0.6,0.6c-0.3,0.9-0.7,1.3-1.3,1.2c-0.6-0.1-0.9-0.6-0.9-1.6c0-0.9,0.2-1.7,0.6-2.5c0.4-0.8,0.9-1.2,1.4-1.2
			c0.1,0,0.3,0,0.4,0.1c0.1,0,0.2,0,0.3,0.1c0.2,0,0.3,0.1,0.4,0.1c0.2,0,0.3,0,0.5,0H47v-1.4c0-2,0-3.4-0.1-4.3
			c0-1.6-0.1-2.7-0.1-3.2l-0.1-1.1c-0.1-1.3-0.1-2.1,0-2.5c0.2-0.6,0.7-0.8,1.6-0.4C49.1,263.5,49.5,263.9,49.6,264.4z"/>
		<path class="st2" d="M39.9,233.1c1.2,1.5,1.8,3.9,1.8,7s-0.6,5.5-1.8,7c-1.1,1.4-2.7,2.1-4.6,2.1c-2,0-3.6-0.7-4.7-2.1
			c-1.2-1.5-1.8-3.9-1.8-7s0.6-5.4,1.8-7c1.1-1.4,2.7-2.1,4.7-2.1C37.2,231,38.8,231.7,39.9,233.1z M32.2,235.4
			c-0.8,1.1-1.2,2.7-1.2,4.7c0,2.1,0.4,3.6,1.2,4.7c0.7,1,1.7,1.5,3,1.5c1.2,0,2.2-0.5,2.9-1.5c0.8-1.1,1.2-2.7,1.2-4.7
			s-0.4-3.6-1.2-4.7c-0.7-1-1.7-1.6-2.9-1.6C34,233.8,33,234.3,32.2,235.4z M45.8,226.6c0.1,0.4,0.1,1.1,0.1,2.3
			c-0.1,0.8-0.1,1.8-0.1,3v6.9l1.9-0.2c0.6,0,1,0,1.2,0.1c0.4,0.2,0.7,0.7,0.8,1.5c0.2,1,0,1.5-0.3,1.8c-0.2,0.1-0.7,0.1-1.4,0
			l-0.3-0.1l-1.9-0.3c0,2.9,0,5.1,0,6.5c0,1,0,1.9,0.1,2.6v0.5c0.1,1.3,0.1,2.1,0,2.5c-0.1,0.5-0.6,0.8-1.3,1.1
			c-1,0.4-1.6,0.2-1.7-0.4c-0.1-0.3-0.1-1,0.1-2l0.1-0.7c0.1-1.9,0.2-5.8,0.2-11.7c0-5.6-0.1-9.3-0.2-11.1c-0.1-1.4-0.1-2.3,0-2.8
			c0.2-0.7,0.7-0.9,1.5-0.6C45.3,225.7,45.7,226.1,45.8,226.6z M60.8,231.7c0.1,0.4,0.1,1.1,0,2.2c0,1.4-0.1,3.3-0.1,5.7
			c0,3,0,5,0.1,5.9l0.1,0.9c0.1,0.4,0.1,0.7,0.1,0.9c-0.1,0.3-0.4,0.6-0.8,0.9c-0.3,0.3-0.6,0.4-0.9,0.5c-0.2,0-0.4,0-0.7,0
			l-0.6-0.1c-1-0.1-1.8-0.1-2.3-0.2c-0.9,0-1.8,0-2.6,0c-0.5,0.1-1,0.1-1.2,0.2c-0.4,0.1-0.6,0.3-0.7,0.6c-0.3,0.9-0.8,1.3-1.4,1.2
			s-0.9-0.6-0.9-1.6c0-0.9,0.2-1.7,0.6-2.4c0.5-0.8,0.9-1.2,1.5-1.2c0.1,0,0.3,0,0.4,0.1c0.1,0,0.2,0,0.4,0.1s0.3,0.1,0.4,0.1
			c0.2,0,0.4,0,0.6,0c0.9,0,1.8,0.1,2.7,0.1h2.2c0.2,0,0.4,0,0.5-0.1s0.2-0.3,0.2-0.6c0-0.5,0-2.3-0.1-5.1c0-2.8-0.1-4.8-0.2-5.8
			v-0.3c-0.1-1.3-0.1-2.1,0-2.5c0.2-0.6,0.7-0.8,1.5-0.5C60.3,230.8,60.6,231.2,60.8,231.7z"/>
	</g>
	<g class="st1">
		<path class="st2" d="M42.9,189c-2.8,0-5.1-2.4-5.1-5.2s2.3-5.1,5.1-5.1c2.6,0,5,2.3,5,5.1C47.9,186.7,45.5,189,42.9,189z"/>
	</g>
	<g class="st1">
		<path class="st2" d="M38.7,120.5c0.3,0,0.6-0.1,0.7,0c0.3,0,0.6,0.2,0.9,0.5c0.4,0.3,0.7,0.6,0.8,0.9c0,0.2,0,0.4-0.1,0.9
			l-0.1,0.9c0,1.6-0.1,3.5-0.1,5.5c0,2.7,0,4.6,0.1,5.5l0.1,0.9c0.1,0.4,0.1,0.7,0.1,0.9c-0.1,0.3-0.4,0.5-0.8,0.9
			c-0.3,0.3-0.6,0.4-0.9,0.5c-0.2,0-0.4,0-0.7,0l-0.6-0.1c-1-0.1-1.8-0.1-2.3-0.2c-1,0-1.8,0-2.6,0c-0.5,0.1-0.9,0.1-1.2,0.2
			c-0.4,0.2-0.6,0.4-0.7,0.6c-0.3,0.9-0.8,1.3-1.4,1.2S29,139,29,138c0-0.5,0.1-1,0.2-1.4s0.3-0.8,0.5-1.2l0.1-1.2
			c0-0.9,0-2.8,0-5.7c0-2.3,0-3.9-0.1-5l-0.1-0.7c-0.1-0.3-0.1-0.6-0.1-0.8c0-0.3,0.2-0.6,0.4-0.9c0.4-0.5,0.7-0.7,1-0.8
			c0.2,0,0.5,0,0.9,0.1l0.7,0.1c0.7,0.1,1.6,0.2,2.6,0.2s2-0.1,2.9-0.2L38.7,120.5z M32.3,123.6c-0.1,0.1-0.1,0.3-0.1,0.6
			c0,1,0,2.7-0.1,5.2c0,2.7,0,4.3,0,4.7c0,0.3,0.1,0.5,0.2,0.5c0.1,0.1,0.3,0.1,0.7,0.1l4.8,0.1c0.2,0,0.4,0,0.5-0.1
			s0.2-0.2,0.2-0.4c0-0.5,0-2.2,0-5c0-2.7,0-4.4,0-5.2c0-0.3,0-0.5-0.1-0.5c-0.1-0.1-0.3-0.2-0.5-0.2h-5.2
			C32.5,123.4,32.3,123.4,32.3,123.6z M45.8,115.7c0.1,0.4,0.1,1.1,0.1,2.3c-0.1,0.8-0.1,1.8-0.1,3v6.9l1.9-0.2c0.6,0,1,0,1.2,0.1
			c0.4,0.2,0.7,0.7,0.8,1.5c0.2,1,0,1.5-0.3,1.8c-0.2,0.1-0.7,0.1-1.4,0l-0.3-0.1l-1.9-0.3c0,2.9,0,5.1,0,6.5c0,1,0,1.9,0.1,2.6v0.5
			c0.1,1.3,0.1,2.1,0,2.5c-0.1,0.5-0.6,0.8-1.3,1.1c-1,0.4-1.6,0.2-1.7-0.4c-0.1-0.3-0.1-1,0.1-2l0.1-0.7c0.1-1.9,0.2-5.8,0.2-11.7
			c0-5.6-0.1-9.3-0.2-11.1c-0.1-1.4-0.1-2.3,0-2.8c0.2-0.7,0.7-0.9,1.5-0.6C45.3,114.8,45.7,115.2,45.8,115.7z M60.8,120.8
			c0.1,0.4,0.1,1.1,0,2.2c0,1.4-0.1,3.3-0.1,5.7c0,3,0,5,0.1,5.9l0.1,0.9c0.1,0.4,0.1,0.7,0.1,0.9c-0.1,0.3-0.4,0.6-0.8,0.9
			c-0.3,0.3-0.6,0.4-0.9,0.5c-0.2,0-0.4,0-0.7,0l-0.6-0.1c-1-0.1-1.8-0.1-2.3-0.2c-0.9,0-1.8,0-2.6,0c-0.5,0.1-1,0.1-1.2,0.2
			c-0.4,0.1-0.6,0.3-0.7,0.6c-0.3,0.9-0.8,1.3-1.4,1.2s-0.9-0.6-0.9-1.6c0-0.9,0.2-1.7,0.6-2.4c0.5-0.8,0.9-1.2,1.5-1.2
			c0.1,0,0.3,0,0.4,0.1c0.1,0,0.2,0,0.4,0.1s0.3,0.1,0.4,0.1c0.2,0,0.4,0,0.6,0c0.9,0,1.8,0.1,2.7,0.1h2.2c0.2,0,0.4,0,0.5-0.1
			s0.2-0.3,0.2-0.6c0-0.5,0-2.3-0.1-5.1c0-2.8-0.1-4.8-0.2-5.8v-0.3c-0.1-1.3-0.1-2.1,0-2.5c0.2-0.6,0.7-0.8,1.5-0.5
			C60.3,119.9,60.6,120.3,60.8,120.8z"/>
		<path class="st2" d="M30.6,77.9c0.1,0,0.2,0,0.4,0.1l0.4,0.1c0.2,0,0.4,0,0.6,0c4.4,0.1,8.8,0.2,13.3,0.2c4.4,0,8.6-0.1,12.5-0.2
			c1.2,0,2,0,2.4,0.1c0.5,0.2,0.9,0.6,1.1,1.3c0.2,0.8,0,1.3-0.5,1.5c-0.3,0.1-1.1,0.2-2.2,0.1h-0.7c-3.2-0.2-6.5-0.3-9.8-0.3
			c-3.6-0.1-7-0.1-10.4-0.1c0,0.4,0,1,0,1.6c0,0.7,0.1,1.4,0.1,2v0.8c0.1,1,0.1,1.7,0,2c-0.1,0.4-0.6,0.7-1.3,1
			c-1,0.3-1.6,0.2-1.8-0.3c-0.1-0.3-0.1-0.9,0-1.9l0.2-1.1c0-0.9,0.1-1.7,0.1-2.5c0-0.7,0.1-1.3,0.1-1.7L32,80.7
			c-0.4,0-0.8,0.1-1,0.2c-0.4,0.2-0.6,0.4-0.7,0.6c-0.3,0.8-0.8,1.1-1.5,1.1c-0.6-0.1-1-0.6-1-1.5c0-0.8,0.2-1.6,0.7-2.3
			c0.5-0.7,1-1.1,1.6-1.1C30.3,77.9,30.5,77.9,30.6,77.9z M38.2,92.6c1.1-1,1.6-2.1,1.6-3.2V89c-0.1-1.1,0-1.8,0.1-2.1
			c0.2-0.6,0.7-0.7,1.4-0.4c0.6,0.2,1,0.6,1.2,1.1c0.1,0.4,0.1,1.1,0.1,2.2c-0.1,1.5-0.6,2.8-1.6,4c-0.8,0.9-1.8,1.7-3.1,2.5
			c1.3,0.8,2.4,1.7,3.2,2.7c0.9,1.1,1.4,2.3,1.5,3.5l0.1,0.6c0.1,0.9,0.1,1.5,0,1.8c-0.1,0.4-0.6,0.7-1.3,1c-1,0.3-1.5,0.3-1.7-0.3
			c-0.1-0.3-0.1-0.9,0.1-1.8l0.1-0.8c0-1.3-0.8-2.6-2.6-3.9c-1.7-1.2-3.2-1.8-4.6-1.7c-0.5,0-1,0.1-1.2,0.2
			c-0.4,0.1-0.6,0.3-0.7,0.6c-0.3,0.9-0.8,1.3-1.4,1.2c-0.6-0.1-0.9-0.6-0.9-1.6c0-0.9,0.2-1.7,0.6-2.5s0.9-1.2,1.5-1.2
			c0.1,0,0.3,0,0.4,0.1c0.1,0,0.2,0,0.3,0.1l0.4,0.1c0.2,0,0.4,0,0.6,0c0.4,0,0.8,0,1.2,0.1c0.4,0.1,0.8,0.2,1.2,0.3
			C36.1,94.2,37.3,93.5,38.2,92.6z"/>
	</g>
	<g class="st1">
		<path class="st2" d="M42.9,39.5c-2.8,0-5.1-2.4-5.1-5.2s2.3-5.1,5.1-5.1c2.6,0,5,2.3,5,5.1S45.5,39.5,42.9,39.5z"/>
	</g>
</g>
</svg>
