<?xml version="1.0" encoding="utf-8"?>
<!-- Generator: Adobe Illustrator 27.0.0, SVG Export Plug-In . SVG Version: 6.00 Build 0)  -->
<svg version="1.1" id="_레이어_2" xmlns="http://www.w3.org/2000/svg" xmlns:xlink="http://www.w3.org/1999/xlink" x="0px"
	 y="0px" viewBox="0 0 83 989.3" style="enable-background:new 0 0 83 989.3;" xml:space="preserve">
<style type="text/css">
	.st0{fill:#231815;}
	.st1{enable-background:new    ;}
	.st2{fill:#FFFFFF;}
	.st3{fill:#FFFFFF;stroke:#FFFFFF;stroke-width:0.25;stroke-miterlimit:10;}
</style>
<g id="_레이어_1-2">
	<rect x="0" class="st0" width="83" height="989.3"/>
	<g class="st1">
		<path class="st2" d="M43.1,21.7c2.8,0,5.1,2.4,5.1,5.2c0,2.8-2.3,5.1-5.1,5.1c-2.6,0-5-2.3-5-5.1C38.1,24.1,40.5,21.7,43.1,21.7z"
			/>
		<path class="st3" d="M32.8,75.3v-6.6h1.7v2.9l5.9-2v-8l-5.9-2.1v2.9h-1.7v-6.6h1.7v1.9l17.1,6.4c0.1-1,0.2-2.1,0.5-3.2l1.7,0.4
			c-0.5,2.2-0.5,3.5-0.5,5.8l-18.9,6.4v1.9H32.8z M51.7,65.8v-0.1l-9.5-3.4V69L51.7,65.8z"/>
		<path class="st2" d="M43.1,98.6c2.8,0,5.1,2.4,5.1,5.2c0,2.8-2.3,5.1-5.1,5.1c-2.6,0-5-2.3-5-5.1C38.1,101,40.5,98.6,43.1,98.6z"
			/>
		<path class="st3" d="M53.4,132.8v17.6l-10,0.8l-0.2-1.7l8.5-0.7v-10l-7.6,0v5.3h3.8v1.7h-9.3v-1.7h3.7v-5.3h-7.7v4.3h-1.7v-10.4
			h1.7v4.3h17.1v-4.3H53.4z"/>
		<path class="st3" d="M32.8,169v-14.6h1.7v6.5h17.1v-6.5h1.7v8.2H34.6v6.4H32.8z"/>
		<path class="st3" d="M40.3,172.5c4.4,0,8,3.7,8,8.3c0,4.5-3.6,8.3-8,8.3c-4.4,0-8-3.7-8-8.3C32.4,176.2,35.9,172.5,40.3,172.5z
			 M40.3,187.3c3.4,0,6.2-3,6.2-6.6s-2.8-6.5-6.2-6.5s-6.2,2.9-6.2,6.5S36.9,187.3,40.3,187.3z"/>
		<path class="st3" d="M46.1,206.6v-2.5h1.7v5.8h-1.7v-1.4l-13.3-3.1v-2l10.1-3.3l-10.1-3.3v-2l13.3-3.1v-1.4h1.7v5.8h-1.7v-2.5
			l-10.5,2.4l10.5,3.4v1.7l-10.5,3.4L46.1,206.6z"/>
		<path class="st3" d="M32.8,226.8v-14.6h1.7v6.7h11.5v-6.7h1.7v8.4H34.6v6.2H32.8z M51.1,217.6c0.9,0,1.8,0.8,1.8,1.8
			s-0.8,1.8-1.8,1.8c-0.9,0-1.8-0.8-1.8-1.8S50.2,217.6,51.1,217.6z"/>
		<path class="st3" d="M48.3,232.5c0,1.3-0.6,2.5-3.2,2.4h-1c2.7,2.4,4.3,3.7,4.3,5.9c0,1.8-0.9,4.5-4.4,4.5h-9.3v2.7h-1.7v-7.1h1.7
			v2.7h9.3c2.2,0,2.7-1.6,2.7-2.8c0-1.9-1.7-2.8-4.9-5.9h-7.1v2.7h-1.7v-7.1h1.7v2.7h10.8c0.9,0,1.2-0.2,1.2-0.6
			c0-0.4-0.4-0.7-1.9-1.7l0.8-1.5l0.6,0.4C47.6,230.7,48.3,231.4,48.3,232.5z"/>
		<path class="st3" d="M34.1,250.1c0.6-1.3,1.7-2,3.1-2c1.9,0,3.2,1.7,3.9,3.9c0.5-0.1,1-0.2,1.5-0.2c2.8,0,5.6,2.3,5.6,5.7
			c0,1.5-0.5,2.7-1.3,3.6C47.5,262,48,263,48,264c0,2-1.5,3.6-3.5,3.6c-1,0-2-0.8-2-1.8c0-0.8,0.5-1.8,1.5-1.8
			c0.9,0,1.6,0.4,1.6,1.4c0.9-0.8,0.7-2.1,0-3.1c-0.9,0.5-1.9,0.7-3.1,0.7c-2.8,0-5.4-2.2-5.4-5.4c0-2.1,1-3.8,2.5-4.8
			c-0.6-1.6-1-2.9-2.4-2.9c-1.2,0-2.3,1.3-2.3,4.6v7.5c0,3.1-1.4,4.5-3.9,4.5c-2.3,0-4.3-1.7-4.3-6v-6.8c0-3.7,1.9-5.6,4.2-5.6
			C32.4,248.1,33.5,248.8,34.1,250.1z M28.5,253.9v6.2c0,3.7,1.2,4.6,2.4,4.6c1.4,0,2.3-0.7,2.3-2.7l0-9.2c0-2-1-2.9-2.2-2.9
			C29.6,249.9,28.5,250.9,28.5,253.9z M38.8,257.6c0,2.3,1.8,3.6,3.8,3.6c2,0,3.9-1.3,3.9-3.6c0-2.6-1.9-3.9-3.9-3.9
			C40.7,253.7,38.8,255.1,38.8,257.6z"/>
		<path class="st2" d="M43.1,290.7c2.8,0,5.1,2.4,5.1,5.2c0,2.8-2.3,5.1-5.1,5.1c-2.6,0-5-2.3-5-5.1
			C38.1,293.1,40.5,290.7,43.1,290.7z"/>
		<path class="st3" d="M52.2,334.4c0.1-4.3-4-7.5-9.2-7.5c-5.5,0-8.8,3.8-8.8,7.6c0,3.9,3.1,6.8,7.3,8.3l-0.6,1.6
			c-5.2-1.9-8.4-5-8.4-9.9c0-5.1,4.1-9.3,10.6-9.3s10.9,3.9,10.9,9.3c0,4.3-3.5,6.9-6.9,6.9c-1.4,0-2.5-0.8-2.5-2
			c0-1.2,0.9-2.1,2-2.1c1.5,0,2,1.7,1.6,2.3C50.3,339.5,52.1,336.8,52.2,334.4z"/>
		<path class="st3" d="M40.3,345.4c4.4,0,8,3.7,8,8.3c0,4.5-3.6,8.3-8,8.3c-4.4,0-8-3.7-8-8.3C32.4,349.1,35.9,345.4,40.3,345.4z
			 M40.3,360.2c3.4,0,6.2-3,6.2-6.6s-2.8-6.5-6.2-6.5s-6.2,2.9-6.2,6.5S36.9,360.2,40.3,360.2z"/>
		<path class="st3" d="M48.3,367c0,1.3-0.6,2.5-3.2,2.4h-1c2.7,2.4,4.3,3.7,4.3,5.9c0,1.8-0.9,4.5-4.4,4.5h-9.3v2.7h-1.7v-7.1h1.7
			v2.7h9.3c2.2,0,2.7-1.6,2.7-2.8c0-1.9-1.7-2.8-4.9-5.9h-7.1v2.7h-1.7v-7.1h1.7v2.7h10.8c0.9,0,1.2-0.2,1.2-0.6
			c0-0.4-0.4-0.7-1.9-1.7l0.8-1.5l0.6,0.4C47.6,365.2,48.3,365.8,48.3,367z"/>
		<path class="st3" d="M48.3,386.2c0,1.3-0.6,2.5-3.2,2.4h-1c2.7,2.4,4.3,3.7,4.3,5.9c0,1.8-0.9,4.5-4.4,4.5h-9.3v2.7h-1.7v-7.1h1.7
			v2.7h9.3c2.2,0,2.7-1.6,2.7-2.8c0-1.9-1.7-2.8-4.9-5.9h-7.1v2.7h-1.7v-7.1h1.7v2.7h10.8c0.9,0,1.2-0.2,1.2-0.6
			c0-0.4-0.4-0.7-1.9-1.7l0.8-1.5l0.6,0.4C47.6,384.4,48.3,385.1,48.3,386.2z"/>
		<path class="st3" d="M48.3,411c0,3.8-2.8,7.4-7.2,7.4h-0.7v-13.4c-3.4,0-6.3,2.7-6.3,6c0,2.9,1.4,5.4,4.3,6.9l-0.9,1.5
			c-3.9-2.2-5.2-5.2-5.2-8.4c0-4.1,3.5-7.8,8.2-7.8C46,403.2,48.3,406.7,48.3,411z M46.5,411c0-3.5-1.7-5.6-4.4-5.9v11.5
			C44.4,416.3,46.5,413.9,46.5,411z"/>
		<path class="st3" d="M40.1,437.7l-0.2,1.7c-4.8-0.3-7.5-4.4-7.5-8.7c0-5.5,3.8-8.6,8.1-8.6c4.7,0,7.8,3,7.8,7.8
			c0,3.2-1.7,6.6-4.8,6.6c-1.6,0-2.5-0.9-2.5-2.1c0-1.2,0.8-2,1.9-2c1,0,1.8,1.3,1.3,2.3c1.4-0.5,2.4-2.1,2.4-4.8c0-3.7-2.3-6-6.1-6
			c-3.6,0-6.3,2.8-6.3,6.8C34.2,434.4,36.6,437.4,40.1,437.7z"/>
		<path class="st3" d="M47.9,445.1h5.6v1.7h-5.6v9.8h-1.7v-9.8h-9.3c-2.7,0-2.7,1.6-2.7,2.8c0,2,1.6,4.1,3.9,8l-1.4,0.9
			c-2.7-4.5-4.3-6.6-4.3-8.9c0-1.7,0.6-4.5,4-4.5h9.7v-4.5h1.7V445.1z"/>
		<path class="st3" d="M48.3,468.6c0,3.8-2.8,7.4-7.2,7.4h-0.7v-13.4c-3.4,0-6.3,2.7-6.3,6c0,2.9,1.4,5.4,4.3,6.9l-0.9,1.5
			c-3.9-2.2-5.2-5.2-5.2-8.4c0-4.1,3.5-7.8,8.2-7.8C46,460.8,48.3,464.3,48.3,468.6z M46.5,468.6c0-3.5-1.7-5.6-4.4-5.9v11.5
			C44.4,473.9,46.5,471.5,46.5,468.6z"/>
		<path class="st3" d="M51.7,488.5h1.7v5.3l-17.9,0c-0.9,0-1.4,0.2-1.4,0.6c0,0.6,0.6,0.9,3.2,2l-0.7,1.5c-3.4-1.3-4.2-2.1-4.2-3.5
			c0-1.3,0.8-2.4,3.4-2.3c-1.9-1.4-3.4-3.5-3.4-5.9c0-4.3,3.6-7.2,8-7.2c4.4,0,7.9,2.9,7.9,7.2c0,2.4-1.5,4.5-3.4,5.9h6.8V488.5z
			 M46.6,486.2c0-3.3-2.7-5.4-6.2-5.4c-3.6,0-6.3,2.2-6.3,5.4c0,2.3,2,3.9,4.2,5.9h4C44.6,490.2,46.6,488.7,46.6,486.2z"/>
		<path class="st2" d="M43.1,521.2c2.8,0,5.1,2.4,5.1,5.2c0,2.8-2.3,5.1-5.1,5.1c-2.6,0-5-2.3-5-5.1
			C38.1,523.6,40.5,521.2,43.1,521.2z"/>
		<path class="st3" d="M42.9,574.7l-10-0.8v-17.7h1.7v3.6h17.1v-3.6h1.7v8.9h-1.7v-3.6H34.6v10.8l8.5,0.7L42.9,574.7z"/>
		<path class="st3" d="M32.8,591.8v-14.6h1.7v6.7h11.5v-6.7h1.7v8.4H34.6v6.2H32.8z M51.1,582.6c0.9,0,1.8,0.8,1.8,1.8
			c0,1-0.8,1.8-1.8,1.8c-0.9,0-1.8-0.8-1.8-1.8C49.3,583.4,50.2,582.6,51.1,582.6z"/>
		<path class="st3" d="M53.4,599.1h-8.6c1.9,1.4,3.4,3.5,3.4,5.9c0,4.3-3.5,7.2-7.9,7.2c-4.4,0-8-2.9-8-7.2c0-2.4,1.5-4.5,3.4-5.9
			h-3v-1.7h18.9v-3.1h1.7V599.1z M34.1,605c0,3.3,2.7,5.5,6.3,5.4c3.5,0,6.2-2.1,6.2-5.4c0-2.4-2-4-4.2-5.9h-4
			C36.1,601,34.1,602.7,34.1,605z"/>
		<path class="st3" d="M48.3,622.3c0,3.8-2.8,7.4-7.2,7.4h-0.7v-13.4c-3.4,0-6.3,2.7-6.3,6c0,2.9,1.4,5.4,4.3,6.9l-0.9,1.5
			c-3.9-2.2-5.2-5.2-5.2-8.4c0-4.1,3.5-7.8,8.2-7.8C46,614.5,48.3,618,48.3,622.3z M46.5,622.3c0-3.5-1.7-5.6-4.4-5.9v11.5
			C44.4,627.6,46.5,625.2,46.5,622.3z"/>
		<path class="st3" d="M48.3,636.2c0,1.3-0.6,2.5-3.2,2.4h-1c2.8,2.5,4.2,4,4.2,6.6c0,3-1.9,5-5.2,5c-1.9,0-2.8-1.2-2.8-2.4
			c0-1,0.7-1.9,1.8-1.9c1,0,2,1.1,1.5,2.5c1.6-0.1,3-1,3-3.1c0-1.6-1.2-3.5-5-6.6h-7v6.8h-1.7V634h1.7v2.8h10.8
			c0.9,0,1.2-0.2,1.2-0.6c0-0.4-0.4-0.7-1.9-1.7l0.8-1.5l0.6,0.4C47.6,634.4,48.3,635,48.3,636.2z"/>
		<path class="st3" d="M32.4,667c0-1.3,0.9-2.4,3.1-2.3c-2.1-2.6-3.1-4.6-3.1-7.5c0-2.7,1.3-5,4.5-5c3.4,0,4.8,3.6,4.9,7.3
			c0.1,4.2,0.5,5.2,2.1,5.2c2.3,0,2.8-3.5,2.8-5.1c0-1.6-0.3-3.6-1.2-4.2c0.3,0.6-0.4,1.7-1.3,1.7c-1,0-1.7-0.7-1.7-1.8
			s0.9-1.8,2.2-1.8c2.8,0,3.8,3.8,3.8,6.1c0,2.8-1.1,6.9-4.5,6.9h-8.2c-0.9,0-1.4,0.2-1.4,0.6c0,0.6,0.6,0.9,3.2,2l-0.7,1.5
			C33.2,669.2,32.4,668.4,32.4,667z M40,659.4c0-3-0.9-5.6-3-5.6c-1.9,0-2.8,1.2-2.8,3.3c0,2.7,1.1,4.6,3.6,7.5H41
			C40.5,663.6,40,662.5,40,659.4z"/>
		<path class="st3" d="M47.9,675.7h5.6v1.7h-5.6v9.8h-1.7v-9.8h-9.3c-2.7,0-2.7,1.6-2.7,2.8c0,2,1.6,4.1,3.9,8l-1.4,0.9
			c-2.7-4.5-4.3-6.6-4.3-8.9c0-1.7,0.6-4.5,4-4.5h9.7v-4.5h1.7V675.7z"/>
		<path class="st3" d="M48.3,699.1c0,3.8-2.8,7.4-7.2,7.4h-0.7v-13.4c-3.4,0-6.3,2.7-6.3,6c0,2.9,1.4,5.4,4.3,6.9l-0.9,1.5
			c-3.9-2.2-5.2-5.2-5.2-8.4c0-4.1,3.5-7.8,8.2-7.8C46,691.3,48.3,694.9,48.3,699.1z M46.5,699.1c0-3.5-1.7-5.6-4.4-5.9v11.5
			C44.4,704.4,46.5,702,46.5,699.1z"/>
		<path class="st3" d="M51.7,719.1h1.7v5.3l-17.9,0c-0.9,0-1.4,0.2-1.4,0.6c0,0.6,0.6,0.9,3.2,2l-0.7,1.5c-3.4-1.3-4.2-2.1-4.2-3.5
			c0-1.3,0.8-2.4,3.4-2.3c-1.9-1.4-3.4-3.5-3.4-5.9c0-4.3,3.6-7.2,8-7.2c4.4,0,7.9,2.9,7.9,7.2c0,2.4-1.5,4.5-3.4,5.9h6.8V719.1z
			 M46.6,716.8c0-3.3-2.7-5.4-6.2-5.4c-3.6,0-6.3,2.2-6.3,5.4c0,2.3,2,3.9,4.2,5.9h4C44.6,720.8,46.6,719.2,46.6,716.8z"/>
		<path class="st2" d="M43.1,751.8c2.8,0,5.1,2.4,5.1,5.2c0,2.8-2.3,5.1-5.1,5.1c-2.6,0-5-2.3-5-5.1
			C38.1,754.1,40.5,751.8,43.1,751.8z"/>
		<path class="st3" d="M52.2,785.6l1.7,0.4c-0.3,1.5-0.5,2.6-0.5,3.8c0,1.6,0.1,4,0.1,5.6c0,5.1-4,9.7-10.5,9.7
			c-6.5,0-10.3-4.6-10.3-9.7l0.1-5.5v-3.5h1.7v2.9h17.1C51.8,788.2,52,786.8,52.2,785.6z M34.5,795.4c0,4.1,3,7.9,8.5,7.9
			c5.5,0,8.8-3.8,8.8-7.9c0-1.8-0.1-4.3-0.1-4.3H34.6C34.6,791.1,34.5,793.8,34.5,795.4z"/>
		<path class="st3" d="M40.3,806.5c4.4,0,8,3.7,8,8.3c0,4.5-3.6,8.3-8,8.3c-4.4,0-8-3.7-8-8.3C32.4,810.2,35.9,806.5,40.3,806.5z
			 M40.3,821.3c3.4,0,6.2-3,6.2-6.6s-2.8-6.5-6.2-6.5s-6.2,2.9-6.2,6.5S36.9,821.3,40.3,821.3z"/>
		<path class="st3" d="M40.1,841.2l-0.2,1.7c-4.8-0.3-7.5-4.4-7.5-8.7c0-5.5,3.8-8.6,8.1-8.6c4.7,0,7.8,3,7.8,7.8
			c0,3.2-1.7,6.6-4.8,6.6c-1.6,0-2.5-0.9-2.5-2.1c0-1.2,0.8-2,1.9-2c1,0,1.8,1.3,1.3,2.3c1.4-0.5,2.4-2.1,2.4-4.8c0-3.7-2.3-6-6.1-6
			c-3.6,0-6.3,2.8-6.3,6.8C34.2,837.8,36.6,840.9,40.1,841.2z"/>
		<path class="st3" d="M32.9,862.1l0-4.6h3.8c-2.7-2.4-4.3-3.7-4.3-5.9c0-1.8,0.9-4.5,4.4-4.5h8.5c0.9,0,1.2-0.2,1.2-0.6
			c0-0.4-0.4-0.7-1.9-1.7l0.8-1.5l0.6,0.4c1.5,1,2.2,1.8,2.2,2.9c0,1.3-0.6,2.4-3.2,2.3h-8.3c-2.2,0-2.7,1.6-2.7,2.8
			c0,1.9,1.7,2.8,4.9,5.9h6.3c0.9,0,1.2-0.2,1.2-0.6c0-0.4-0.4-0.7-1.9-1.7l0.8-1.5l0.6,0.4c1.5,1,2.2,1.8,2.2,2.9
			c0,1.3-0.6,2.4-3.2,2.3H34.6l0,2.8H32.9z"/>
		<path class="st3" d="M48.3,865.4c0,1.1-0.5,2.1-2.3,2.2c1.9,1.7,2.3,2.7,2.3,3.7c0,1.4-0.6,2.6-2.7,2.8c2.2,2,2.7,2.9,2.7,4.1
			c0,1.6-0.8,2.9-3.7,2.9H34.6v1.4h-1.7V877h1.7v2.4h9.9c1.6,0,2-0.5,2-1.4c0-1-0.7-1.7-3.3-3.7H32.8v-1.7h11.6c1.6,0,2-0.5,2-1.4
			c0-0.9-0.6-1.6-2.9-3.4h-9v2.4h-1.7v-6.6h1.7v2.4h10.8c0.9,0,1.2-0.2,1.2-0.6c0-0.4-0.4-0.7-1.9-1.7l0.8-1.5l0.6,0.4
			C47.6,863.5,48.3,864.2,48.3,865.4z"/>
		<path class="st3" d="M48.3,891.2c0,3.8-2.8,7.4-7.2,7.4h-0.7v-13.4c-3.4,0-6.3,2.7-6.3,6c0,2.9,1.4,5.4,4.3,6.9l-0.9,1.5
			c-3.9-2.2-5.2-5.2-5.2-8.4c0-4.1,3.5-7.8,8.2-7.8C46,883.5,48.3,887,48.3,891.2z M46.5,891.2c0-3.5-1.7-5.6-4.4-5.9v11.5
			C44.4,896.6,46.5,894.1,46.5,891.2z"/>
		<path class="st3" d="M48.3,904.9c0,1.3-0.6,2.5-3.2,2.4h-1c2.7,2.4,4.3,3.7,4.3,5.9c0,1.8-0.9,4.5-4.4,4.5h-9.3v2.7h-1.7v-7.1h1.7
			v2.7h9.3c2.2,0,2.7-1.6,2.7-2.8c0-1.9-1.7-2.8-4.9-5.9h-7.1v2.7h-1.7v-7.1h1.7v2.7h10.8c0.9,0,1.2-0.2,1.2-0.6
			c0-0.4-0.4-0.7-1.9-1.7l0.8-1.5l0.6,0.4C47.6,903.1,48.3,903.8,48.3,904.9z"/>
		<path class="st3" d="M47.9,925.4h5.6v1.7h-5.6v9.8h-1.7v-9.8h-9.3c-2.7,0-2.7,1.6-2.7,2.8c0,2,1.6,4.1,3.9,8l-1.4,0.9
			c-2.7-4.5-4.3-6.6-4.3-8.9c0-1.7,0.6-4.5,4-4.5h9.7v-4.5h1.7V925.4z"/>
		<path class="st2" d="M43.1,963.1c2.8,0,5.1,2.4,5.1,5.2c0,2.8-2.3,5.1-5.1,5.1c-2.6,0-5-2.3-5-5.1
			C38.1,965.5,40.5,963.1,43.1,963.1z"/>
	</g>
</g>
</svg>
