<?xml version="1.0" encoding="utf-8"?>
<!-- Generator: Adobe Illustrator 27.0.0, SVG Export Plug-In . SVG Version: 6.00 Build 0)  -->
<svg version="1.1" id="_레이어_2" xmlns="http://www.w3.org/2000/svg" xmlns:xlink="http://www.w3.org/1999/xlink" x="0px"
	 y="0px" viewBox="0 0 920.8 95.3" style="enable-background:new 0 0 920.8 95.3;" xml:space="preserve">
<style type="text/css">
	.st0{fill:#231815;}
	.st1{fill:#888888;}
	.st2{fill:#FFFFFF;stroke:#FFFFFF;stroke-width:2;stroke-miterlimit:10;}
</style>
<g>
	<rect x="0.3" class="st0" width="920.8" height="95.4"/>
	<g>
		<g>
			<rect y="47.7" class="st1" width="115.1" height="23.9"/>
			<rect x="115.1" y="71.6" class="st1" width="115.1" height="23.9"/>
		</g>
		<g>
			<rect x="230.2" y="47.7" class="st1" width="115.1" height="23.9"/>
			<rect x="345.3" y="71.6" class="st1" width="115.1" height="23.9"/>
		</g>
		<g>
			<rect y="0.3" class="st1" width="115.1" height="23.9"/>
			<rect x="115.1" y="24" class="st1" width="115.1" height="23.9"/>
		</g>
		<g>
			<rect x="230.2" y="0.3" class="st1" width="115.1" height="23.9"/>
			<rect x="345.3" y="24" class="st1" width="115.1" height="23.9"/>
		</g>
	</g>
	<g>
		<g>
			<rect x="460.4" y="47.7" class="st1" width="115.1" height="23.9"/>
			<rect x="575.5" y="71.6" class="st1" width="115.1" height="23.9"/>
		</g>
		<g>
			<rect x="690.6" y="47.7" class="st1" width="115.1" height="23.9"/>
			<rect x="805.7" y="71.6" class="st1" width="115.1" height="23.9"/>
		</g>
		<g>
			<rect x="460.4" y="0.3" class="st1" width="115.1" height="23.9"/>
			<rect x="575.5" y="24" class="st1" width="115.1" height="23.9"/>
		</g>
		<g>
			<rect x="690.6" y="0.3" class="st1" width="115.1" height="23.9"/>
			<rect x="805.7" y="24" class="st1" width="115.1" height="23.9"/>
		</g>
	</g>
	<g>
		<path class="st2" d="M35.8,24.1h40.3l1.9,23l-3.8,0.4l-1.5-19.4h-23v17.5h12.2v-8.7h4v21.2h-4v-8.5H49.7v17.7h9.9v4H35.8v-4h9.9
			V28.1h-9.9C35.8,28.1,35.8,24.1,35.8,24.1z"/>
		<path class="st2" d="M88.7,35.9c2.9,0,5.7,1.4,5.4,7.4v2.2c5.8-6.4,9.1-9.6,15.2-9.6c6.9,0,11.4,4.2,11.4,11.9
			c0,4.2-2.7,6.5-5.5,6.5c-2.2,0-4.3-1.7-4.3-4.2c0-2.4,2.5-4.6,5.7-3.4c-0.2-3.7-2.4-6.9-7.2-6.8c-3.7,0.1-8.1,2.8-15.2,11.4v16.1
			h15.5v4h-26v-4h6.5V42.7c0-2.2-0.5-2.8-1.4-2.8s-1.5,1-3.9,4.3l-3.4-1.9l0.9-1.3C84.6,37.5,86.1,35.9,88.7,35.9z"/>
		<path class="st2" d="M144.9,35.9c8.7,0,17,6.3,17,16.4v1.6h-30.8c0,7.8,6.1,14.3,13.8,14.3c6.7,0,12.4-3.2,15.8-9.9l3.4,2
			c-5,9-12,11.9-19.2,11.9c-9.4,0-17.8-8-17.8-18.8C127.1,41.1,135.2,35.9,144.9,35.9z M144.9,39.9c-8.1,0-12.8,4-13.6,10h26.3
			C157.1,44.7,151.6,39.9,144.9,39.9z"/>
		<path class="st2" d="M188.9,35.9c8.7,0,17,6.3,17,16.4v1.6h-30.8c0,7.8,6.1,14.3,13.8,14.3c6.7,0,12.4-3.2,15.8-9.9l3.4,2
			c-5,9-12,11.9-19.2,11.9c-9.4,0-17.8-8-17.8-18.8C171.1,41.1,179.2,35.9,188.9,35.9z M188.9,39.9c-8.1,0-12.8,4-13.6,10h26.3
			C201.1,44.7,195.6,39.9,188.9,39.9z"/>
		<path class="st2" d="M242,26.9l1-3.8c3.4,0.6,5.9,1,8.8,1c3.6,0,9.2-0.2,12.8-0.2c11.6,0,22.2,9.2,22.2,24.1s-10.6,23.7-22.2,23.5
			L252,71.3h-8.1v-4h6.7V28C247.9,27.9,244.8,27.5,242,26.9z M264.5,67.5c9.4,0,18.1-6.9,18.2-19.5s-8.7-20.1-18.2-20.1
			c-4.1,0-9.9,0.2-9.9,0.2v39.2C254.6,67.3,260.6,67.5,264.5,67.5z"/>
		<path class="st2" d="M289.8,54.1c0-10.1,8.6-18.2,19-18.2s19,8.2,19,18.2s-8.6,18.2-19,18.2C298.3,72.3,289.8,64.2,289.8,54.1z
			 M323.8,54.1c0.1-7.8-6.8-14.2-15-14.2s-15,6.4-15,14.2s6.7,14.2,15,14.2S323.7,61.9,323.8,54.1z"/>
		<path class="st2" d="M369.2,54.7l3.8,0.4c-0.6,11-10.1,17.2-19.9,17.2c-12.6,0-19.6-8.7-19.6-18.5c0-10.8,6.9-17.9,17.8-17.9
			c7.4,0,15.1,4,15.1,11c0,3.6-2.2,5.8-4.9,5.8c-2.6,0-4.6-1.8-4.6-4.4c0-2.4,3-4.2,5.4-3c-1-3.2-4.8-5.4-11-5.4
			c-8.6,0-13.8,5.3-13.8,13.9c0,8.2,6.3,14.5,15.6,14.5C361.6,68.3,368.6,62.7,369.2,54.7z"/>
		<path class="st2" d="M417.1,71.2l-10.5,0.1v-8.7c-5.5,6.2-8.5,9.8-13.4,9.8c-4.1,0-10.4-2-10.4-10.2V42.7c0-2.2-0.5-2.8-1.4-2.8
			s-1.5,1-3.9,4.3l-3.4-1.9L375,41c2.4-3.5,4.2-5.1,6.7-5.1c2.9,0,5.4,1.4,5.2,7.4v19c0,5,3.6,6.2,6.4,6.2c4.4,0,6.4-4,13.4-11.3
			V42.7c0-2.2-0.5-2.8-1.4-2.8s-1.5,1-3.9,4.3l-3.4-1.9l0.9-1.3c2.4-3.5,4.2-5.1,6.7-5.1c2.9,0,5.4,1.4,5.2,7.4v24.1l6.5-0.1v3.9
			C417.3,71.2,417.1,71.2,417.1,71.2z"/>
		<path class="st2" d="M424.6,35.9c2.5,0,4.8,1.1,5.1,5.3c3.9-4.4,6.1-5.3,8.6-5.3c3.1,0,5.9,1.4,6.5,6.2c4.5-5.1,6.7-6.2,9.4-6.2
			c3.6,0,6.6,1.8,6.6,8.4v23h3.3v4h-12.9v-4h5.6V44.7c0-3.8-1.2-4.6-3.3-4.6c-2.2,0-3.9,1.7-8.6,7.6v23.7h-4V44.7
			c0-3.8-1.2-4.6-3.3-4.6c-2,0-3.7,1.4-7.8,6.6v20.6h5.6v4h-15.2v-4h5.6V42.7c0-2.2-0.5-2.8-1.4-2.8s-1.5,1-3.9,4.3l-3.4-1.9L418,41
			C420.3,37.5,422.1,35.9,424.6,35.9z"/>
		<path class="st2" d="M483.9,35.9c8.7,0,17,6.3,17,16.4v1.6h-30.8c0,7.8,6.1,14.3,13.8,14.3c6.7,0,12.4-3.2,15.8-9.9l3.4,2
			c-5,9-12,11.9-19.2,11.9c-9.4,0-17.8-8-17.8-18.8C466.1,41.1,474.2,35.9,483.9,35.9z M483.9,39.9c-8.1,0-12.8,4-13.6,10h26.3
			C496.1,44.7,490.6,39.9,483.9,39.9z"/>
		<path class="st2" d="M515.1,35.9c2.9,0,5.7,1.4,5.4,7.4v2.3c5.5-6.2,8.5-9.8,13.4-9.8c4.1,0,10.4,2,10.4,10.2v21.3h6.1v4h-16.2v-4
			h6.2V46c0-5-3.6-6.2-6.4-6.2c-4.4,0-6.4,4-13.4,11.3v16.2h6.2v4h-16.3v-4h6.2V42.7c0-2.2-0.5-2.8-1.4-2.8s-1.5,1-3.9,4.3l-3.4-1.9
			l0.9-1.3C511,37.5,512.6,35.9,515.1,35.9z"/>
		<path class="st2" d="M562.2,36.9V24.1h4v12.8h22.5v4h-22.5v21.3c0,6.1,3.8,6.2,6.4,6.2c4.6,0,9.4-3.8,18.3-9l2.2,3.2
			c-10.2,6.2-15,9.8-20.5,9.8c-3.9,0-10.4-1.3-10.4-9.2V40.9h-10.4v-4H562.2z"/>
		<path class="st2" d="M622.8,24.1h40.3l1.9,23l-3.8,0.4l-1.5-19.4h-23l-0.1,17.5h12.2v-8.7h4v21.2h-4v-8.5h-12.2v17.7h9.9v4h-23.8
			v-4h9.9V28.1h-9.9L622.8,24.1L622.8,24.1z"/>
		<path class="st2" d="M669.8,54.1c0-10.1,8.6-18.2,19-18.2s19,8.2,19,18.2s-8.6,18.2-19,18.2C678.3,72.3,669.8,64.2,669.8,54.1z
			 M703.8,54.1c0.1-7.8-6.8-14.2-15-14.2s-15,6.4-15,14.2s6.7,14.2,15,14.2S703.7,61.9,703.8,54.1z"/>
		<path class="st2" d="M719.7,35.9c2.9,0,5.7,1.4,5.4,7.4v2.2c5.8-6.4,9.1-9.6,15.2-9.6c6.9,0,11.4,4.2,11.4,11.9
			c0,4.2-2.7,6.5-5.5,6.5c-2.2,0-4.3-1.7-4.3-4.2c0-2.4,2.5-4.6,5.7-3.4c-0.2-3.7-2.4-6.9-7.2-6.8c-3.7,0.1-8.1,2.8-15.2,11.4v16.1
			h15.5v4h-26v-4h6.5V42.7c0-2.2-0.5-2.8-1.4-2.8s-1.5,1-3.9,4.3l-3.4-1.9l0.9-1.3C715.6,37.5,717.1,35.9,719.7,35.9z"/>
		<path class="st2" d="M760.6,35.9c2.5,0,4.8,1.1,5.1,5.3c3.9-4.4,6.1-5.3,8.6-5.3c3.1,0,5.9,1.4,6.5,6.2c4.5-5.1,6.7-6.2,9.4-6.2
			c3.6,0,6.6,1.8,6.6,8.4v23h3.3v4h-12.9v-4h5.6V44.7c0-3.8-1.2-4.6-3.3-4.6c-2.2,0-3.9,1.7-8.6,7.6v23.7h-4V44.7
			c0-3.8-1.2-4.6-3.3-4.6c-2,0-3.7,1.4-7.8,6.6v20.6h5.6v4h-15.2v-4h5.6V42.7c0-2.2-0.5-2.8-1.4-2.8s-1.5,1-3.9,4.3l-3.4-1.9L754,41
			C756.3,37.5,758.1,35.9,760.6,35.9z"/>
		<path class="st2" d="M834.3,72.3c-2.9,0-5.5-2.1-5.4-7.2c-5.9,4.7-10.5,7.2-17.2,7.2c-6.2,0-11.4-2.9-11.5-10.2
			c-0.1-7.8,8.2-10.9,16.8-11.1c9.6-0.2,11.9-1.1,11.9-4.7c0-5.4-7.9-6.3-11.8-6.3c-3.7,0-8.3,0.7-9.5,2.7c1.4-0.7,3.8,1,3.8,3
			c0,2.3-1.5,3.9-4.2,3.9c-2.6,0-4.2-2-4.2-5c0-6.4,8.6-8.7,14-8.7c6.4,0,15.8,2.5,15.8,10.3v18.9c0,2.2,0.5,3.2,1.4,3.2
			c1.4,0,2.1-1.4,4.6-7.3l3.5,1.7C839.4,70.4,837.6,72.3,834.3,72.3z M817,55c-7,0.1-12.7,2.2-12.7,7c0,4.4,2.8,6.4,7.6,6.4
			c6.2,0,10.6-2.6,17.1-8.2v-7.7C826.6,53.9,824.1,54.9,817,55z"/>
		<path class="st2" d="M854.2,36.9V24.1h4v12.8h22.5v4h-22.5v21.3c0,6.1,3.8,6.2,6.4,6.2c4.6,0,9.4-3.8,18.3-9l2.2,3.2
			c-10.2,6.2-15,9.8-20.5,9.8c-3.9,0-10.4-1.3-10.4-9.2V40.9h-10.4v-4H854.2z"/>
	</g>
</g>
</svg>
