<?xml version="1.0" encoding="utf-8"?>
<!-- Generator: Adobe Illustrator 27.0.0, SVG Export Plug-In . SVG Version: 6.00 Build 0)  -->
<svg version="1.1" id="_레이어_2" xmlns="http://www.w3.org/2000/svg" xmlns:xlink="http://www.w3.org/1999/xlink" x="0px"
	 y="0px" viewBox="0 0 920.8 147.1" style="enable-background:new 0 0 920.8 147.1;" xml:space="preserve">
<style type="text/css">
	.st0{fill:#231815;}
	.st1{fill:#888888;}
	.st2{fill:#FFFFFF;stroke:#FFFFFF;stroke-width:2;stroke-miterlimit:10;}
</style>
<g>
	<rect x="0.3" class="st0" width="920.8" height="147.1"/>
	<g>
		<g>
			<rect y="73.7" class="st1" width="115.1" height="36.7"/>
			<rect x="115.1" y="110.4" class="st1" width="115.1" height="36.7"/>
		</g>
		<g>
			<rect x="230.2" y="73.7" class="st1" width="115.1" height="36.7"/>
			<rect x="345.3" y="110.4" class="st1" width="115.1" height="36.7"/>
		</g>
		<g>
			<rect y="0.4" class="st1" width="115.1" height="36.7"/>
			<rect x="115.1" y="37" class="st1" width="115.1" height="36.7"/>
		</g>
		<g>
			<rect x="230.2" y="0.4" class="st1" width="115.1" height="36.7"/>
			<rect x="345.3" y="37" class="st1" width="115.1" height="36.7"/>
		</g>
	</g>
	<g>
		<g>
			<rect x="460.4" y="73.7" class="st1" width="115.1" height="36.7"/>
			<rect x="575.5" y="110.4" class="st1" width="115.1" height="36.7"/>
		</g>
		<g>
			<rect x="690.6" y="73.7" class="st1" width="115.1" height="36.7"/>
			<rect x="805.7" y="110.4" class="st1" width="115.1" height="36.7"/>
		</g>
		<g>
			<rect x="460.4" y="0.4" class="st1" width="115.1" height="36.7"/>
			<rect x="575.5" y="37" class="st1" width="115.1" height="36.7"/>
		</g>
		<g>
			<rect x="690.6" y="0.4" class="st1" width="115.1" height="36.7"/>
			<rect x="805.7" y="37" class="st1" width="115.1" height="36.7"/>
		</g>
	</g>
	<g>
		<path class="st2" d="M16,48.8h42.2l2,24.1l-4,0.4L54.6,53H30.5v18.3h12.8v-9.1h4.2v22.2h-4.2v-8.9H30.5V94h10.4v4.2H16V94h10.4V53
			H16C16,53,16,48.8,16,48.8z"/>
		<path class="st2" d="M71.4,61.2c3,0,6,1.5,5.7,7.7v2.3c6.1-6.7,9.5-10,15.9-10c7.2,0,11.9,4.4,11.9,12.5c0,4.4-2.8,6.8-5.8,6.8
			c-2.3,0-4.5-1.8-4.5-4.4c0-2.5,2.6-4.8,6-3.6c-0.2-3.9-2.5-7.2-7.5-7.1c-3.9,0.1-8.5,2.9-15.9,11.9v16.9h16.2v4.2H66.1v-4.2h6.8
			V68.3c0-2.3-0.5-2.9-1.5-2.9c-0.9,0-1.6,1-4.1,4.5l-3.6-2l0.9-1.4C67.1,62.8,68.6,61.2,71.4,61.2z"/>
		<path class="st2" d="M130.2,61.2c9.1,0,17.8,6.6,17.8,17.2V80h-32.2c0,8.2,6.4,15,14.4,15c7,0,13-3.3,16.5-10.4l3.6,2.1
			c-5.2,9.4-12.6,12.5-20.1,12.5c-9.8,0-18.6-8.4-18.6-19.7C111.6,66.6,120,61.2,130.2,61.2z M130.2,65.3c-8.5,0-13.4,4.2-14.2,10.5
			h27.5C143,70.4,137.2,65.3,130.2,65.3z"/>
		<path class="st2" d="M176.2,61.2c9.1,0,17.8,6.6,17.8,17.2V80h-32.2c0,8.2,6.4,15,14.4,15c7,0,13-3.3,16.5-10.4l3.6,2.1
			c-5.2,9.4-12.6,12.5-20.1,12.5c-9.8,0-18.6-8.4-18.6-19.7C157.6,66.6,166.1,61.2,176.2,61.2z M176.2,65.3
			c-8.5,0-13.4,4.2-14.2,10.5h27.5C189,70.4,183.3,65.3,176.2,65.3z"/>
		<path class="st2" d="M222.8,51.7l1-4c3.6,0.6,6.2,1,9.2,1c3.8,0,9.6-0.2,13.4-0.2c12.1,0,23.2,9.6,23.2,25.2s-11.1,24.8-23.2,24.6
			l-13.2-0.2h-8.5V94h7V52.9C229,52.8,225.7,52.4,222.8,51.7z M246.4,94.2c9.8,0,18.9-7.2,19-20.4c0.1-13.2-9.1-21-19-21
			c-4.3,0-10.4,0.2-10.4,0.2v41C236,94,242.3,94.2,246.4,94.2z"/>
		<path class="st2" d="M272.8,80.2c0-10.6,9-19,19.9-19s19.9,8.6,19.9,19s-9,19-19.9,19C281.7,99.2,272.8,90.8,272.8,80.2z
			 M308.4,80.2c0.1-8.2-7.1-14.9-15.7-14.9c-8.6,0-15.7,6.7-15.7,14.9s7,14.9,15.7,14.9S308.3,88.4,308.4,80.2z"/>
		<path class="st2" d="M355.9,80.8l4,0.4c-0.6,11.5-10.6,18-20.8,18c-13.2,0-20.5-9.1-20.5-19.4c0-11.3,7.2-18.7,18.6-18.7
			c7.7,0,15.8,4.2,15.8,11.5c0,3.8-2.3,6.1-5.1,6.1c-2.7,0-4.8-1.9-4.8-4.6c0-2.5,3.1-4.4,5.7-3.1c-1-3.3-5-5.7-11.5-5.7
			c-9,0-14.4,5.5-14.4,14.5c0,8.6,6.6,15.2,16.3,15.2C348,95.1,355.3,89.2,355.9,80.8z"/>
		<path class="st2" d="M406.1,98.1l-11,0.1v-9.1c-5.8,6.5-8.9,10.3-14,10.3c-4.3,0-10.9-2.1-10.9-10.7V68.3c0-2.3-0.5-2.9-1.5-2.9
			s-1.6,1-4.1,4.5l-3.6-2l0.9-1.4c2.5-3.7,4.4-5.3,7-5.3c3,0,5.7,1.5,5.4,7.7v19.9c0,5.2,3.8,6.5,6.7,6.5c4.6,0,6.7-4.2,14-11.8
			V68.3c0-2.3-0.5-2.9-1.5-2.9c-0.9,0-1.6,1-4.1,4.5l-3.6-2l0.9-1.4c2.5-3.7,4.4-5.3,7-5.3c3,0,5.7,1.5,5.4,7.7v25.2l6.8-0.1v4.1
			C406.3,98.1,406.1,98.1,406.1,98.1z"/>
		<path class="st2" d="M413.9,61.2c2.6,0,5,1.2,5.3,5.5c4.1-4.6,6.4-5.5,9-5.5c3.2,0,6.2,1.5,6.8,6.5c4.7-5.3,7-6.5,9.8-6.5
			c3.8,0,6.9,1.9,6.9,8.8V94h3.5v4.2h-13.5V94h5.9V70.4c0-4-1.3-4.8-3.5-4.8c-2.3,0-4.1,1.8-9,8v24.8H431V70.4c0-4-1.3-4.8-3.5-4.8
			c-2.1,0-3.9,1.5-8.2,6.9V94h5.9v4.2h-15.9V94h5.9V68.3c0-2.3-0.5-2.9-1.5-2.9s-1.6,1-4.1,4.5l-3.6-2l0.9-1.4
			C409.4,62.8,411.3,61.2,413.9,61.2z"/>
		<path class="st2" d="M476,61.2c9.1,0,17.8,6.6,17.8,17.2V80h-32.2c0,8.2,6.4,15,14.4,15c7,0,13-3.3,16.5-10.4l3.6,2.1
			c-5.2,9.4-12.6,12.5-20.1,12.5c-9.8,0-18.6-8.4-18.6-19.7C457.4,66.6,465.8,61.2,476,61.2z M476,65.3c-8.5,0-13.4,4.2-14.2,10.5
			h27.5C488.8,70.4,483,65.3,476,65.3z"/>
		<path class="st2" d="M508.6,61.2c3,0,6,1.5,5.7,7.7v2.4c5.8-6.5,8.9-10.3,14-10.3c4.3,0,10.9,2.1,10.9,10.7V94h6.4v4.2h-17V94h6.5
			V71.7c0-5.2-3.8-6.5-6.7-6.5c-4.6,0-6.7,4.2-14,11.8v17h6.5v4.2h-17.1V94h6.5V68.3c0-2.3-0.5-2.9-1.5-2.9s-1.6,1-4.1,4.5l-3.6-2
			l0.9-1.4C504.4,62.8,506,61.2,508.6,61.2z"/>
		<path class="st2" d="M557.9,62.2V48.8h4.2v13.4h23.5v4.2h-23.5v22.3c0,6.4,4,6.5,6.7,6.5c4.8,0,9.8-4,19.2-9.4l2.3,3.3
			c-10.7,6.5-15.7,10.3-21.5,10.3c-4.1,0-10.9-1.4-10.9-9.6V66.4h-10.9v-4.2H557.9z"/>
		<path class="st2" d="M621.4,48.8h42.2l2,24.1l-4,0.4L660,53h-24.1l-0.1,18.3h12.8v-9.1h4.2v22.2h-4.2v-8.9h-12.8V94h10.4v4.2
			h-24.9V94h10.4V53h-10.4L621.4,48.8L621.4,48.8z"/>
		<path class="st2" d="M670.6,80.2c0-10.6,9-19,19.9-19c10.9,0,19.9,8.6,19.9,19s-9,19-19.9,19C679.5,99.2,670.6,90.8,670.6,80.2z
			 M706.1,80.2c0.1-8.2-7.1-14.9-15.7-14.9c-8.6,0-15.7,6.7-15.7,14.9s7,14.9,15.7,14.9C699.1,95.1,706,88.4,706.1,80.2z"/>
		<path class="st2" d="M722.8,61.2c3,0,6,1.5,5.7,7.7v2.3c6.1-6.7,9.5-10,15.9-10c7.2,0,11.9,4.4,11.9,12.5c0,4.4-2.8,6.8-5.8,6.8
			c-2.3,0-4.5-1.8-4.5-4.4c0-2.5,2.6-4.8,6-3.6c-0.2-3.9-2.5-7.2-7.5-7.1c-3.9,0.1-8.5,2.9-15.9,11.9v16.9h16.2v4.2h-27.2v-4.2h6.8
			V68.3c0-2.3-0.5-2.9-1.5-2.9c-0.9,0-1.6,1-4.1,4.5l-3.6-2l0.9-1.4C718.5,62.8,720.1,61.2,722.8,61.2z"/>
		<path class="st2" d="M765.6,61.2c2.6,0,5,1.2,5.3,5.5c4.1-4.6,6.4-5.5,9-5.5c3.2,0,6.2,1.5,6.8,6.5c4.7-5.3,7-6.5,9.8-6.5
			c3.8,0,6.9,1.9,6.9,8.8V94h3.5v4.2h-13.5V94h5.9V70.4c0-4-1.3-4.8-3.5-4.8c-2.3,0-4.1,1.8-9,8v24.8h-4.2V70.4c0-4-1.3-4.8-3.5-4.8
			c-2.1,0-3.9,1.5-8.2,6.9V94h5.9v4.2H761V94h5.9V68.3c0-2.3-0.5-2.9-1.5-2.9c-0.9,0-1.6,1-4.1,4.5l-3.6-2l0.9-1.4
			C761.1,62.8,763,61.2,765.6,61.2z"/>
		<path class="st2" d="M842.7,99.2c-3,0-5.8-2.2-5.7-7.5c-6.2,4.9-11,7.5-18,7.5c-6.5,0-11.9-3-12-10.7c-0.1-8.2,8.6-11.4,17.6-11.6
			c10-0.2,12.5-1.2,12.5-4.9c0-5.7-8.3-6.6-12.4-6.6c-3.9,0-8.7,0.7-9.9,2.8c1.5-0.7,4,1,4,3.1c0,2.4-1.6,4.1-4.4,4.1
			c-2.7,0-4.4-2.1-4.4-5.2c0-6.7,9-9.1,14.7-9.1c6.7,0,16.5,2.6,16.5,10.8v19.8c0,2.3,0.5,3.3,1.5,3.3c1.5,0,2.2-1.5,4.8-7.6
			l3.7,1.8C848.1,97.3,846.2,99.2,842.7,99.2z M824.6,81.1c-7.3,0.1-13.3,2.3-13.3,7.3c0,4.6,2.9,6.7,8,6.7c6.5,0,11.1-2.7,17.9-8.6
			v-8.1C834.7,80,832.1,81,824.6,81.1z"/>
		<path class="st2" d="M863.6,62.2V48.8h4.2v13.4h23.5v4.2h-23.5v22.3c0,6.4,4,6.5,6.7,6.5c4.8,0,9.8-4,19.2-9.4l2.3,3.3
			c-10.7,6.5-15.7,10.3-21.5,10.3c-4.1,0-10.9-1.4-10.9-9.6V66.4h-10.9v-4.2H863.6z"/>
	</g>
</g>
</svg>
