<?xml version="1.0" encoding="UTF-8"?><svg id="_레이어_2" xmlns="http://www.w3.org/2000/svg" viewBox="0 0 920.85 100.18"><defs><style>.cls-1{fill:#b5b5b6;}.cls-2{fill:#231815;}.cls-3{fill:#fff;font-family:H2ta2M, 'HYTaJaFull M';font-size:80px;letter-spacing:-.05em;}</style></defs><g id="_레이어_1-2"><rect class="cls-1" width="920.85" height="100.18" transform="translate(920.85 100.18) rotate(180)"/><g><g><rect class="cls-2" x="863.3" y="37.57" width="57.55" height="12.52" transform="translate(1784.15 87.66) rotate(180)"/><rect class="cls-2" x="805.74" y="25.05" width="57.55" height="12.52" transform="translate(1669.04 62.61) rotate(180)"/></g><g><rect class="cls-2" x="748.19" y="37.57" width="57.55" height="12.52" transform="translate(1553.93 87.66) rotate(180)"/><rect class="cls-2" x="690.64" y="25.05" width="57.55" height="12.52" transform="translate(1438.83 62.61) rotate(180)"/></g><g><rect class="cls-2" x="863.3" y="62.61" width="57.55" height="12.52" transform="translate(1784.15 137.75) rotate(180)"/><rect class="cls-2" x="805.74" y="50.09" width="57.55" height="12.52" transform="translate(1669.04 112.7) rotate(180)"/></g><g><rect class="cls-2" x="748.19" y="62.61" width="57.55" height="12.52" transform="translate(1553.93 137.75) rotate(180)"/><rect class="cls-2" x="690.64" y="50.09" width="57.55" height="12.52" transform="translate(1438.83 112.7) rotate(180)"/></g><g><rect class="cls-2" x="863.3" y="87.66" width="57.55" height="12.52" transform="translate(1784.15 187.84) rotate(180)"/><rect class="cls-2" x="805.74" y="75.14" width="57.55" height="12.52" transform="translate(1669.04 162.8) rotate(180)"/></g><g><rect class="cls-2" x="748.19" y="87.66" width="57.55" height="12.52" transform="translate(1553.93 187.84) rotate(180)"/><rect class="cls-2" x="690.64" y="75.14" width="57.55" height="12.52" transform="translate(1438.83 162.8) rotate(180)"/></g><g><rect class="cls-2" x="863.3" y="12.52" width="57.55" height="12.52" transform="translate(1784.15 37.57) rotate(180)"/><rect class="cls-2" x="805.74" width="57.55" height="12.52" transform="translate(1669.04 12.52) rotate(180)"/></g><g><rect class="cls-2" x="748.19" y="12.52" width="57.55" height="12.52" transform="translate(1553.93 37.57) rotate(180)"/><rect class="cls-2" x="690.64" width="57.55" height="12.52" transform="translate(1438.83 12.52) rotate(180)"/></g><g><rect class="cls-2" x="633.09" y="37.57" width="57.55" height="12.52" transform="translate(1323.72 87.66) rotate(180)"/><rect class="cls-2" x="575.53" y="25.05" width="57.55" height="12.52" transform="translate(1208.62 62.61) rotate(180)"/></g><g><rect class="cls-2" x="517.98" y="37.57" width="57.55" height="12.52" transform="translate(1093.51 87.66) rotate(180)"/><rect class="cls-2" x="460.43" y="25.05" width="57.55" height="12.52" transform="translate(978.4 62.61) rotate(180)"/></g><g><rect class="cls-2" x="633.09" y="62.61" width="57.55" height="12.52" transform="translate(1323.72 137.75) rotate(180)"/><rect class="cls-2" x="575.53" y="50.09" width="57.55" height="12.52" transform="translate(1208.62 112.7) rotate(180)"/></g><g><rect class="cls-2" x="517.98" y="62.61" width="57.55" height="12.52" transform="translate(1093.51 137.75) rotate(180)"/><rect class="cls-2" x="460.43" y="50.09" width="57.55" height="12.52" transform="translate(978.4 112.7) rotate(180)"/></g><g><rect class="cls-2" x="633.09" y="87.66" width="57.55" height="12.52" transform="translate(1323.72 187.84) rotate(180)"/><rect class="cls-2" x="575.53" y="75.14" width="57.55" height="12.52" transform="translate(1208.62 162.8) rotate(180)"/></g><g><rect class="cls-2" x="517.98" y="87.66" width="57.55" height="12.52" transform="translate(1093.51 187.84) rotate(180)"/><rect class="cls-2" x="460.43" y="75.14" width="57.55" height="12.52" transform="translate(978.4 162.8) rotate(180)"/></g><g><rect class="cls-2" x="633.09" y="12.52" width="57.55" height="12.52" transform="translate(1323.72 37.57) rotate(180)"/><rect class="cls-2" x="575.53" width="57.55" height="12.52" transform="translate(1208.62 12.52) rotate(180)"/></g><g><rect class="cls-2" x="517.98" y="12.52" width="57.55" height="12.52" transform="translate(1093.51 37.57) rotate(180)"/><rect class="cls-2" x="460.43" width="57.55" height="12.52" transform="translate(978.4 12.52) rotate(180)"/></g><g><rect class="cls-2" x="402.87" y="37.57" width="57.55" height="12.52" transform="translate(863.3 87.66) rotate(180)"/><rect class="cls-2" x="345.32" y="25.05" width="57.55" height="12.52" transform="translate(748.19 62.61) rotate(180)"/></g><g><rect class="cls-2" x="287.76" y="37.57" width="57.55" height="12.52" transform="translate(633.08 87.66) rotate(180)"/><rect class="cls-2" x="230.21" y="25.05" width="57.55" height="12.52" transform="translate(517.98 62.61) rotate(180)"/></g><g><rect class="cls-2" x="402.87" y="62.61" width="57.55" height="12.52" transform="translate(863.3 137.75) rotate(180)"/><rect class="cls-2" x="345.32" y="50.09" width="57.55" height="12.52" transform="translate(748.19 112.7) rotate(180)"/></g><g><rect class="cls-2" x="287.76" y="62.61" width="57.55" height="12.52" transform="translate(633.08 137.75) rotate(180)"/><rect class="cls-2" x="230.21" y="50.09" width="57.55" height="12.52" transform="translate(517.98 112.7) rotate(180)"/></g><g><rect class="cls-2" x="402.87" y="87.66" width="57.55" height="12.52" transform="translate(863.3 187.84) rotate(180)"/><rect class="cls-2" x="345.32" y="75.14" width="57.55" height="12.52" transform="translate(748.19 162.8) rotate(180)"/></g><g><rect class="cls-2" x="287.76" y="87.66" width="57.55" height="12.52" transform="translate(633.08 187.84) rotate(180)"/><rect class="cls-2" x="230.21" y="75.14" width="57.55" height="12.52" transform="translate(517.98 162.8) rotate(180)"/></g><g><rect class="cls-2" x="402.87" y="12.52" width="57.55" height="12.52" transform="translate(863.3 37.57) rotate(180)"/><rect class="cls-2" x="345.32" width="57.55" height="12.52" transform="translate(748.19 12.52) rotate(180)"/></g><g><rect class="cls-2" x="287.76" y="12.52" width="57.55" height="12.52" transform="translate(633.08 37.57) rotate(180)"/><rect class="cls-2" x="230.21" width="57.55" height="12.52" transform="translate(517.98 12.52) rotate(180)"/></g><g><rect class="cls-2" x="172.66" y="37.57" width="57.55" height="12.52" transform="translate(402.87 87.66) rotate(180)"/><rect class="cls-2" x="115.11" y="25.05" width="57.55" height="12.52" transform="translate(287.77 62.61) rotate(180)"/></g><g><rect class="cls-2" x="57.55" y="37.57" width="57.55" height="12.52" transform="translate(172.66 87.66) rotate(180)"/><rect class="cls-2" y="25.05" width="57.55" height="12.52" transform="translate(57.55 62.61) rotate(180)"/></g><g><rect class="cls-2" x="172.66" y="62.61" width="57.55" height="12.52" transform="translate(402.87 137.75) rotate(180)"/><rect class="cls-2" x="115.11" y="50.09" width="57.55" height="12.52" transform="translate(287.77 112.7) rotate(180)"/></g><g><rect class="cls-2" x="57.55" y="62.61" width="57.55" height="12.52" transform="translate(172.66 137.75) rotate(180)"/><rect class="cls-2" y="50.09" width="57.55" height="12.52" transform="translate(57.55 112.7) rotate(180)"/></g><g><rect class="cls-2" x="172.66" y="87.66" width="57.55" height="12.52" transform="translate(402.87 187.84) rotate(180)"/><rect class="cls-2" x="115.11" y="75.14" width="57.55" height="12.52" transform="translate(287.77 162.8) rotate(180)"/></g><g><rect class="cls-2" x="57.55" y="87.66" width="57.55" height="12.52" transform="translate(172.66 187.84) rotate(180)"/><rect class="cls-2" y="75.14" width="57.55" height="12.52" transform="translate(57.55 162.8) rotate(180)"/></g><g><rect class="cls-2" x="172.66" y="12.52" width="57.55" height="12.52" transform="translate(402.87 37.57) rotate(180)"/><rect class="cls-2" x="115.11" width="57.55" height="12.52" transform="translate(287.77 12.52) rotate(180)"/></g><g><rect class="cls-2" x="57.55" y="12.52" width="57.55" height="12.52" transform="translate(172.66 37.57) rotate(180)"/><rect class="cls-2" width="57.55" height="12.52" transform="translate(57.55 12.52) rotate(180)"/></g></g><text class="cls-3" transform="translate(805.74 20.42) rotate(-180)"><tspan x="0" y="0">프리 도큐먼트 포맷</tspan></text></g></svg>