<?xml version="1.0" encoding="UTF-8"?><svg id="_레이어_2" xmlns="http://www.w3.org/2000/svg" viewBox="0 0 920.85 100.18"><defs><style>.cls-1{fill:#fff;}.cls-2{fill:#c9caca;}.cls-3{fill:#231815;font-family:H2ta2M, 'HYTaJaFull M';font-size:80px;letter-spacing:-.05em;}</style></defs><g id="_레이어_1-2"><rect class="cls-1" width="920.85" height="100.18"/><g><g><rect class="cls-2" y="50.09" width="57.55" height="12.52"/><rect class="cls-2" x="57.55" y="62.61" width="57.55" height="12.52"/></g><g><rect class="cls-2" x="115.11" y="50.09" width="57.55" height="12.52"/><rect class="cls-2" x="172.66" y="62.61" width="57.55" height="12.52"/></g><g><rect class="cls-2" y="25.05" width="57.55" height="12.52"/><rect class="cls-2" x="57.55" y="37.57" width="57.55" height="12.52"/></g><g><rect class="cls-2" x="115.11" y="25.05" width="57.55" height="12.52"/><rect class="cls-2" x="172.66" y="37.57" width="57.55" height="12.52"/></g><g><rect class="cls-2" width="57.55" height="12.52"/><rect class="cls-2" x="57.55" y="12.52" width="57.55" height="12.52"/></g><g><rect class="cls-2" x="115.11" width="57.55" height="12.52"/><rect class="cls-2" x="172.66" y="12.52" width="57.55" height="12.52"/></g><g><rect class="cls-2" y="75.14" width="57.55" height="12.52"/><rect class="cls-2" x="57.55" y="87.66" width="57.55" height="12.52"/></g><g><rect class="cls-2" x="115.11" y="75.14" width="57.55" height="12.52"/><rect class="cls-2" x="172.66" y="87.66" width="57.55" height="12.52"/></g><g><rect class="cls-2" x="230.21" y="50.09" width="57.55" height="12.52"/><rect class="cls-2" x="287.76" y="62.61" width="57.55" height="12.52"/></g><g><rect class="cls-2" x="345.32" y="50.09" width="57.55" height="12.52"/><rect class="cls-2" x="402.87" y="62.61" width="57.55" height="12.52"/></g><g><rect class="cls-2" x="230.21" y="25.05" width="57.55" height="12.52"/><rect class="cls-2" x="287.76" y="37.57" width="57.55" height="12.52"/></g><g><rect class="cls-2" x="345.32" y="25.05" width="57.55" height="12.52"/><rect class="cls-2" x="402.87" y="37.57" width="57.55" height="12.52"/></g><g><rect class="cls-2" x="230.21" width="57.55" height="12.52"/><rect class="cls-2" x="287.76" y="12.52" width="57.55" height="12.52"/></g><g><rect class="cls-2" x="345.32" width="57.55" height="12.52"/><rect class="cls-2" x="402.87" y="12.52" width="57.55" height="12.52"/></g><g><rect class="cls-2" x="230.21" y="75.14" width="57.55" height="12.52"/><rect class="cls-2" x="287.76" y="87.66" width="57.55" height="12.52"/></g><g><rect class="cls-2" x="345.32" y="75.14" width="57.55" height="12.52"/><rect class="cls-2" x="402.87" y="87.66" width="57.55" height="12.52"/></g><g><rect class="cls-2" x="460.43" y="50.09" width="57.55" height="12.52"/><rect class="cls-2" x="517.98" y="62.61" width="57.55" height="12.52"/></g><g><rect class="cls-2" x="575.53" y="50.09" width="57.55" height="12.52"/><rect class="cls-2" x="633.09" y="62.61" width="57.55" height="12.52"/></g><g><rect class="cls-2" x="460.43" y="25.05" width="57.55" height="12.52"/><rect class="cls-2" x="517.98" y="37.57" width="57.55" height="12.52"/></g><g><rect class="cls-2" x="575.53" y="25.05" width="57.55" height="12.52"/><rect class="cls-2" x="633.09" y="37.57" width="57.55" height="12.52"/></g><g><rect class="cls-2" x="460.43" width="57.55" height="12.52"/><rect class="cls-2" x="517.98" y="12.52" width="57.55" height="12.52"/></g><g><rect class="cls-2" x="575.53" width="57.55" height="12.52"/><rect class="cls-2" x="633.09" y="12.52" width="57.55" height="12.52"/></g><g><rect class="cls-2" x="460.43" y="75.14" width="57.55" height="12.52"/><rect class="cls-2" x="517.98" y="87.66" width="57.55" height="12.52"/></g><g><rect class="cls-2" x="575.53" y="75.14" width="57.55" height="12.52"/><rect class="cls-2" x="633.09" y="87.66" width="57.55" height="12.52"/></g><g><rect class="cls-2" x="690.64" y="50.09" width="57.55" height="12.52"/><rect class="cls-2" x="748.19" y="62.61" width="57.55" height="12.52"/></g><g><rect class="cls-2" x="805.74" y="50.09" width="57.55" height="12.52"/><rect class="cls-2" x="863.3" y="62.61" width="57.55" height="12.52"/></g><g><rect class="cls-2" x="690.64" y="25.05" width="57.55" height="12.52"/><rect class="cls-2" x="748.19" y="37.57" width="57.55" height="12.52"/></g><g><rect class="cls-2" x="805.74" y="25.05" width="57.55" height="12.52"/><rect class="cls-2" x="863.3" y="37.57" width="57.55" height="12.52"/></g><g><rect class="cls-2" x="690.64" width="57.55" height="12.52"/><rect class="cls-2" x="748.19" y="12.52" width="57.55" height="12.52"/></g><g><rect class="cls-2" x="805.74" width="57.55" height="12.52"/><rect class="cls-2" x="863.3" y="12.52" width="57.55" height="12.52"/></g><g><rect class="cls-2" x="690.64" y="75.14" width="57.55" height="12.52"/><rect class="cls-2" x="748.19" y="87.66" width="57.55" height="12.52"/></g><g><rect class="cls-2" x="805.74" y="75.14" width="57.55" height="12.52"/><rect class="cls-2" x="863.3" y="87.66" width="57.55" height="12.52"/></g></g><text class="cls-3" transform="translate(115.11 79.76)"><tspan x="0" y="0">프리 도큐먼트 포맷</tspan></text></g></svg>