<?xml version="1.0" encoding="utf-8"?>
<!-- Generator: Adobe Illustrator 27.0.0, SVG Export Plug-In . SVG Version: 6.00 Build 0)  -->
<svg version="1.1" id="_레이어_2" xmlns="http://www.w3.org/2000/svg" xmlns:xlink="http://www.w3.org/1999/xlink" x="0px"
	 y="0px" viewBox="0 0 1030 85.4" style="enable-background:new 0 0 1030 85.4;" xml:space="preserve">
<style type="text/css">
	.st0{fill:#B5B5B6;}
	.st1{fill:#231815;}
	.st2{enable-background:new    ;}
	.st3{fill:#FFFFFF;}
</style>
<g id="_레이어_1-2">
	<rect class="st0" width="1030" height="85.4"/>
	<g>
		<g>
			<rect y="42.7" class="st1" width="64.3" height="10.7"/>
			<rect x="64.3" y="53.3" class="st1" width="64.3" height="10.7"/>
		</g>
		<g>
			<rect x="128.8" y="42.7" class="st1" width="64.3" height="10.7"/>
			<rect x="193.2" y="53.3" class="st1" width="64.3" height="10.7"/>
		</g>
		<g>
			<rect y="21.3" class="st1" width="64.3" height="10.7"/>
			<rect x="64.3" y="32" class="st1" width="64.3" height="10.7"/>
		</g>
		<g>
			<rect x="128.8" y="21.3" class="st1" width="64.3" height="10.7"/>
			<rect x="193.2" y="32" class="st1" width="64.3" height="10.7"/>
		</g>
		<g>
			<rect class="st1" width="64.3" height="10.7"/>
			<rect x="64.3" y="10.7" class="st1" width="64.3" height="10.7"/>
		</g>
		<g>
			<rect x="128.8" class="st1" width="64.3" height="10.7"/>
			<rect x="193.2" y="10.7" class="st1" width="64.3" height="10.7"/>
		</g>
		<g>
			<rect y="64" class="st1" width="64.3" height="10.7"/>
			<rect x="64.3" y="74.7" class="st1" width="64.3" height="10.7"/>
		</g>
		<g>
			<rect x="128.8" y="64" class="st1" width="64.3" height="10.7"/>
			<rect x="193.2" y="74.7" class="st1" width="64.3" height="10.7"/>
		</g>
		<g>
			<rect x="257.5" y="42.7" class="st1" width="64.3" height="10.7"/>
			<rect x="321.9" y="53.3" class="st1" width="64.3" height="10.7"/>
		</g>
		<g>
			<rect x="386.3" y="42.7" class="st1" width="64.3" height="10.7"/>
			<rect x="450.7" y="53.3" class="st1" width="64.3" height="10.7"/>
		</g>
		<g>
			<rect x="257.5" y="21.3" class="st1" width="64.3" height="10.7"/>
			<rect x="321.9" y="32" class="st1" width="64.3" height="10.7"/>
		</g>
		<g>
			<rect x="386.3" y="21.3" class="st1" width="64.3" height="10.7"/>
			<rect x="450.7" y="32" class="st1" width="64.3" height="10.7"/>
		</g>
		<g>
			<rect x="257.5" class="st1" width="64.3" height="10.7"/>
			<rect x="321.9" y="10.7" class="st1" width="64.3" height="10.7"/>
		</g>
		<g>
			<rect x="386.3" class="st1" width="64.3" height="10.7"/>
			<rect x="450.7" y="10.7" class="st1" width="64.3" height="10.7"/>
		</g>
		<g>
			<rect x="257.5" y="64" class="st1" width="64.3" height="10.7"/>
			<rect x="321.9" y="74.7" class="st1" width="64.3" height="10.7"/>
		</g>
		<g>
			<rect x="386.3" y="64" class="st1" width="64.3" height="10.7"/>
			<rect x="450.7" y="74.7" class="st1" width="64.3" height="10.7"/>
		</g>
		<g>
			<rect x="515" y="42.7" class="st1" width="64.3" height="10.7"/>
			<rect x="579.4" y="53.3" class="st1" width="64.3" height="10.7"/>
		</g>
		<g>
			<rect x="643.8" y="42.7" class="st1" width="64.3" height="10.7"/>
			<rect x="708.2" y="53.3" class="st1" width="64.4" height="10.7"/>
		</g>
		<g>
			<rect x="515" y="21.3" class="st1" width="64.3" height="10.7"/>
			<rect x="579.4" y="32" class="st1" width="64.3" height="10.7"/>
		</g>
		<g>
			<rect x="643.8" y="21.3" class="st1" width="64.3" height="10.7"/>
			<rect x="708.2" y="32" class="st1" width="64.4" height="10.7"/>
		</g>
		<g>
			<rect x="515" class="st1" width="64.3" height="10.7"/>
			<rect x="579.4" y="10.7" class="st1" width="64.3" height="10.7"/>
		</g>
		<g>
			<rect x="643.8" class="st1" width="64.3" height="10.7"/>
			<rect x="708.2" y="10.7" class="st1" width="64.4" height="10.7"/>
		</g>
		<g>
			<rect x="515" y="64" class="st1" width="64.3" height="10.7"/>
			<rect x="579.4" y="74.7" class="st1" width="64.3" height="10.7"/>
		</g>
		<g>
			<rect x="643.8" y="64" class="st1" width="64.3" height="10.7"/>
			<rect x="708.2" y="74.7" class="st1" width="64.4" height="10.7"/>
		</g>
		<g>
			<rect x="772.5" y="42.7" class="st1" width="64.4" height="10.7"/>
			<rect x="836.9" y="53.3" class="st1" width="64.4" height="10.7"/>
		</g>
		<g>
			<rect x="901.3" y="42.7" class="st1" width="64.3" height="10.7"/>
			<rect x="965.7" y="53.3" class="st1" width="64.3" height="10.7"/>
		</g>
		<g>
			<rect x="772.5" y="21.3" class="st1" width="64.4" height="10.7"/>
			<rect x="836.9" y="32" class="st1" width="64.4" height="10.7"/>
		</g>
		<g>
			<rect x="901.3" y="21.3" class="st1" width="64.3" height="10.7"/>
			<rect x="965.7" y="32" class="st1" width="64.3" height="10.7"/>
		</g>
		<g>
			<rect x="772.5" class="st1" width="64.4" height="10.7"/>
			<rect x="836.9" y="10.7" class="st1" width="64.4" height="10.7"/>
		</g>
		<g>
			<rect x="901.3" class="st1" width="64.3" height="10.7"/>
			<rect x="965.7" y="10.7" class="st1" width="64.3" height="10.7"/>
		</g>
		<g>
			<rect x="772.5" y="64" class="st1" width="64.4" height="10.7"/>
			<rect x="836.9" y="74.7" class="st1" width="64.4" height="10.7"/>
		</g>
		<g>
			<rect x="901.3" y="64" class="st1" width="64.3" height="10.7"/>
			<rect x="965.7" y="74.7" class="st1" width="64.3" height="10.7"/>
		</g>
	</g>
	<g class="st2">
		<path class="st3" d="M231.8,51.7c-0.7,0.2-2.2,0.2-4.3,0.1c-3-0.2-9.9-0.3-20.6-0.2c-9.9,0-16.8,0.1-20.8,0.1l-1.2,0.1
			c-2.4,0.2-4,0.2-4.6,0.1c-0.8-0.2-1.5-0.9-2-2.2c-0.7-1.7-0.4-2.7,0.7-3c0.7-0.2,1.9-0.1,3.7,0.1l1.7,0.2
			c3.7,0.3,11.1,0.4,22.1,0.4c10.7,0,17.7-0.1,21-0.4c2.7-0.2,4.4-0.2,5.2,0c1.4,0.4,1.8,1.2,1.2,2.6
			C233.5,50.8,232.7,51.4,231.8,51.7z M201.1,22.5c-1.8,0.1-3.7,0.1-5.7,0.1l-0.7,0.1c-2.6,0.2-4.2,0.2-4.9,0.1
			c-0.9-0.3-1.6-1-2.1-2.3c-0.6-1.5-0.4-2.3,0.6-2.6c0.6-0.2,1.8-0.1,3.6,0.1l1.8,0.2c2.9,0.3,6.9,0.4,11.7,0.4
			c4.6,0,8.3-0.1,11.2-0.4c3.2-0.2,5.2-0.2,6.2,0c1.4,0.3,1.9,1,1.3,2.2c-0.5,1.1-1.2,1.7-1.9,2c-0.7,0.3-2.2,0.4-4.4,0.4
			c-0.1,0.4-0.1,0.8-0.2,1.2c0,0.2-0.1,0.5-0.2,0.9l-0.2,1.5l-0.1,7.5c2.9-0.1,4.9-0.1,5.8,0.1c1.3,0.3,1.7,1,1.2,2.2
			c-0.5,1.2-1.2,1.8-2.2,2.1c-0.8,0.2-2.7,0.2-5.3,0.1c-2.5-0.1-6-0.2-10.6-0.1c-4,0-7.2,0.1-9.6,0.1l-1.2,0.1c-3,0.2-4.8,0.2-5.5,0
			c-0.9-0.3-1.7-1.1-2.2-2.4c-0.6-1.4-0.4-2.3,0.6-2.5c0.6-0.1,1.7-0.1,3.4,0.1l1.9,0.2h0.4c0.7,0,1.1,0,1.2,0.1
			c0.2,0,0.4,0.1,0.6,0.1l-0.2-3c-0.1-0.9-0.2-1.5-0.4-2c-0.2-0.6-0.7-1-1.2-1.2c-1.7-0.5-2.4-1.3-2.2-2.4c0.2-1,1.2-1.5,3.2-1.5
			c1.7,0,3.2,0.4,4.7,1.2c1.4,0.7,2.2,1.6,2.2,2.5c0,0.3-0.1,0.5-0.2,0.8c0,0.1-0.1,0.4-0.2,0.7l-0.2,1.5l-0.2,3.6
			c2.1,0.1,4.1,0.1,6,0.1c1.9,0,3.4,0,4.6-0.1c-0.1-1.9-0.1-3.3-0.1-4.2c0-1.7,0-2.8-0.1-3.3l-0.1-0.4c-0.2-1-0.2-1.7-0.4-2.1
			c-0.2-0.7-0.6-1.2-1.1-1.3l-0.9-0.4L201.1,22.5L201.1,22.5z"/>
		<path class="st3" d="M287.9,40.8c-0.7,0.2-2.2,0.2-4.2,0.1c-2.1-0.1-4.8-0.1-8.1-0.1c-3.7-0.1-6.6,0-8.5,0.1l-1.7,0.2
			c-0.7,0.1-1.2,0.2-1.7,0.1c-0.5-0.1-1-0.6-1.7-1.3c-0.6-0.7-0.9-1.3-1-1.9c-0.1-0.4,0.1-0.9,0.2-1.6l0.2-0.4
			c0.1-0.5,0.2-1.2,0.2-2c0.1-0.7,0.1-1.3,0-1.7c-0.2-0.9-0.2-1.6-0.4-2c-0.2-0.7-0.7-1-1.2-1.2c-1.7-0.5-2.5-1.2-2.2-2.3
			c0.2-1,1.2-1.5,3.1-1.5c1,0,2,0.1,2.9,0.4c0.7,0.2,1.5,0.6,2.3,1c0.2,0.1,0.4,0.1,0.7,0.2c0.2,0.1,0.6,0.1,1,0.1
			c0.7,0.1,2.9,0,6.6-0.1c3.3-0.1,5.9-0.1,7.7-0.2c0.3,0,0.6-0.1,0.7-0.1c0.2-0.1,0.2-0.2,0.3-0.4l0.1-4c-0.1-0.2-0.1-0.4-0.2-0.4
			c-0.2-0.1-0.4-0.1-0.7-0.1c-2.7-0.1-5.3-0.1-7.7,0s-5.1,0.2-8,0.4l-1.1,0.1c-1.7,0.2-2.8,0.2-3.3,0c-0.7-0.2-1.3-0.9-1.8-2.1
			c-0.7-1.6-0.4-2.5,0.6-2.8c0.6-0.2,1.7-0.1,3.4,0.1l1.4,0.2c3.2,0.3,6.7,0.4,10.6,0.4c2.3,0,4.6-0.1,6.8-0.1l1.2-0.1
			c0.6-0.1,1.1-0.1,1.4-0.1c0.6,0.1,1.2,0.3,1.7,0.7c0.8,0.6,1.4,1.2,1.6,1.7c0.1,0.3,0,0.8-0.2,1.5l-0.2,1.1
			c-0.1,0.7-0.2,1.5-0.2,2.5v2c0.4,0.2,0.7,0.5,0.8,0.7c0.2,0.4,0,0.9-0.3,1.6c-0.4,1.1-1.1,1.7-2,2c-0.7,0.2-2.1,0.2-4.2,0.1
			c-1.9-0.1-4.7-0.2-8.3-0.2h-6.2c-0.2,0-0.4,0.1-0.6,0.1c-0.1,0.1-0.2,0.2-0.2,0.4l-0.2,4.3c0,0.3,0.1,0.4,0.2,0.6
			c0.2,0.1,0.5,0.2,1,0.3c1.2,0.1,3.5,0.1,7.2-0.1c3.3-0.1,6.2-0.1,8.5-0.3l0.4-0.1c2.6-0.1,4.2-0.1,4.9,0.1c1.2,0.3,1.5,1.1,1,2.5
			C289.5,40,288.8,40.6,287.9,40.8z M309.9,19.8c0,0.1-0.1,0.4-0.2,0.7c-0.2,0.3-0.2,0.5-0.2,0.7c-0.1,0.3-0.1,0.7-0.1,1
			c-0.2,7.3-0.3,14.6-0.3,21.9c0,7.1,0.2,14.2,0.4,21.1c0.2,2,0.1,3.3-0.2,4c-0.4,0.9-1.3,1.5-2.7,1.8c-1.7,0.3-2.7,0-3.2-0.9
			c-0.3-0.6-0.4-1.7-0.3-3.6l0.1-1.3c0.4-7,0.7-14,0.7-21.1c0.1-7.3,0-14.5-0.2-21.4c-0.1-0.8-0.2-1.5-0.4-2c-0.2-0.7-0.7-1-1.2-1.2
			c-1.7-0.6-2.4-1.4-2.2-2.5c0.2-1.1,1.2-1.6,3.2-1.6c1.7,0,3.2,0.4,4.7,1.2c1.5,0.8,2.2,1.7,2.2,2.6C310,19.3,310,19.6,309.9,19.8z
			"/>
		<path class="st3" d="M413.6,51.4c-0.7,0.1-1.9,0.1-3.7,0l-1.7-0.1c-5.8-0.1-11.7-0.2-17.7-0.2c-3.7,0-9.7,0.1-18,0.1l-4.7,0.1
			l-1,0.1c-2.4,0.2-4,0.2-4.7,0.1c-0.8-0.2-1.5-0.9-1.9-2c-0.7-1.5-0.5-2.4,0.7-2.8c0.7-0.1,1.9-0.1,3.8,0.1l1.5,0.2
			c0.9,0.1,3.1,0.1,6.4,0.1c1.9,0.1,4.8,0.1,8.8,0.1l4.2,0.1l-0.1-1.5c-0.1-0.8-0.2-1.5-0.4-1.9c-0.2-0.6-0.7-0.9-1.2-1.1
			c-1.7-0.5-2.4-1.2-2.2-2.2c0.2-1,1.2-1.5,3.1-1.5c1.7,0,3.2,0.4,4.7,1c1.5,0.7,2.2,1.5,2.2,2.4c0,0.2-0.1,0.4-0.2,0.7
			c0,0.1-0.1,0.4-0.2,0.6c-0.1,0.3-0.2,0.5-0.2,0.7c-0.1,0.3-0.1,0.6-0.1,0.9l-0.1,1.9l2.7-0.1c3.7-0.1,6.5-0.1,8.2-0.1
			c3.2-0.1,5.2-0.1,6.1-0.1l2.2-0.1c2.4-0.2,4-0.2,4.7-0.1c1.2,0.4,1.5,1.2,0.7,2.6C415.4,50.5,414.6,51.2,413.6,51.4z M404.1,38.4
			c-0.7,0.2-2.1,0.2-4.2,0.1c-4.1-0.1-7.7-0.1-11-0.1c-3.9-0.1-7.6,0-11.1,0.1l-1.7,0.2c-0.7,0.1-1.3,0.1-1.7,0.1
			c-0.5-0.1-1-0.6-1.7-1.3c-0.5-0.6-0.8-1.1-0.9-1.5c-0.1-0.3,0-0.7,0.1-1.2l0.2-0.9c0.2-1.7,0.2-3.3,0.3-4.8
			c0.1-2.1,0.1-3.7-0.1-4.9c-0.2-0.9-0.2-1.6-0.4-2c-0.2-0.6-0.7-1-1.2-1.2c-1.7-0.5-2.5-1.2-2.2-2.3c0.2-1,1.2-1.5,3.1-1.5
			c1,0,2,0.1,2.9,0.4c0.7,0.2,1.6,0.6,2.3,1.1c0.2,0.1,0.4,0.1,0.7,0.2c0.2,0.1,0.6,0.1,0.9,0.1c2.5,0,5.7-0.1,9.9-0.1
			c4.1-0.1,7.5-0.1,10.1-0.2c2.7-0.2,4.4-0.2,5.2,0c1.2,0.3,1.7,1.1,1.1,2.4c-0.5,1.1-1.2,1.7-2.1,2c-0.7,0.2-2.2,0.2-4.3,0.1
			c-3.7-0.1-7.3-0.2-11.1-0.2h-8.6c-0.3,0-0.5,0.1-0.7,0.1c-0.2,0.1-0.2,0.3-0.2,0.7c-0.1,1.2-0.2,3.1-0.2,5.3V34
			c0,0.3,0.1,0.4,0.3,0.6c0.2,0.1,0.6,0.2,1,0.2c2.9,0.1,6.6,0.1,10.9-0.1c3.6-0.1,6.9-0.2,10-0.4l0.4-0.1c2.6-0.1,4.2-0.1,4.9,0.1
			c1.2,0.3,1.5,1.1,1,2.5C405.8,37.6,405.1,38.2,404.1,38.4z"/>
		<path class="st3" d="M489.7,48.6c-0.7,0.2-2.2,0.2-4.4,0.1l-9-0.2c0,2,0.1,3.9,0.2,5.4c0.1,2.1,0.2,3.8,0.3,5
			c0.1,1.5-0.1,2.5-0.3,3.1c-0.3,0.7-1.2,1.3-2.7,1.6c-1.8,0.3-2.9,0-3.3-0.9c-0.2-0.6-0.3-1.7-0.2-3.3l0.2-0.6c0.2-1.3,0.3-3,0.4-5
			c0.2-1.7,0.2-3.5,0.2-5.3c-1.4-0.1-4-0.1-7.9-0.1c-3.4,0.1-6,0.1-7.7,0.1l0.1,3c0.1,1.7,0.1,3.1,0.2,3.9c0.1,1.5,0.2,2.6,0.2,3.5
			c0.1,1.5,0,2.5-0.2,3.1c-0.4,0.8-1.2,1.3-2.7,1.7c-1.7,0.3-2.8,0.1-3.3-0.7c-0.2-0.5-0.3-1.5-0.2-3.1l0.2-0.9
			c0.2-1.1,0.2-2.5,0.3-4.3c0.1-1.1,0.2-2.7,0.2-4.8l0.1-1.2l-6.7,0.1l-1.2,0.1c-2.4,0.2-3.9,0.2-4.6,0.1c-0.8-0.2-1.5-0.9-1.9-2.2
			c-0.7-1.5-0.5-2.4,0.4-2.8c0.6-0.2,1.7-0.2,3.5,0l2,0.2c6.5,0.3,13.8,0.4,22,0.4c7.6,0,14.8-0.1,21.3-0.4c2.7-0.1,4.6-0.1,5.3,0.1
			c1.3,0.3,1.7,1.1,1.1,2.5C491.2,47.7,490.6,48.3,489.7,48.6z M475,22.6c0-0.4-0.2-0.6-0.4-0.7c-0.2-0.1-0.7-0.1-1.1-0.1
			c-3.2,0-6.5,0-9.8,0.1c-4.8,0.1-8.5,0.2-11,0.4l-1.1,0.1c-1.7,0.2-2.8,0.2-3.3,0c-0.7-0.2-1.3-0.9-1.7-2.1
			c-0.7-1.6-0.5-2.5,0.5-2.8c0.6-0.2,1.7-0.1,3.4,0.1l1.4,0.2c3.3,0.1,7.7,0.2,13.3,0.3c4.9,0,8.1,0,9.7-0.1l1.2-0.1
			c0.6-0.1,1.1-0.1,1.4-0.1c0.6,0.1,1.2,0.3,1.7,0.7c0.8,0.6,1.3,1.1,1.5,1.5c0.1,0.3,0,0.7-0.2,1.4l-0.2,1.2
			c-0.1,2.5-0.1,4.6-0.1,6.6c0,2.4,0.1,4.2,0.3,5.4c0.2,1.3,0.2,2.3-0.2,2.8c-0.4,0.7-1.3,1.2-2.7,1.7c-1.8,0.4-3,0.1-3.4-0.9
			c-0.2-0.6-0.2-1.7,0-3.5l0.1-0.1l0.1-0.7c0.1-0.6,0.2-1,0.2-1.4c0.1-0.5,0.1-1.2,0.2-1.9c-3.4,0-6.8,0-10.2,0.1
			c-4.7,0.1-8.1,0.1-10.2,0.2l-0.8,0.1c-1.8,0.3-3.1,0.3-3.6,0.1c-0.7-0.2-1.4-0.9-1.8-2.1c-0.7-1.7-0.5-2.7,0.6-3
			c0.7-0.1,1.8-0.1,3.6,0.3l1.2,0.2c2.4,0.1,6.2,0.2,11.4,0.3c4.3,0,7.6,0,10.1-0.1L475,22.6z"/>
		<path class="st3" d="M547,35.8c0.2,0.6,0.2,1,0.2,1.2c-0.1,0.4-0.4,0.9-0.9,1.5c-0.7,0.7-1.2,1.2-1.7,1.3
			c-0.3,0.1-0.9,0.1-1.7-0.1l-1.7-0.1l-0.4-0.1c-3.2-0.1-5.7-0.1-7.6-0.1c-3.2,0-5.7,0.1-7.5,0.1l-1.7,0.1c-0.7,0.1-1.2,0.2-1.7,0.1
			c-0.5-0.1-1-0.6-1.7-1.3c-0.5-0.6-0.8-1.1-0.9-1.5c-0.1-0.3,0-0.7,0.1-1.2l0.2-0.9c0.2-1.3,0.2-3,0.3-5.2c0.1-2.4,0.1-4.3-0.1-5.7
			c-0.2-0.9-0.2-1.6-0.4-2c-0.3-0.6-0.7-1-1.2-1.2c-1.7-0.5-2.4-1.2-2.2-2.3c0.2-1,1.2-1.5,3.1-1.5c0.9,0,1.8,0.1,2.7,0.4
			c0.7,0.2,1.5,0.5,2.3,0.9c0.2,0.1,0.5,0.1,0.9,0.1c0.3,0.1,0.7,0.1,1.3,0.1c1.7,0.1,4.4,0.1,8,0.1c2.2-0.1,4.5-0.1,6.7-0.1
			l1.2-0.1c0.7-0.1,1.2-0.1,1.5-0.1c0.5,0.1,1.1,0.3,1.7,0.7c0.8,0.6,1.3,1.2,1.5,1.6c0.1,0.3,0,0.8-0.2,1.5l-0.2,1.2
			c-0.2,1.2-0.3,3.1-0.3,5.7c0.1,2.5,0.2,4.6,0.3,6.1L547,35.8z M560.4,70c-0.7,0.2-2.1,0.2-4.2,0.1c-2.7-0.1-6.2-0.1-10.8-0.1
			c-5.7,0-9.5,0.1-11.3,0.1l-1.7,0.1c-0.7,0.1-1.3,0.2-1.7,0.1c-0.5-0.1-1.1-0.6-1.7-1.3c-0.5-0.6-0.8-1.1-0.9-1.5
			c-0.1-0.3,0-0.7,0.1-1.2l0.2-0.9c0.2-1.5,0.2-3.1,0.3-4.7c0.1-2.3,0.1-4.3-0.1-6.1c-0.2-0.9-0.2-1.6-0.4-2c-0.2-0.6-0.7-1-1.2-1.2
			c-1.7-0.5-2.5-1.2-2.2-2.3c0.2-1,1.2-1.5,3.1-1.5c1.7,0,3.2,0.4,4.6,1.1c1.5,0.7,2.2,1.6,2.2,2.5c0,0.2-0.1,0.4-0.2,0.7
			c0,0.1-0.1,0.4-0.2,0.7c-0.2,0.3-0.2,0.5-0.2,0.7c-0.1,0.3-0.1,0.7-0.1,0.9c-0.1,2-0.2,4.1-0.2,6.3v4.5c0,0.4,0.1,0.7,0.2,0.9
			c0.2,0.2,0.6,0.4,1.2,0.4c1,0.1,4.3,0,9.7-0.1c5.4-0.1,9.1-0.1,11.1-0.3l0.7-0.1c2.5-0.1,4.1-0.1,4.7,0.1c1.2,0.3,1.5,1.1,1,2.5
			C562,69.2,561.4,69.8,560.4,70z M541.3,22.5c-0.2-0.1-0.7-0.1-1.1-0.1c-2.1-0.1-4.4-0.1-7.1-0.1c-3.4-0.1-5.4,0-6.2,0.1
			c-0.5,0-0.8,0.1-1,0.3c-0.2,0.2-0.2,0.6-0.2,1.2l-0.2,10.7c0,0.4,0.1,0.7,0.2,0.9c0.2,0.2,0.4,0.3,0.7,0.4
			c0.9,0.1,3.2,0.1,6.7,0.1c3.2-0.1,5.6-0.1,7.2-0.1c0.5,0,0.8-0.1,1-0.2c0.2-0.1,0.2-0.4,0.3-0.9V23.2
			C541.6,22.9,541.4,22.7,541.3,22.5z M568.4,19.8c0,0.1-0.1,0.4-0.2,0.7c-0.1,0.3-0.2,0.5-0.2,0.7c-0.1,0.3-0.2,0.6-0.2,0.9
			c-0.2,3.2-0.2,6.9-0.2,11.2c0.1,4.2,0.2,7.1,0.3,8.7c0.2,1.9,0.2,3.1-0.2,3.9c-0.3,0.8-1.2,1.5-2.6,1.8c-1.7,0.4-2.8,0.1-3.2-0.9
			c-0.2-0.6-0.2-2-0.1-4.2l0.1-0.6c0.2-0.9,0.2-2.4,0.3-4.3c0.2-2,0.2-4.1,0.3-6.5c-0.8,0-2.2,0-3.7,0.1c-1.7,0.1-2.9,0.1-3.5,0.1
			l-1,0.1c-1.9,0.2-3.2,0.2-3.7,0.1c-0.7-0.2-1.4-0.9-1.8-2.2c-0.6-1.6-0.4-2.6,0.5-2.9c0.6-0.2,1.7-0.2,3.4,0.1l1.7,0.2l8.1,0.4
			c0.1-0.7,0.1-1.6,0-2.5c-0.1-0.6-0.1-1.3-0.2-2.2c-0.1-0.8-0.2-1.5-0.4-2c-0.2-0.7-0.7-1.1-1.2-1.2c-1.5-0.5-2.2-1.2-2-2.3
			c0.2-1,1.2-1.5,2.8-1.5c1.3,0,2.7,0.4,4.2,1.2c1.5,0.8,2.2,1.7,2.2,2.5C568.4,19.3,568.4,19.6,568.4,19.8z"/>
		<path class="st3" d="M649.3,51.7c-0.7,0.2-2.2,0.2-4.3,0.1c-3-0.2-9.9-0.3-20.6-0.2c-9.9,0-16.8,0.1-20.8,0.1l-1.2,0.1
			c-2.4,0.2-4,0.2-4.6,0.1c-0.8-0.2-1.5-0.9-2-2.2c-0.7-1.7-0.4-2.7,0.7-3c0.7-0.2,1.9-0.1,3.7,0.1l1.7,0.2
			c3.7,0.3,11.1,0.4,22.1,0.4c10.7,0,17.7-0.1,21-0.4c2.7-0.2,4.4-0.2,5.2,0c1.4,0.4,1.8,1.2,1.2,2.6
			C651,50.8,650.3,51.4,649.3,51.7z M631.8,25.9h1.4l0.2-0.1c2.6-0.1,4.2-0.1,4.9,0c1.2,0.3,1.7,1.1,1.1,2.4c-0.4,1.1-1.2,1.7-2.1,2
			c-0.7,0.2-2.1,0.2-4.2,0.1c-1.6-0.1-4.8-0.1-9.7-0.1h-10.2v3.5c0,0.4,0.1,0.7,0.2,0.8s0.4,0.1,0.8,0.1c1.2,0.1,4.4,0,10-0.1
			c5.2-0.1,9-0.1,11.2-0.2l0.4-0.1c2.6-0.1,4.2-0.1,4.9,0.1c1.2,0.3,1.5,1.1,1,2.4c-0.5,1-1.2,1.7-2.2,1.9c-0.7,0.2-2.2,0.3-4.2,0.1
			c-1.6-0.1-5.2-0.2-10.8-0.2c-4.8,0-8.6,0-11.3,0.1l-1.7,0.2c-0.7,0.1-1.2,0.2-1.6,0.1c-0.5-0.1-1.1-0.6-1.7-1.3
			c-0.5-0.6-0.8-1.1-0.9-1.5c-0.1-0.3,0-0.7,0.1-1.2l0.2-0.9c0.2-1.9,0.2-3.5,0.3-4.8c0.1-2,0.1-3.9-0.1-5.5c-0.2-0.9-0.2-1.6-0.4-2
			c-0.2-0.6-0.7-1-1.2-1.2c-1.7-0.5-2.5-1.2-2.2-2.3c0.2-1,1.2-1.5,3.1-1.5c1,0,2,0.1,2.9,0.4c0.7,0.2,1.6,0.6,2.3,1.1
			c0.2,0.1,0.4,0.2,0.7,0.2c0.2,0.1,0.5,0.1,0.9,0.1c1.1,0,4.1,0,9.1-0.1c5.5-0.1,9.1-0.2,11-0.4c2.7-0.1,4.4-0.1,5.2,0.1
			c1.2,0.3,1.7,1.1,1.1,2.4c-0.5,1.1-1.2,1.7-2.1,2c-0.7,0.2-2.2,0.2-4.3,0.1c-1.8-0.1-5.5-0.2-11-0.2h-9c-0.2,0-0.4,0.1-0.5,0.1
			c-0.1,0.1-0.2,0.2-0.2,0.4l-0.2,3.6L631.8,25.9z"/>
		<path class="st3" d="M750.8,51.4c-0.7,0.1-1.9,0.1-3.7,0l-1.7-0.1c-5.8-0.1-11.7-0.2-17.7-0.2c-3.7,0-9.7,0.1-18,0.1l-4.7,0.1
			l-1,0.1c-2.4,0.2-4,0.2-4.7,0.1c-0.8-0.2-1.5-0.9-1.9-2c-0.7-1.5-0.5-2.4,0.7-2.8c0.7-0.1,1.9-0.1,3.8,0.1l1.5,0.2
			c0.9,0.1,3.1,0.1,6.4,0.1c1.9,0.1,4.8,0.1,8.8,0.1l4.2,0.1l-0.1-1.5c-0.1-0.8-0.2-1.5-0.4-1.9c-0.2-0.6-0.7-0.9-1.2-1.1
			c-1.7-0.5-2.4-1.2-2.2-2.2c0.2-1,1.2-1.5,3.1-1.5c1.7,0,3.2,0.4,4.7,1c1.5,0.7,2.2,1.5,2.2,2.4c0,0.2-0.1,0.4-0.2,0.7
			c0,0.1-0.1,0.4-0.2,0.6c-0.1,0.3-0.2,0.5-0.2,0.7c-0.1,0.3-0.1,0.6-0.1,0.9l-0.1,1.9l2.7-0.1c3.7-0.1,6.5-0.1,8.2-0.1
			c3.2-0.1,5.2-0.1,6.1-0.1l2.2-0.1c2.4-0.2,4-0.2,4.7-0.1c1.2,0.4,1.5,1.2,0.7,2.6C752.6,50.5,751.8,51.2,750.8,51.4z M720.3,22.5
			c-1.8,0.1-3.7,0.1-5.7,0.1l-0.7,0.1c-2.6,0.2-4.2,0.2-4.9,0.1c-0.9-0.3-1.6-1-2.1-2.3c-0.6-1.5-0.4-2.3,0.6-2.6
			c0.6-0.2,1.8-0.1,3.6,0.1l1.8,0.2c2.9,0.3,6.9,0.4,11.7,0.4c4.6,0,8.3-0.1,11.2-0.4c3.2-0.2,5.2-0.2,6.2,0c1.4,0.3,1.9,1,1.3,2.2
			c-0.5,1.1-1.2,1.7-1.9,2c-0.7,0.3-2.2,0.4-4.4,0.4c-0.1,0.4-0.1,0.8-0.2,1.2c0,0.2-0.1,0.5-0.2,0.9l-0.2,1.5l-0.1,7.5
			c2.9-0.1,4.9-0.1,5.8,0.1c1.3,0.3,1.7,1,1.2,2.2c-0.5,1.2-1.2,1.8-2.2,2.1c-0.8,0.2-2.7,0.2-5.3,0.1c-2.5-0.1-6-0.2-10.6-0.1
			c-4,0-7.2,0.1-9.6,0.1l-1.2,0.1c-3,0.2-4.8,0.2-5.5,0c-0.9-0.3-1.7-1.1-2.2-2.4c-0.6-1.4-0.4-2.3,0.6-2.5c0.6-0.1,1.7-0.1,3.4,0.1
			l1.9,0.2h0.4c0.7,0,1.1,0,1.2,0.1c0.2,0,0.4,0.1,0.6,0.1l-0.2-3c-0.1-0.9-0.2-1.5-0.4-2c-0.2-0.6-0.7-1-1.2-1.2
			c-1.7-0.5-2.4-1.3-2.2-2.4c0.2-1,1.2-1.5,3.2-1.5c1.7,0,3.2,0.4,4.7,1.2c1.4,0.7,2.2,1.6,2.2,2.5c0,0.3-0.1,0.5-0.2,0.8
			c0,0.1-0.1,0.4-0.2,0.7l-0.2,1.5l-0.2,3.6c2.1,0.1,4.1,0.1,6,0.1s3.4,0,4.6-0.1c-0.1-1.9-0.1-3.3-0.1-4.2c0-1.7,0-2.8-0.1-3.3
			l-0.1-0.4c-0.2-1-0.2-1.7-0.4-2.1c-0.2-0.7-0.6-1.2-1.1-1.3l-0.9-0.4L720.3,22.5L720.3,22.5z"/>
		<path class="st3" d="M808.2,35.8c0.2,0.6,0.2,1,0.2,1.2c-0.1,0.4-0.4,0.9-0.9,1.5c-0.7,0.7-1.2,1.2-1.7,1.3
			c-0.3,0.1-0.9,0.1-1.7-0.1l-1.7-0.1l-0.4-0.1c-3.2-0.1-5.7-0.1-7.6-0.1c-3.2,0-5.7,0.1-7.5,0.1l-1.7,0.1c-0.7,0.1-1.2,0.2-1.7,0.1
			c-0.5-0.1-1-0.6-1.7-1.3c-0.5-0.6-0.8-1.1-0.9-1.5c-0.1-0.3,0-0.7,0.1-1.2l0.2-0.9c0.2-1.5,0.2-3.1,0.3-5.2
			c0.1-2.4,0.1-4.3-0.1-5.7c-0.2-0.9-0.2-1.6-0.4-2c-0.3-0.6-0.7-1-1.2-1.2c-1.7-0.5-2.4-1.2-2.2-2.3c0.2-1,1.2-1.5,3.1-1.5
			c1,0,1.9,0.1,2.7,0.4c0.7,0.2,1.4,0.5,2.2,0.9l2.2,0.2c1.7,0.1,4.4,0.1,8,0.1c2.2-0.1,4.5-0.1,6.7-0.1l1.2-0.1
			c0.7-0.1,1.2-0.1,1.5-0.1c0.5,0.1,1.1,0.3,1.7,0.7c0.8,0.6,1.3,1.1,1.4,1.5c0.2,0.3,0.1,0.7-0.2,1.4l-0.2,1.3
			c-0.2,1.2-0.3,3.1-0.3,5.7c0.1,2.5,0.2,4.6,0.3,6.1L808.2,35.8z M802.4,22.5c-0.2-0.1-0.7-0.1-1.1-0.1c-2.1-0.1-4.4-0.1-7.1-0.1
			c-3.4-0.1-5.4,0-6.2,0.1c-0.5,0-0.8,0.1-1,0.3c-0.2,0.2-0.2,0.6-0.2,1.2l-0.2,10.7c0,0.4,0.1,0.7,0.2,0.9c0.2,0.2,0.3,0.3,0.7,0.4
			c0.9,0.1,3.2,0.1,6.8,0.1c3.2-0.1,5.6-0.1,7.2-0.1c0.5,0,0.8-0.1,1-0.2c0.2-0.1,0.2-0.4,0.3-0.9V23.2
			C802.8,22.9,802.7,22.7,802.4,22.5z M816.7,64c2.3,1.4,4.6,2,7,2l0.7-0.1c2.1-0.1,3.4-0.1,4.1,0.1c1,0.3,1.2,1.1,0.7,2.5
			c-0.4,1-1.2,1.6-2.1,1.8c-0.7,0.2-2,0.2-4.2,0.1c-2.9-0.1-5.8-0.9-8.6-2.5c-2.2-1.2-4.2-2.7-5.7-4.5c-1.4,1.9-3.3,3.4-5.8,4.6
			c-2.6,1.4-5.3,2.2-8.2,2.3l-1.1,0.1c-1.7,0.2-2.8,0.2-3.4,0c-0.7-0.2-1.4-0.9-1.9-2.1c-0.7-1.6-0.5-2.6,0.6-2.9
			c0.6-0.1,1.7-0.1,3.5,0.3l1.3,0.2c3,0.1,5.9-1.1,8.6-3.3c2.8-2.3,4.2-4.7,4-7.3c-0.1-0.9-0.2-1.5-0.4-2c-0.2-0.6-0.7-1-1.2-1.2
			c-1.7-0.5-2.4-1.2-2.2-2.3c0.2-1,1.2-1.5,3-1.5c1.7,0,3.2,0.4,4.7,1.1s2.2,1.5,2.2,2.5c0,0.2-0.1,0.4-0.2,0.7
			c0,0.1-0.1,0.4-0.2,0.6c-0.2,0.3-0.2,0.5-0.2,0.7c-0.1,0.3-0.1,0.7-0.1,0.9c0,0.5-0.1,1-0.2,1.6l-0.3,2.1
			C812.7,60.7,814.3,62.6,816.7,64z M836.1,19.7c0,0.1-0.1,0.4-0.2,0.7c-0.2,0.3-0.2,0.5-0.2,0.7c-0.1,0.3-0.1,0.7-0.1,1
			c-0.2,3.4-0.2,7.6-0.2,12.6c0.1,5,0.2,8.1,0.4,9.4c0.2,1.9,0.2,3.1-0.2,3.9c-0.4,0.8-1.3,1.5-2.7,1.8c-1.7,0.4-2.8,0.1-3.2-1
			c-0.2-0.7-0.2-2.1,0-4.4l0.1-0.3c0.2-0.9,0.2-2.5,0.4-4.8c0.2-2.5,0.2-5,0.2-7.5c-1.1-0.1-2.5-0.1-4.2-0.1s-3.3,0-4.6,0.1
			c0,2.5,0,4.6,0.1,6.2c0.1,2,0.2,3.4,0.2,4.1c0.2,1.9,0.1,3.2-0.2,3.9c-0.3,0.9-1.2,1.5-2.7,1.7c-1.7,0.4-2.8,0.1-3.2-0.9
			c-0.2-0.6-0.2-2,0-4.2l0.2-0.6c0.2-1.7,0.3-4.4,0.5-8.1c0.2-4.4,0.1-7.9-0.1-10.5c-0.1-0.9-0.2-1.6-0.4-2c-0.2-0.6-0.7-1-1.2-1.2
			c-1.6-0.6-2.3-1.4-2.2-2.5c0.2-1.1,1.2-1.6,3-1.6c1.6,0,3.1,0.4,4.5,1.2c1.4,0.7,2.1,1.6,2.1,2.6c0,0.3-0.1,0.5-0.2,0.7
			c0,0.1-0.1,0.4-0.2,0.7c-0.1,0.3-0.2,0.5-0.2,0.7c-0.1,0.3-0.2,0.6-0.2,0.9l-0.2,4.6h4.6c1.7-0.1,3.2-0.1,4.2-0.1l-0.1-5
			c-0.1-0.8-0.2-1.5-0.4-2c-0.2-0.7-0.7-1.1-1.2-1.2c-1.6-0.5-2.2-1.2-2-2.3c0.2-1,1.2-1.5,2.8-1.5c1.6,0,3.1,0.4,4.5,1.2
			c1.5,0.7,2.2,1.6,2.2,2.5C836.3,19.3,836.2,19.5,836.1,19.7z"/>
	</g>
</g>
</svg>
