<?xml version="1.0" encoding="utf-8"?>
<!-- Generator: Adobe Illustrator 27.0.0, SVG Export Plug-In . SVG Version: 6.00 Build 0)  -->
<svg version="1.1" id="_레이어_2" xmlns="http://www.w3.org/2000/svg" xmlns:xlink="http://www.w3.org/1999/xlink" x="0px"
	 y="0px" viewBox="0 0 920.8 107.6" style="enable-background:new 0 0 920.8 107.6;" xml:space="preserve">
<style type="text/css">
	.st0{fill:#B5B5B6;}
	.st1{fill:#231815;}
	.st2{enable-background:new    ;}
	.st3{fill:#FFFFFF;}
</style>
<g id="_레이어_1-2">
	<rect class="st0" width="920.8" height="107.6"/>
	<g>
		<g>
			<rect y="53.8" class="st1" width="57.5" height="13.4"/>
			<rect x="57.5" y="67.3" class="st1" width="57.5" height="13.4"/>
		</g>
		<g>
			<rect x="115.1" y="53.8" class="st1" width="57.5" height="13.4"/>
			<rect x="172.7" y="67.3" class="st1" width="57.5" height="13.4"/>
		</g>
		<g>
			<rect y="26.9" class="st1" width="57.5" height="13.4"/>
			<rect x="57.5" y="40.4" class="st1" width="57.5" height="13.4"/>
		</g>
		<g>
			<rect x="115.1" y="26.9" class="st1" width="57.5" height="13.4"/>
			<rect x="172.7" y="40.4" class="st1" width="57.5" height="13.4"/>
		</g>
		<g>
			<rect class="st1" width="57.5" height="13.4"/>
			<rect x="57.5" y="13.4" class="st1" width="57.5" height="13.4"/>
		</g>
		<g>
			<rect x="115.1" class="st1" width="57.5" height="13.4"/>
			<rect x="172.7" y="13.4" class="st1" width="57.5" height="13.4"/>
		</g>
		<g>
			<rect y="80.7" class="st1" width="57.5" height="13.4"/>
			<rect x="57.5" y="94.2" class="st1" width="57.5" height="13.4"/>
		</g>
		<g>
			<rect x="115.1" y="80.7" class="st1" width="57.5" height="13.4"/>
			<rect x="172.7" y="94.2" class="st1" width="57.5" height="13.4"/>
		</g>
		<g>
			<rect x="230.2" y="53.8" class="st1" width="57.5" height="13.4"/>
			<rect x="287.8" y="67.3" class="st1" width="57.5" height="13.4"/>
		</g>
		<g>
			<rect x="345.3" y="53.8" class="st1" width="57.5" height="13.4"/>
			<rect x="402.9" y="67.3" class="st1" width="57.5" height="13.4"/>
		</g>
		<g>
			<rect x="230.2" y="26.9" class="st1" width="57.5" height="13.4"/>
			<rect x="287.8" y="40.4" class="st1" width="57.5" height="13.4"/>
		</g>
		<g>
			<rect x="345.3" y="26.9" class="st1" width="57.5" height="13.4"/>
			<rect x="402.9" y="40.4" class="st1" width="57.5" height="13.4"/>
		</g>
		<g>
			<rect x="230.2" class="st1" width="57.5" height="13.4"/>
			<rect x="287.8" y="13.4" class="st1" width="57.5" height="13.4"/>
		</g>
		<g>
			<rect x="345.3" class="st1" width="57.5" height="13.4"/>
			<rect x="402.9" y="13.4" class="st1" width="57.5" height="13.4"/>
		</g>
		<g>
			<rect x="230.2" y="80.7" class="st1" width="57.5" height="13.4"/>
			<rect x="287.8" y="94.2" class="st1" width="57.5" height="13.4"/>
		</g>
		<g>
			<rect x="345.3" y="80.7" class="st1" width="57.5" height="13.4"/>
			<rect x="402.9" y="94.2" class="st1" width="57.5" height="13.4"/>
		</g>
		<g>
			<rect x="460.4" y="53.8" class="st1" width="57.5" height="13.4"/>
			<rect x="518" y="67.3" class="st1" width="57.5" height="13.4"/>
		</g>
		<g>
			<rect x="575.5" y="53.8" class="st1" width="57.5" height="13.4"/>
			<rect x="633.1" y="67.3" class="st1" width="57.6" height="13.4"/>
		</g>
		<g>
			<rect x="460.4" y="26.9" class="st1" width="57.5" height="13.4"/>
			<rect x="518" y="40.4" class="st1" width="57.5" height="13.4"/>
		</g>
		<g>
			<rect x="575.5" y="26.9" class="st1" width="57.5" height="13.4"/>
			<rect x="633.1" y="40.4" class="st1" width="57.6" height="13.4"/>
		</g>
		<g>
			<rect x="460.4" class="st1" width="57.5" height="13.4"/>
			<rect x="518" y="13.4" class="st1" width="57.5" height="13.4"/>
		</g>
		<g>
			<rect x="575.5" class="st1" width="57.5" height="13.4"/>
			<rect x="633.1" y="13.4" class="st1" width="57.6" height="13.4"/>
		</g>
		<g>
			<rect x="460.4" y="80.7" class="st1" width="57.5" height="13.4"/>
			<rect x="518" y="94.2" class="st1" width="57.5" height="13.4"/>
		</g>
		<g>
			<rect x="575.5" y="80.7" class="st1" width="57.5" height="13.4"/>
			<rect x="633.1" y="94.2" class="st1" width="57.6" height="13.4"/>
		</g>
		<g>
			<rect x="690.6" y="53.8" class="st1" width="57.6" height="13.4"/>
			<rect x="748.2" y="67.3" class="st1" width="57.6" height="13.4"/>
		</g>
		<g>
			<rect x="805.7" y="53.8" class="st1" width="57.5" height="13.4"/>
			<rect x="863.3" y="67.3" class="st1" width="57.5" height="13.4"/>
		</g>
		<g>
			<rect x="690.6" y="26.9" class="st1" width="57.6" height="13.4"/>
			<rect x="748.2" y="40.4" class="st1" width="57.6" height="13.4"/>
		</g>
		<g>
			<rect x="805.7" y="26.9" class="st1" width="57.5" height="13.4"/>
			<rect x="863.3" y="40.4" class="st1" width="57.5" height="13.4"/>
		</g>
		<g>
			<rect x="690.6" class="st1" width="57.6" height="13.4"/>
			<rect x="748.2" y="13.4" class="st1" width="57.6" height="13.4"/>
		</g>
		<g>
			<rect x="805.7" class="st1" width="57.5" height="13.4"/>
			<rect x="863.3" y="13.4" class="st1" width="57.5" height="13.4"/>
		</g>
		<g>
			<rect x="690.6" y="80.7" class="st1" width="57.6" height="13.4"/>
			<rect x="748.2" y="94.2" class="st1" width="57.6" height="13.4"/>
		</g>
		<g>
			<rect x="805.7" y="80.7" class="st1" width="57.5" height="13.4"/>
			<rect x="863.3" y="94.2" class="st1" width="57.5" height="13.4"/>
		</g>
	</g>
	<g class="st2">
		<path class="st3" d="M214.9,63c-0.8,0.3-2.3,0.3-4.7,0.2c-3.2-0.3-10.6-0.4-22-0.3c-10.6,0-17.9,0.1-22.2,0.2l-1.2,0.1
			c-2.6,0.3-4.3,0.3-4.9,0.1c-0.9-0.3-1.6-1.1-2.1-2.7c-0.7-2-0.5-3.3,0.7-3.6c0.7-0.3,2-0.2,4,0.2l1.8,0.3c4,0.4,11.9,0.5,23.6,0.5
			c11.4,0,18.9-0.2,22.4-0.5c2.9-0.3,4.7-0.3,5.6,0c1.5,0.5,2,1.5,1.3,3.2C216.7,61.8,215.8,62.7,214.9,63z M182.2,27.3
			c-2,0.1-4,0.1-6,0.2l-0.8,0.1c-2.8,0.3-4.6,0.3-5.2,0.1c-1-0.4-1.7-1.2-2.2-2.9c-0.7-1.8-0.5-2.9,0.7-3.2c0.7-0.3,2-0.2,3.8,0.2
			l2,0.3c3.1,0.4,7.3,0.5,12.6,0.5c4.9,0,8.8-0.2,12-0.5c3.3-0.3,5.6-0.3,6.7,0c1.5,0.4,2,1.2,1.4,2.7c-0.6,1.3-1.2,2.1-2,2.4
			c-0.8,0.4-2.4,0.5-4.7,0.5c-0.1,0.6-0.1,1-0.2,1.4c0,0.3-0.1,0.7-0.2,1l-0.3,1.8l-0.1,9.1c3.1-0.2,5.2-0.2,6.2,0.2
			c1.4,0.4,1.9,1.2,1.3,2.7c-0.6,1.4-1.3,2.2-2.4,2.6c-0.9,0.3-2.9,0.3-5.7,0.2c-2.7-0.2-6.4-0.3-11.3-0.2c-4.3,0-7.6,0.1-10.2,0.2
			l-1.3,0.1c-3.2,0.3-5.1,0.3-5.9,0c-1-0.4-1.8-1.3-2.3-3c-0.7-1.7-0.5-2.8,0.7-3.1c0.7-0.2,1.9-0.2,3.6,0.2l2,0.3h0.5
			c0.7,0,1.1,0,1.3,0.1c0.3,0,0.5,0.1,0.7,0.2l-0.2-3.6c-0.1-1-0.3-1.9-0.5-2.4c-0.3-0.7-0.7-1.2-1.2-1.4c-1.8-0.7-2.6-1.6-2.4-3
			c0.3-1.2,1.3-1.9,3.3-1.9c1.8,0,3.4,0.5,4.9,1.4c1.5,0.9,2.3,2,2.3,3c0,0.4-0.1,0.7-0.2,1c0,0.2-0.1,0.5-0.2,0.8l-0.3,1.8
			l-0.2,4.4c2.2,0.1,4.4,0.1,6.4,0.1c2,0,3.6,0,4.9-0.1c-0.1-2.3-0.1-4-0.1-5.1c0-2.1,0-3.4-0.1-4l-0.1-0.5c-0.2-1.2-0.3-2-0.5-2.6
			c-0.3-0.9-0.7-1.4-1.1-1.6l-1-0.5L182.2,27.3L182.2,27.3z"/>
		<path class="st3" d="M257.2,49.7c-0.8,0.3-2.3,0.3-4.6,0.2c-2.2-0.1-5.1-0.2-8.7-0.2c-4-0.1-7,0-9,0.1l-1.8,0.3
			c-0.8,0.2-1.3,0.3-1.8,0.2c-0.6-0.2-1-0.7-1.8-1.6c-0.7-0.9-1-1.6-1-2.3c-0.1-0.5,0.1-1,0.3-2L229,44c0.1-0.7,0.2-1.4,0.2-2.4
			c0.1-0.9,0.1-1.6,0-2c-0.2-1-0.3-2-0.5-2.4c-0.3-0.8-0.7-1.2-1.2-1.4c-1.9-0.7-2.7-1.5-2.4-2.8c0.3-1.2,1.3-1.9,3.3-1.9
			c1,0,2.1,0.2,3.1,0.5c0.8,0.3,1.6,0.7,2.5,1.2c0.2,0.1,0.5,0.2,0.8,0.3c0.3,0.1,0.7,0.2,1,0.2c0.8,0.1,3.1,0,7-0.2
			c3.5-0.1,6.3-0.2,8.3-0.3c0.4,0,0.7-0.1,0.7-0.2c0.2-0.1,0.3-0.3,0.4-0.6l0.1-4.9c-0.1-0.3-0.1-0.5-0.2-0.6
			c-0.2-0.1-0.5-0.2-0.8-0.2c-3-0.1-5.7-0.1-8.3,0c-2.6,0.1-5.4,0.3-8.6,0.5l-1.1,0.1c-1.8,0.3-3,0.3-3.5,0c-0.8-0.3-1.4-1.1-2-2.6
			c-0.7-2-0.5-3.1,0.7-3.4c0.7-0.3,1.8-0.2,3.6,0.2l1.5,0.3c3.3,0.4,7.1,0.5,11.3,0.5c2.5,0,4.9-0.1,7.3-0.2l1.3-0.2
			c0.7-0.1,1.1-0.1,1.5-0.1c0.7,0.1,1.2,0.4,1.8,0.8c0.9,0.7,1.5,1.4,1.7,2c0.1,0.4,0,1-0.2,1.8l-0.3,1.3c-0.1,0.8-0.2,1.8-0.3,3
			v2.5c0.5,0.3,0.8,0.7,0.9,0.9c0.2,0.5,0,1-0.4,2c-0.5,1.3-1.1,2.1-2.1,2.4c-0.7,0.3-2.2,0.3-4.6,0.2c-2-0.2-4.9-0.3-8.8-0.3h-6.7
			c-0.3,0-0.5,0.1-0.7,0.2c-0.1,0.1-0.2,0.3-0.2,0.6l-0.2,5.2c0,0.4,0.1,0.6,0.2,0.7c0.2,0.2,0.6,0.3,1,0.4c1.2,0.1,3.7,0.1,7.7-0.1
			c3.5-0.1,6.6-0.2,9-0.4l0.5-0.1c2.8-0.2,4.6-0.2,5.2,0.2c1.2,0.4,1.6,1.3,1,3C258.9,48.6,258.2,49.5,257.2,49.7z M280.7,24
			c0,0.2-0.1,0.5-0.2,0.8c-0.2,0.4-0.3,0.7-0.3,0.8c-0.1,0.4-0.1,0.8-0.1,1.2c-0.3,8.8-0.4,17.9-0.4,26.8c0,8.7,0.2,17.3,0.5,25.8
			c0.2,2.4,0.1,4-0.3,4.9c-0.5,1-1.4,1.8-3,2.2c-1.8,0.4-2.9,0-3.3-1c-0.4-0.7-0.5-2.1-0.4-4.5l0.1-1.6c0.5-8.6,0.7-17.1,0.8-25.8
			c0.1-8.9,0-17.7-0.2-26.2c-0.1-1-0.2-1.9-0.5-2.4c-0.3-0.8-0.7-1.2-1.3-1.4c-1.8-0.7-2.6-1.7-2.4-3c0.3-1.3,1.3-2,3.3-2
			c1.8,0,3.4,0.5,5,1.4c1.6,1,2.4,2,2.4,3.2C280.8,23.4,280.7,23.7,280.7,24z"/>
		<path class="st3" d="M369.8,62.6c-0.7,0.2-2,0.2-4,0l-1.8-0.2c-6.2-0.2-12.6-0.3-18.9-0.3c-4,0-10.4,0.1-19.2,0.2l-5,0.1l-1,0.1
			c-2.6,0.3-4.3,0.3-4.9,0.1c-0.9-0.3-1.6-1-2-2.4c-0.7-1.9-0.6-3,0.7-3.3c0.7-0.2,2-0.1,4.1,0.2l1.6,0.3c1,0.1,3.3,0.1,6.9,0.2
			c2,0.1,5.1,0.1,9.4,0.2l4.6,0.1l-0.1-1.8c-0.1-1-0.3-1.8-0.5-2.3c-0.3-0.7-0.7-1.1-1.2-1.3c-1.8-0.7-2.6-1.5-2.4-2.7
			c0.3-1.2,1.3-1.8,3.3-1.8c1.8,0,3.4,0.5,4.9,1.2c1.6,0.9,2.4,1.9,2.4,3c0,0.3-0.1,0.6-0.2,0.8c0,0.2-0.1,0.5-0.2,0.7
			c-0.1,0.4-0.2,0.7-0.2,0.8c-0.1,0.4-0.1,0.7-0.1,1l-0.1,2.3l3-0.1c4-0.1,6.9-0.1,8.8-0.2c3.3-0.1,5.5-0.1,6.5-0.2l2.3-0.2
			c2.6-0.3,4.3-0.3,5-0.1c1.3,0.5,1.6,1.5,0.8,3.2C371.7,61.6,370.9,62.3,369.8,62.6z M359.7,46.8c-0.7,0.3-2.2,0.3-4.6,0.2
			c-4.4-0.1-8.3-0.2-11.7-0.2c-4.2-0.1-8.1,0-11.9,0.1l-1.8,0.3c-0.8,0.2-1.4,0.2-1.8,0.1c-0.6-0.2-1-0.7-1.8-1.6
			c-0.6-0.7-0.9-1.3-1-1.9c-0.1-0.4,0-0.8,0.1-1.4l0.2-1.1c0.2-2,0.3-4,0.4-5.9c0.1-2.6,0.1-4.6-0.1-6c-0.2-1-0.3-2-0.5-2.5
			c-0.3-0.7-0.7-1.2-1.2-1.4c-1.9-0.7-2.7-1.5-2.4-2.8c0.3-1.2,1.3-1.9,3.3-1.9c1,0,2.1,0.2,3.1,0.5c0.8,0.3,1.7,0.7,2.5,1.3
			c0.2,0.1,0.5,0.2,0.8,0.3c0.3,0.1,0.7,0.2,1,0.2c2.7,0,6.1-0.1,10.6-0.2c4.4-0.1,8-0.2,10.8-0.3c2.9-0.3,4.7-0.3,5.6,0
			c1.3,0.4,1.8,1.3,1.1,3c-0.6,1.3-1.2,2-2.2,2.4c-0.7,0.3-2.3,0.3-4.7,0.2c-3.9-0.2-7.8-0.3-11.9-0.3h-9.1c-0.4,0-0.6,0.1-0.7,0.2
			c-0.2,0.2-0.3,0.4-0.3,0.8c-0.1,1.5-0.2,3.7-0.2,6.5v6c0,0.4,0.1,0.6,0.4,0.7s0.7,0.3,1,0.3c3.1,0.1,7,0.1,11.6-0.1
			c3.8-0.1,7.3-0.3,10.7-0.5l0.5-0.1c2.8-0.2,4.6-0.2,5.2,0.2c1.2,0.4,1.6,1.3,1,3C361.5,45.8,360.7,46.5,359.7,46.8z"/>
		<path class="st3" d="M437.5,59.2c-0.8,0.3-2.4,0.3-4.7,0.2l-9.6-0.3c0,2.5,0.1,4.7,0.2,6.7c0.1,2.6,0.2,4.7,0.4,6.1
			c0.1,1.9-0.1,3.1-0.4,3.8c-0.4,0.9-1.3,1.6-2.9,2c-2,0.4-3.1,0-3.5-1c-0.3-0.7-0.4-2-0.2-4.1l0.2-0.7c0.2-1.6,0.4-3.6,0.5-6.1
			c0.2-2,0.3-4.3,0.3-6.5c-1.5-0.1-4.3-0.2-8.5-0.2c-3.6,0.1-6.4,0.1-8.3,0.2l0.1,3.6c0.1,2.1,0.1,3.7,0.2,4.8
			c0.1,1.8,0.2,3.2,0.3,4.3c0.1,1.8,0,3-0.3,3.7c-0.5,1-1.3,1.6-2.9,2c-1.9,0.4-3,0.1-3.5-0.9c-0.3-0.7-0.4-1.9-0.2-3.7l0.2-1.1
			c0.2-1.3,0.3-3,0.4-5.2c0.1-1.3,0.2-3.3,0.3-5.9l0.1-1.4l-7.1,0.2l-1.2,0.1c-2.6,0.3-4.2,0.3-4.9,0.1c-0.9-0.3-1.6-1.1-2-2.7
			c-0.7-1.9-0.6-3,0.5-3.3c0.7-0.3,1.9-0.3,3.7,0l2.1,0.3c6.9,0.4,14.7,0.5,23.5,0.5c8.2,0,15.8-0.2,22.7-0.5c3-0.2,4.9-0.2,5.7,0.1
			c1.4,0.4,1.9,1.3,1.1,3C439.2,58.1,438.6,58.9,437.5,59.2z M421.9,27.4c0-0.5-0.2-0.7-0.5-0.9s-0.7-0.2-1.1-0.2
			c-3.4,0-6.9,0-10.5,0.1c-5.1,0.1-9,0.3-11.7,0.5L397,27c-1.8,0.3-3,0.3-3.5,0c-0.8-0.3-1.4-1.1-1.9-2.6c-0.7-2-0.6-3.1,0.6-3.4
			c0.7-0.3,1.9-0.2,3.6,0.2l1.5,0.3c3.5,0.2,8.3,0.3,14.2,0.4c5.2,0,8.7,0,10.4-0.1l1.3-0.2c0.7-0.1,1.1-0.1,1.5-0.1
			c0.7,0.1,1.2,0.4,1.8,0.8c0.9,0.7,1.4,1.3,1.6,1.9c0.1,0.4,0,0.9-0.2,1.7l-0.3,1.4c-0.1,3-0.1,5.7-0.1,8.1c0,3,0.1,5.1,0.4,6.7
			s0.2,2.8-0.2,3.4c-0.5,0.9-1.4,1.5-3,2c-2,0.6-3.2,0.2-3.6-1c-0.3-0.7-0.3-2.1,0-4.3l0.1-0.2l0.1-0.8c0.1-0.7,0.2-1.2,0.2-1.7
			c0.1-0.7,0.1-1.4,0.2-2.3c-3.6,0-7.3,0-10.9,0.1c-4.9,0.1-8.6,0.2-10.9,0.3l-0.9,0.1c-2,0.4-3.3,0.4-3.8,0.2
			c-0.8-0.3-1.5-1.1-2-2.6c-0.7-2-0.6-3.3,0.7-3.6c0.7-0.2,2-0.1,3.8,0.4l1.2,0.3c2.6,0.2,6.7,0.3,12.2,0.4c4.7,0,8.2,0,10.8-0.1
			L421.9,27.4z"/>
		<path class="st3" d="M480.3,43.5c0.2,0.7,0.2,1.2,0.2,1.5c-0.1,0.6-0.5,1.1-1,1.9c-0.7,0.9-1.3,1.4-1.9,1.6
			c-0.4,0.1-1,0.1-1.8-0.2l-1.8-0.2l-0.5-0.1c-3.3-0.1-6-0.1-8.1-0.1c-3.4,0-6.1,0.1-8,0.2l-1.8,0.2c-0.8,0.2-1.3,0.3-1.8,0.2
			c-0.6-0.2-1-0.7-1.8-1.6c-0.6-0.7-0.9-1.3-1-1.9c-0.1-0.4,0-0.8,0.1-1.4l0.2-1.1c0.2-1.6,0.3-3.6,0.4-6.3c0.1-3,0.1-5.2-0.1-6.9
			c-0.2-1-0.3-2-0.5-2.4c-0.4-0.7-0.8-1.2-1.3-1.4c-1.8-0.7-2.6-1.5-2.4-2.8c0.3-1.2,1.3-1.9,3.3-1.9c1,0,2,0.2,3,0.5
			c0.7,0.3,1.6,0.7,2.5,1c0.3,0.1,0.6,0.1,1,0.2c0.4,0.1,0.8,0.1,1.4,0.2c1.9,0.1,4.7,0.1,8.6,0.1c2.4-0.1,4.8-0.1,7.2-0.2l1.2-0.2
			c0.7-0.2,1.2-0.2,1.6-0.2c0.6,0.1,1.1,0.4,1.8,0.8c0.9,0.7,1.4,1.4,1.6,2c0.1,0.4,0,1-0.2,1.8l-0.3,1.4c-0.3,1.4-0.4,3.7-0.4,6.9
			c0.1,3.1,0.2,5.6,0.4,7.4L480.3,43.5z M494.6,85.3c-0.7,0.3-2.2,0.3-4.6,0.1c-2.9-0.1-6.7-0.2-11.5-0.2c-6.1,0-10.1,0.1-12.1,0.2
			l-1.8,0.2c-0.8,0.2-1.4,0.3-1.8,0.2c-0.6-0.2-1.1-0.7-1.9-1.6c-0.6-0.7-0.9-1.3-1-1.9c-0.1-0.4,0-0.8,0.1-1.4l0.2-1.1
			c0.2-1.9,0.3-3.7,0.4-5.8c0.1-2.8,0.1-5.2-0.1-7.4c-0.2-1-0.3-2-0.5-2.5c-0.3-0.7-0.7-1.2-1.2-1.4c-1.9-0.7-2.7-1.5-2.4-2.8
			c0.3-1.2,1.3-1.9,3.3-1.9c1.8,0,3.3,0.5,4.9,1.3c1.6,0.9,2.4,2,2.4,3c0,0.3-0.1,0.6-0.2,0.8c0,0.2-0.1,0.5-0.2,0.8
			c-0.2,0.4-0.3,0.7-0.3,0.8c-0.1,0.4-0.1,0.8-0.1,1.1c-0.1,2.4-0.2,4.9-0.2,7.7v5.5c0,0.5,0.1,0.8,0.3,1c0.3,0.3,0.7,0.5,1.2,0.5
			c1,0.1,4.7,0,10.4-0.2c5.8-0.1,9.8-0.2,11.9-0.4l0.7-0.1c2.7-0.2,4.4-0.2,5,0.1c1.2,0.4,1.6,1.3,1,3
			C496.4,84.3,495.7,85.1,494.6,85.3z M474.2,27.3c-0.3-0.2-0.7-0.2-1.1-0.2c-2.2-0.1-4.7-0.2-7.5-0.2c-3.6-0.1-5.8,0-6.6,0.1
			c-0.6,0-0.9,0.1-1,0.4c-0.2,0.3-0.3,0.7-0.3,1.4l-0.2,13c0,0.6,0.1,0.9,0.2,1c0.2,0.3,0.5,0.4,0.8,0.5c1,0.1,3.3,0.1,7.2,0.1
			c3.4-0.1,6-0.1,7.6-0.1c0.6,0,0.9-0.1,1-0.3c0.2-0.2,0.3-0.6,0.4-1v-14C474.6,27.8,474.4,27.5,474.2,27.3z M503.1,24
			c0,0.2-0.1,0.5-0.2,0.8c-0.1,0.4-0.2,0.7-0.2,0.8c-0.1,0.4-0.2,0.7-0.2,1c-0.2,3.9-0.3,8.5-0.2,13.7c0.1,5.1,0.2,8.7,0.4,10.7
			c0.3,2.3,0.3,3.8-0.2,4.7c-0.4,1-1.3,1.8-2.8,2.2c-1.9,0.5-3,0.1-3.3-1c-0.3-0.7-0.3-2.5-0.1-5.1l0.1-0.7c0.2-1.1,0.3-3,0.4-5.2
			c0.2-2.4,0.3-5,0.4-8c-0.9,0-2.3,0-4,0.1c-1.9,0.1-3.1,0.1-3.7,0.2l-1,0.1c-2,0.3-3.4,0.3-4,0.1c-0.8-0.3-1.5-1.1-2-2.7
			c-0.7-2-0.5-3.2,0.6-3.5c0.7-0.3,1.9-0.3,3.6,0.2l1.9,0.3l8.7,0.6c0.1-0.9,0.1-2,0-3c-0.1-0.7-0.1-1.6-0.2-2.7
			c-0.1-1-0.2-1.9-0.5-2.4c-0.3-0.8-0.7-1.3-1.2-1.5c-1.6-0.7-2.3-1.5-2.1-2.9c0.3-1.2,1.2-1.9,3-1.9c1.4,0,3,0.5,4.6,1.4
			c1.6,1,2.4,2,2.4,3.1C503.2,23.4,503.2,23.7,503.1,24z"/>
		<path class="st3" d="M572.3,63c-0.8,0.3-2.3,0.3-4.7,0.2c-3.2-0.3-10.6-0.4-22-0.3c-10.6,0-17.9,0.1-22.2,0.2l-1.2,0.1
			c-2.6,0.3-4.3,0.3-4.9,0.1c-0.9-0.3-1.6-1.1-2.1-2.7c-0.7-2-0.5-3.3,0.7-3.6c0.7-0.3,2-0.2,4,0.2l1.8,0.3c4,0.4,11.9,0.5,23.6,0.5
			c11.4,0,18.9-0.2,22.4-0.5c2.9-0.3,4.7-0.3,5.6,0c1.5,0.5,2,1.5,1.3,3.2C574.1,61.8,573.4,62.7,572.3,63z M553.7,31.4h1.5l0.3-0.1
			c2.8-0.2,4.6-0.2,5.2,0c1.3,0.4,1.8,1.3,1.1,3c-0.5,1.3-1.2,2-2.2,2.4c-0.7,0.3-2.2,0.3-4.6,0.2c-1.7-0.1-5.1-0.2-10.4-0.2h-10.9
			V41c0,0.5,0.1,0.8,0.3,1c0.2,0.2,0.5,0.2,0.9,0.2c1.2,0.1,4.7,0,10.7-0.2c5.6-0.1,9.6-0.2,12-0.3l0.5-0.1c2.8-0.2,4.6-0.2,5.2,0.1
			c1.2,0.4,1.6,1.3,1,3c-0.6,1.2-1.2,2-2.3,2.3c-0.8,0.3-2.3,0.4-4.6,0.2c-1.7-0.2-5.5-0.3-11.5-0.3c-5.1,0-9.1,0-12.1,0.1l-1.9,0.3
			c-0.8,0.2-1.3,0.3-1.7,0.2c-0.6-0.2-1.1-0.7-1.9-1.6c-0.6-0.7-0.9-1.3-0.9-1.9c-0.1-0.4,0-0.9,0.1-1.5l0.2-1.1
			c0.2-2.3,0.3-4.3,0.4-5.9c0.1-2.5,0.1-4.7-0.1-6.8c-0.2-1-0.3-2-0.5-2.4c-0.3-0.7-0.7-1.2-1.2-1.4c-1.9-0.7-2.7-1.5-2.4-2.8
			c0.3-1.3,1.3-1.9,3.3-1.9c1,0,2.1,0.2,3.1,0.5c0.8,0.3,1.7,0.7,2.5,1.3c0.2,0.2,0.5,0.3,0.8,0.3c0.3,0.1,0.6,0.2,1,0.2
			c1.1,0,4.4,0,9.7-0.1c5.9-0.1,9.8-0.3,11.7-0.5c2.9-0.2,4.7-0.2,5.5,0.1c1.3,0.4,1.8,1.3,1.1,3c-0.6,1.3-1.2,2-2.2,2.4
			c-0.7,0.3-2.3,0.3-4.7,0.2c-2-0.2-5.9-0.3-11.7-0.3h-9.6c-0.3,0-0.5,0.1-0.6,0.2c-0.1,0.1-0.2,0.3-0.2,0.5l-0.2,4.4L553.7,31.4z"
			/>
		<path class="st3" d="M659.7,62.6c-0.7,0.2-2,0.2-4,0l-1.8-0.2c-6.2-0.2-12.6-0.3-18.9-0.3c-4,0-10.4,0.1-19.2,0.2l-5,0.1l-1,0.1
			c-2.6,0.3-4.3,0.3-4.9,0.1c-0.9-0.3-1.6-1-2-2.4c-0.7-1.9-0.6-3,0.7-3.3c0.7-0.2,2-0.1,4.1,0.2l1.6,0.3c1,0.1,3.3,0.1,6.9,0.2
			c2,0.1,5.1,0.1,9.4,0.2l4.6,0.1l-0.1-1.8c-0.1-1-0.3-1.8-0.5-2.3c-0.3-0.7-0.7-1.1-1.2-1.3c-1.8-0.7-2.6-1.5-2.4-2.7
			c0.3-1.2,1.3-1.8,3.3-1.8c1.8,0,3.4,0.5,4.9,1.2c1.6,0.9,2.4,1.9,2.4,3c0,0.3-0.1,0.6-0.2,0.8c0,0.2-0.1,0.5-0.2,0.7
			c-0.1,0.4-0.2,0.7-0.2,0.8c-0.1,0.4-0.1,0.7-0.1,1l-0.1,2.3l3-0.1c4-0.1,6.9-0.1,8.8-0.2c3.3-0.1,5.5-0.1,6.5-0.2l2.3-0.2
			c2.6-0.3,4.3-0.3,5-0.1c1.3,0.5,1.6,1.5,0.8,3.2C661.6,61.6,660.8,62.3,659.7,62.6z M627.2,27.3c-2,0.1-4,0.1-6,0.2l-0.8,0.1
			c-2.8,0.3-4.6,0.3-5.2,0.1c-1-0.4-1.7-1.2-2.2-2.9c-0.7-1.8-0.5-2.9,0.7-3.2c0.7-0.3,2-0.2,3.8,0.2l2,0.3
			c3.1,0.4,7.3,0.5,12.6,0.5c4.9,0,8.8-0.2,12-0.5c3.3-0.3,5.6-0.3,6.7,0c1.5,0.4,2,1.2,1.4,2.7c-0.6,1.3-1.2,2.1-2,2.4
			c-0.8,0.4-2.4,0.5-4.7,0.5c-0.1,0.6-0.1,1-0.2,1.4c0,0.3-0.1,0.7-0.2,1l-0.3,1.8l-0.1,9.1c3.1-0.2,5.2-0.2,6.2,0.2
			c1.4,0.4,1.9,1.2,1.3,2.7c-0.6,1.4-1.3,2.2-2.4,2.6c-0.9,0.3-2.9,0.3-5.7,0.2c-2.7-0.2-6.4-0.3-11.3-0.2c-4.3,0-7.6,0.1-10.2,0.2
			l-1.3,0.1c-3.2,0.3-5.1,0.3-5.9,0c-0.9-0.4-1.8-1.3-2.3-3c-0.7-1.7-0.5-2.8,0.7-3.1c0.7-0.2,1.9-0.2,3.6,0.2l2,0.3h0.5
			c0.7,0,1.1,0,1.3,0.1c0.3,0,0.5,0.1,0.7,0.2l-0.2-3.6c-0.1-1-0.3-1.9-0.5-2.4c-0.3-0.7-0.7-1.2-1.2-1.4c-1.8-0.7-2.6-1.6-2.4-3
			c0.3-1.2,1.3-1.9,3.3-1.9c1.8,0,3.4,0.5,4.9,1.4c1.5,0.9,2.3,2,2.3,3c0,0.4-0.1,0.7-0.2,1c0,0.2-0.1,0.5-0.2,0.8l-0.3,1.8
			l-0.2,4.4c2.2,0.1,4.4,0.1,6.4,0.1c2,0,3.6,0,4.9-0.1c-0.1-2.3-0.1-4-0.1-5.1c0-2.1,0-3.4-0.1-4l-0.1-0.5c-0.2-1.2-0.3-2-0.5-2.6
			c-0.3-0.9-0.7-1.4-1.1-1.6l-1-0.5L627.2,27.3L627.2,27.3z"/>
		<path class="st3" d="M699.6,43.5c0.2,0.7,0.2,1.2,0.2,1.5c-0.1,0.6-0.5,1.1-1,1.9c-0.7,0.9-1.3,1.4-1.9,1.6
			c-0.4,0.1-0.9,0.1-1.8-0.2l-1.8-0.2l-0.5-0.1c-3.3-0.1-6-0.1-8.1-0.1c-3.4,0-6.1,0.1-8,0.2l-1.8,0.2c-0.8,0.2-1.3,0.3-1.8,0.2
			c-0.6-0.2-1-0.7-1.8-1.6c-0.6-0.7-0.9-1.3-0.9-1.9c-0.1-0.4,0-0.8,0.1-1.4l0.2-1.1c0.2-1.8,0.3-3.8,0.4-6.3c0.1-3,0.1-5.2-0.1-6.9
			c-0.2-1-0.3-2-0.5-2.4c-0.4-0.7-0.8-1.2-1.3-1.4c-1.8-0.7-2.6-1.5-2.4-2.8c0.3-1.2,1.3-1.9,3.3-1.9c1,0,2,0.2,3,0.5
			c0.7,0.3,1.5,0.7,2.4,1l2.4,0.3c1.9,0.1,4.7,0.1,8.6,0.1c2.4-0.1,4.8-0.1,7.2-0.2l1.2-0.2c0.7-0.2,1.2-0.2,1.6-0.2
			c0.6,0.1,1.1,0.4,1.8,0.8c0.9,0.7,1.4,1.3,1.5,1.9c0.2,0.4,0.1,0.9-0.2,1.7l-0.3,1.6c-0.3,1.4-0.4,3.7-0.4,6.9
			c0.1,3.1,0.2,5.6,0.4,7.4L699.6,43.5z M693.5,27.3c-0.3-0.2-0.7-0.2-1.1-0.2c-2.2-0.1-4.7-0.2-7.5-0.2c-3.6-0.1-5.8,0-6.6,0.1
			c-0.6,0-0.9,0.1-1,0.4c-0.1,0.3-0.3,0.7-0.3,1.4l-0.2,13c0,0.6,0.1,0.9,0.2,1c0.2,0.3,0.4,0.4,0.8,0.5c0.9,0.1,3.4,0.1,7.3,0.1
			c3.4-0.1,6-0.1,7.6-0.1c0.6,0,0.9-0.1,1-0.3c0.2-0.2,0.3-0.6,0.4-1v-14C693.9,27.8,693.8,27.5,693.5,27.3z M708.7,78
			c2.5,1.7,4.9,2.5,7.4,2.5l0.8-0.2c2.2-0.2,3.6-0.2,4.4,0.1c1,0.4,1.3,1.3,0.8,3c-0.5,1.2-1.2,2-2.2,2.2c-0.7,0.3-2.1,0.3-4.5,0.2
			c-3.1-0.2-6.2-1.1-9.2-3c-2.4-1.5-4.5-3.3-6-5.5c-1.5,2.3-3.5,4.2-6.2,5.7c-2.8,1.7-5.7,2.7-8.8,2.8l-1.1,0.2
			c-1.9,0.3-3,0.3-3.6,0c-0.8-0.3-1.5-1.1-2-2.6c-0.7-2-0.6-3.2,0.7-3.5c0.7-0.2,1.9-0.1,3.7,0.4l1.4,0.3c3.2,0.1,6.3-1.3,9.2-4
			c3-2.9,4.6-5.8,4.3-8.8c-0.1-1-0.2-1.9-0.5-2.4c-0.3-0.7-0.7-1.2-1.2-1.4c-1.8-0.7-2.6-1.5-2.4-2.8c0.2-1.2,1.2-1.9,3.2-1.9
			c1.8,0,3.4,0.5,5,1.3c1.6,0.9,2.4,1.9,2.4,3c0,0.3-0.1,0.6-0.2,0.8c0,0.2-0.1,0.5-0.2,0.7c-0.2,0.4-0.3,0.7-0.3,0.8
			c-0.1,0.4-0.1,0.8-0.1,1.1c0,0.7-0.1,1.2-0.2,2l-0.4,2.6C704.4,74,706.2,76.3,708.7,78z M729.5,23.9c0,0.2-0.1,0.5-0.2,0.8
			c-0.2,0.4-0.3,0.7-0.3,0.8c-0.1,0.4-0.1,0.8-0.1,1.2c-0.2,4.2-0.3,9.2-0.3,15.3c0.1,6.1,0.2,10,0.5,11.5c0.3,2.3,0.3,3.8-0.2,4.8
			c-0.5,1-1.4,1.8-3,2.2c-1.9,0.5-3,0.1-3.4-1.2c-0.3-0.8-0.3-2.6,0-5.4l0.1-0.4c0.2-1,0.3-3,0.5-5.9c0.2-3,0.3-6.1,0.3-9.1
			c-1.1-0.1-2.7-0.2-4.6-0.2c-1.9,0-3.5,0-4.9,0.1c0,3.1,0,5.7,0.1,7.6c0.1,2.5,0.2,4.2,0.3,5c0.2,2.3,0.1,3.9-0.2,4.8
			c-0.4,1-1.3,1.8-2.9,2.1c-1.9,0.5-3,0.1-3.4-1c-0.3-0.7-0.3-2.5,0-5.1l0.2-0.7c0.2-2,0.4-5.3,0.6-9.9c0.2-5.4,0.1-9.7-0.1-12.8
			c-0.1-1.1-0.3-2-0.5-2.5c-0.3-0.7-0.7-1.2-1.2-1.4c-1.7-0.7-2.5-1.7-2.3-3c0.3-1.3,1.3-2,3.2-2c1.7,0,3.3,0.5,4.8,1.4
			c1.5,0.9,2.2,2,2.2,3.2c0,0.4-0.1,0.7-0.2,0.9c0,0.2-0.1,0.5-0.2,0.8c-0.1,0.4-0.2,0.7-0.2,0.8c-0.1,0.4-0.2,0.7-0.2,1l-0.2,5.7
			h4.9c1.9-0.1,3.3-0.1,4.6-0.2l-0.1-6.1c-0.1-1-0.2-1.9-0.5-2.5c-0.3-0.8-0.7-1.3-1.3-1.5c-1.7-0.7-2.4-1.5-2.1-2.9
			c0.2-1.2,1.2-1.9,3-1.9c1.7,0,3.3,0.5,4.8,1.4c1.6,0.9,2.4,2,2.4,3.1C729.7,23.3,729.6,23.6,729.5,23.9z"/>
	</g>
</g>
</svg>
